<?xml version="1.0" encoding="utf-8"?>
<!-- Generator: Adobe Illustrator 27.9.0, SVG Export Plug-In . SVG Version: 6.00 Build 0)  -->
<svg version="1.1" id="Layer_1" xmlns="http://www.w3.org/2000/svg" xmlns:xlink="http://www.w3.org/1999/xlink" x="0px" y="0px"
	 viewBox="0 0 500 500" style="enable-background:new 0 0 500 500;" xml:space="preserve">
<style type="text/css">
	.st0{fill:#8A1538;}
</style>
<g>
	<path class="st0" d="M89.68,480.24c-1.73-8.82-3.46-17.65-5.47-27.89c-2.12,0-5.61,0.01-9.1,0c-16.6-0.03-16.61-0.03-16.61-16.15
		c0-114.35,0.09-228.7-0.17-343.06c-0.02-8.8,2.52-15.05,8.91-21.09c15.18-14.35,29.41-29.71,44.63-44.02
		c3.67-3.45,9.66-6.1,14.65-6.21c27.46-0.59,54.93-0.25,82.4-0.31c5.01-0.01,9.92,1.28,9.11,6.86c-0.37,2.59-5.42,4.83-8.71,6.55
		c-1.65,0.86-4.1,0.17-6.19,0.17c-21.5,0-42.99,0-64.49,0c-3.26,0-6.52,0-11.2,0c0,14.21,0.01,27.8,0,41.4
		c-0.01,13.65-0.47,14.12-14.08,14.14c-13.41,0.02-26.83,0-40.88,0c0,116.04,0,231.46,0,347.63c96.74,0,193.82,0,291.35,0
		c0-57.76,0-115.41,0-174.52c-3.15,2.89-5.33,4.75-7.36,6.76c-12.3,12.19-25.35,23.73-36.69,36.76
		c-22.38,25.72-49.72,44.25-80.36,58.3c-3.4,1.56-7.95,0.61-11.97,0.83c0.33-3.82-0.43-8.2,1.18-11.37
		c7.28-14.36,15.17-28.41,22.99-42.48c1.57-2.83,3.52-5.57,5.78-7.87c16.12-16.39,32.37-32.65,48.57-48.96
		c3.46-3.49,7.21-7.53,12.07-2.85c4.83,4.66,1.16,8.59-2.38,12.12c-13.73,13.72-28.12,26.85-40.94,41.37
		c-9.48,10.73-16.91,23.27-25.25,35.01c0.89,0.91,1.78,1.81,2.67,2.72c9.95-6,21.44-10.42,29.59-18.29
		c36.28-35.05,71.61-71.09,107.28-106.79c0.62-0.62,1.06-1.4,1.4-1.86c-4.26-4.48-8.43-8.86-13.22-13.89
		c-11.65,11.72-23.31,23.62-35.22,35.26c-2.2,2.15-5.27,3.94-8.22,4.54c-1.48,0.3-5.06-2.41-5.1-3.83
		c-0.08-2.88,0.81-6.56,2.71-8.58c9.2-9.79,19.04-18.96,28.23-28.75c2.39-2.55,4.61-6.53,4.63-9.87
		c0.29-50.46,0.19-100.92,0.17-151.37c0-1.44-0.28-2.87-0.56-5.55c-3.75,0-7.21,0-10.67,0c-34.93,0-69.87,0.01-104.8-0.03
		c-2.97,0-6.23,0.29-8.81-0.81c-2.03-0.87-4.62-3.81-4.46-5.6c0.21-2.37,2.46-5.16,4.61-6.56c1.73-1.12,4.63-0.53,7-0.53
		c39.41-0.02,78.82-0.02,118.23-0.01c12.26,0,13.09,0.87,13.12,13.4c0.01,4.45,0,8.9,0,14.48c5.34,0,10.04-0.02,14.73,0
		c11.88,0.07,12.89,1,12.91,12.65c0.04,27.17,0.01,54.34,0.01,81.51c0,3.18,0,6.36,0,9.54c0.99,0.66,1.99,1.31,2.98,1.97
		c4.37-5.07,8.41-10.49,13.19-15.15c10.08-9.83,21.22-9.34,31.43,0.85c10.2,10.18,10.87,21.56,1.18,31.54
		c-14.35,14.78-29.28,29-43.46,43.93c-2.9,3.05-5.05,8.16-5.09,12.35c-0.39,36.42-0.22,72.85-0.24,109.27
		c0,2.68,0.55,5.74-0.55,7.93c-1.12,2.25-3.96,5.05-6.03,5.03c-2.16-0.02-4.93-2.73-6.24-4.96c-1.06-1.81-0.44-4.65-0.44-7.03
		c-0.02-31.05-0.01-62.1-0.01-93.15c0-2.9,0-5.8,0-10.09c-9.23,7.09-14.89,13.17-14.73,25.31c0.8,59.4,0.37,118.83,0.36,178.24
		c0,12.12-1.03,13.15-13.41,13.15c-84.2,0.02-168.39,0.01-252.59,0.01c-3.55,0-7.1,0-11.44,0c0,4.91,0,9.14,0,13.98
		c96.99,0,193.87,0,291.81,0c0-6.78,0-13.25,0-19.72c0-22.99,0.04-45.98-0.03-68.97c-0.01-4.82,0.47-9.72,6.29-9.99
		c6.66-0.3,7.02,5.11,7.02,10.13c0,30.75,0.13,61.51-0.19,92.26c-0.04,3.41-2.65,6.8-4.07,10.2
		C297.52,480.24,193.6,480.24,89.68,480.24z M378.28,182.11c10.15-6.85,14.95-14.19,14.48-26.29c-1.08-27.64-0.34-55.36-0.34-83.04
		c0-3.16,0-6.33,0-9.32c-5.47,0-9.73,0-14.14,0C378.28,103.09,378.28,142.04,378.28,182.11z M421.54,186.81
		c8.06-8.18,16.04-16.14,23.86-24.27c3.98-4.13,2.61-7.95-1.05-11.66c-3.71-3.76-7.6-6.3-12.33-2.08
		c-8.56,7.65-16.9,15.55-25.03,23.06C412.65,177.67,416.57,181.7,421.54,186.81z M113.75,46.99
		c-10.17,10.17-19.86,19.86-29.63,29.63c9.54,0,19.36,0,29.63,0C113.75,66.46,113.75,56.84,113.75,46.99z M410.26,198.02
		c-4.83-5.51-8.66-9.88-12.08-13.78c-3.52,3.1-6.7,5.91-9.01,7.95c4.36,4.93,8.34,9.41,12.08,13.63
		C404.77,202.77,407.85,200.11,410.26,198.02z"/>
	<path class="st0" d="M277.35,200.34c3.73,3.27,10.65,6.61,10.58,9.79c-0.19,8.62-8.34,6.4-13.92,6.43
		c-31.94,0.14-63.89,0.08-95.83,0.06c-2.68,0-5.83,0.7-7.92-0.46c-2.45-1.36-5.18-4.23-5.51-6.74c-0.24-1.81,2.92-4.65,5.18-6.03
		c1.83-1.11,4.57-0.73,7.74-1.11c0-12.3,0.1-24.49-0.12-36.67c-0.03-1.65-1.49-3.45-2.65-4.88c-6.2-7.61-12.58-15.08-18.76-22.71
		c-3.39-4.19-3.02-8.17,1.37-11.61c19.02-14.92,37.88-30.04,57.11-44.69c7.7-5.87,16.46-5.67,24.13,0.19
		c18.98,14.48,37.64,29.38,56.45,44.08c5.1,3.99,5.21,8.23,1.04,12.95c-6.67,7.54-13.34,15.07-19.84,22.75
		c-1,1.19-1.49,3.16-1.51,4.77c-0.13,11.62-0.07,23.23-0.07,34.85C275.66,200.99,276.51,200.66,277.35,200.34z M261.55,202.33
		c0-15.93,0.09-31.37-0.12-46.8c-0.02-1.77-1.27-4.05-2.67-5.19c-10.59-8.57-21.36-16.92-32.27-25.49
		c-10.86,8.57-21.18,16.63-31.38,24.85c-1.51,1.22-3.45,3.16-3.47,4.79c-0.26,15.97-0.16,31.94-0.16,47.88c5.41,0,9.48,0,14.52,0
		c0-10.81,0.15-21.17-0.05-31.53c-0.13-6.87,2.94-9.78,9.72-9.57c6.85,0.21,13.73,0.35,20.57-0.03c8.15-0.46,11.36,3.08,11.08,11.1
		c-0.34,10.02-0.08,20.06-0.08,30C252.57,202.33,256.63,202.33,261.55,202.33z M283.12,133.63c-17.42-13.67-34.33-27.25-51.71-40.2
		c-2.22-1.65-7.95-1.38-10.29,0.37c-17.16,12.83-33.87,26.26-51.27,39.92c3,3.79,5.73,7.25,9.01,11.4
		c12.86-10.09,25.8-19.6,37.97-30.01c6.95-5.95,12.15-6.29,19.24-0.2c12.12,10.41,25.02,19.92,38.17,30.26
		C277.37,141.1,280.05,137.63,283.12,133.63z M233.04,175.4c-4.77,0-8.99,0-13.13,0c0,9.46,0,18.15,0,26.92c4.74,0,8.75,0,13.13,0
		C233.04,193.07,233.04,184.37,233.04,175.4z"/>
	<path class="st0" d="M178.19,364.25c-15.77,14.47-30.03,27.91-44.75,40.84c-4.3,3.78-10.22,10.74-15.69,2.99
		c-5.02-7.1,3.31-10.12,7.69-13.5c18.34-14.16,34.15-30.66,47.65-49.49c2.09-2.91,6.31-5.71,9.61-5.8c1.88-0.05,5.04,5.29,5.65,8.58
		c1.5,8.1,1.86,16.41,2.8,25.87c2.29-2.65,4.34-4.94,6.3-7.3c6.62-7.98,10.87-7.65,16.15,1.48c1.77,3.07,3.12,6.39,5.06,10.44
		c2.22-1.44,4.23-3.71,6.46-3.97c3.05-0.35,8.29-0.13,9.08,1.53c4.18,8.73,10.38,6.19,16.68,4.05c2.81-0.96,5.47-3.25,8.21-3.27
		c2.75-0.03,6.52,1.32,7.96,3.38c1.04,1.49-0.16,5.95-1.82,7.67c-6.84,7.06-25.13,9.11-34.67,5.05c-2.46-1.05-6.25-1.13-8.59,0.03
		c-11.98,5.96-13.53,5.36-16.23-7.82c-0.28-1.36-1.08-2.61-1.38-3.29c-7.37,4.9-14.21,10.16-21.74,14.13
		c-3.12,1.65-7.71,0.53-11.63,0.67c0.14-3.63-0.32-7.42,0.55-10.87C173.25,378.77,175.7,372.1,178.19,364.25z"/>
	<path class="st0" d="M193.59,257.74c-22.39,0-44.78,0.03-67.17-0.02c-5.32-0.01-11.99,0.87-11.92-7.01
		c0.06-7.2,6.31-6.64,11.41-6.64c45.68-0.01,91.36-0.01,137.03-0.01c1.19,0,2.71-0.45,3.52,0.11c2.85,1.97,5.45,4.29,8.14,6.47
		c-2.82,2.36-5.54,6.6-8.49,6.76c-13.69,0.73-27.45,0.34-41.18,0.34C214.49,257.74,204.04,257.74,193.59,257.74z"/>
	<path class="st0" d="M180.42,285.26c-18.78,0-37.56-0.02-56.34,0.02c-4.75,0.01-9.6-0.27-9.69-6.44c-0.09-6.12,4.57-6.69,9.44-6.69
		c37.86,0.05,75.72,0.06,113.58-0.01c5.01-0.01,9.9,1.19,9.05,6.82c-0.38,2.48-5.66,5.93-8.81,6.02
		C218.59,285.54,199.5,285.26,180.42,285.26z"/>
	<path class="st0" d="M166.77,299.73c14,0,28.01-0.41,41.97,0.29c3.45,0.17,9.1,3.52,9.58,6.17c1.16,6.33-4.42,7.2-9.56,7.2
		c-28.29-0.01-56.58-0.01-84.87,0c-4.85,0-9.46-0.86-9.48-6.83c-0.02-6.02,4.67-6.83,9.47-6.83
		C138.18,299.72,152.47,299.73,166.77,299.73z"/>
</g>
</svg>
