<?xml version="1.0" encoding="utf-8"?>
<!-- Generator: Adobe Illustrator 27.9.0, SVG Export Plug-In . SVG Version: 6.00 Build 0)  -->
<svg version="1.1" id="Layer_1" xmlns="http://www.w3.org/2000/svg" xmlns:xlink="http://www.w3.org/1999/xlink" x="0px" y="0px"
	 viewBox="0 0 500 500" style="enable-background:new 0 0 500 500;" xml:space="preserve">
<style type="text/css">
	.st0{fill:#8A1538;}
	.st1{fill:#FFFFFF;}
</style>
<path class="st0" d="M164.69,138.86c-20.07,0-40.14,0.01-60.21-0.01c-1.4,0-2.87,0.08-4.18-0.31c-2.92-0.87-4.43-2.97-4.13-6.08
	c0.29-2.94,2.06-4.58,4.91-5.05c0.87-0.14,1.79-0.08,2.68-0.08c40.53,0,81.05,0,121.58,0c0.89,0,1.8-0.06,2.68,0.07
	c3.05,0.44,4.85,2.19,5.06,5.31c0.21,3.15-1.47,5.1-4.37,5.92c-1.2,0.34-2.53,0.23-3.81,0.23
	C204.83,138.86,184.76,138.86,164.69,138.86z"/>
<path class="st0" d="M164.59,164.27c19.94,0,39.89,0,59.83,0c1.15,0,2.32-0.09,3.45,0.06c3.21,0.43,5.13,2.25,5.22,5.56
	c0.09,3.34-1.84,5.18-4.97,5.83c-0.86,0.18-1.78,0.08-2.68,0.08c-40.53,0-81.05,0-121.58,0c-0.77,0-1.54,0.04-2.3-0.04
	c-3.33-0.36-5.47-2.67-5.44-5.81c0.03-3.16,2.19-5.43,5.57-5.64c2.29-0.14,4.6-0.05,6.9-0.05
	C127.26,164.27,145.93,164.27,164.59,164.27z"/>
<path class="st0" d="M145.72,376.24c-13.67,0-27.34,0.01-41.01-0.02c-1.52,0-3.11,0-4.56-0.39c-2.84-0.77-4.15-2.86-3.99-5.77
	c0.15-2.75,1.65-4.52,4.35-5.11c0.99-0.22,2.03-0.23,3.05-0.23c27.85-0.01,55.71-0.01,83.56,0c1.14,0,2.33,0,3.42,0.28
	c2.68,0.67,4.09,2.5,4.18,5.26c0.09,2.75-1.18,4.75-3.82,5.53c-1.44,0.43-3.03,0.44-4.55,0.44
	C172.81,376.26,159.26,376.24,145.72,376.24z"/>
<path class="st0" d="M133.95,302.23c-9.84,0-19.67,0.01-29.51-0.01c-1.27,0-2.58,0.03-3.82-0.21c-2.7-0.53-4.25-2.26-4.46-5.01
	c-0.22-2.9,1.03-5.03,3.86-5.85c1.44-0.42,3.02-0.43,4.54-0.43c19.54-0.03,39.09-0.02,58.63-0.02c0.89,0,1.79-0.04,2.68,0.04
	c3.69,0.33,5.85,2.51,5.82,5.82c-0.03,3.35-2.15,5.51-5.95,5.61c-5.62,0.14-11.24,0.06-16.86,0.06
	C143.91,302.23,138.93,302.23,133.95,302.23z"/>
<path class="st0" d="M134.33,327.69c9.71,0,19.41-0.02,29.12,0.02c1.52,0.01,3.53-0.29,4.45,0.53c1.62,1.45,3.5,3.65,3.52,5.55
	c0.02,1.69-2.09,3.74-3.74,4.98c-1.03,0.77-2.96,0.44-4.48,0.45c-19.54,0.02-39.08,0.01-58.62,0.01c-0.64,0-1.28,0.02-1.92-0.02
	c-4.3-0.21-6.6-2.28-6.52-5.87c0.07-3.42,2.32-5.42,6.39-5.63c1.02-0.05,2.04-0.02,3.06-0.02
	C115.17,327.69,124.75,327.69,134.33,327.69z"/>
<path class="st1" d="M117.1,468.69c6.79-8.51,6.91-18.08,6.72-27.76c-0.15-7.8-0.03-15.61-0.03-23.76c80.62,0,160.99,0,241.63,0
	c0.09,0.79,0.28,1.63,0.28,2.48c0.02,9.87,0.09,19.74-0.01,29.61c-0.11,11.39-8.32,19.6-19.73,19.6
	c-75.22,0.04-150.43,0.02-225.65,0.01C119.47,468.87,118.63,468.78,117.1,468.69z"/>
<g>
	<path class="st0" d="M366.19,405.32c-11.39-0.08-22.77-0.02-34.16-0.03c-1.39,0-2.77,0-4.4,0c0-16.68,0-33.04,0-49.99
		c4.9,0,9.84,0,14.78,0c10.12-0.01,13.51-3.44,13.52-13.64c0.01-6.15,0.06-12.31-0.02-18.46c-0.09-7.39-3.93-11.38-11.36-11.61
		c-5.59-0.17-11.18-0.03-16.97-0.03c0-14.33,0-28.27,0-42.4h-11.92c0,14.17,0,28.1,0,42.38c-5.4,0-10.61-0.02-15.82,0.01
		c-4.73,0.02-9.47-0.09-14.19,0.22c-3.25,0.21-5.11,2.41-5.05,5.68c0.06,3.26,1.98,5.17,5.24,5.54c1.27,0.14,2.55,0.09,3.83,0.09
		c16.63,0.01,33.26,0,49.89,0c1.5,0,3,0,4.6,0c0,7.1,0,13.7,0,20.69c-1.74,0-3.24,0-4.75,0c-29.81,0-59.62,0-89.42,0
		c-7.07,0-8.65,1.57-8.66,8.5c0,3.53,0,7.07,0,11.48c-13.31-10.36-25.94-20.2-38.9-30.28c13.09-10.18,25.71-20,38.91-30.27
		c0,5.24-0.07,9.47,0.02,13.69c0.09,3.88,2.04,5.98,5.88,6.12c4.47,0.16,8.96,0.14,13.43,0.02c3.87-0.1,6.02-2.14,6.14-5.46
		c0.12-3.48-2.06-5.73-6.05-5.97c-2.51-0.15-5.03-0.03-7.91-0.03c0-3.41-0.01-6.34,0-9.26c0.02-4.61-1.69-8.27-5.92-10.38
		c-4.22-2.11-8.17-1.37-11.82,1.48c-13.42,10.47-26.89,20.88-40.26,31.42c-6.03,4.75-6.16,12.41-0.2,17.13
		c13.45,10.64,27.03,21.12,40.56,31.65c3.53,2.74,7.41,3.44,11.5,1.51c4.27-2.01,6.11-5.62,6.13-10.25c0.02-3.04,0-6.09,0-9.3
		c21.18,0,41.95,0,62.81,0c0,16.61,0,32.97,0,49.74c-1.82,0-3.45,0-5.07,0c-61.66,0-123.32,0-184.99,0
		c-10.51,0-13.34,2.86-13.34,13.5c0,10.13,0.13,20.25-0.04,30.38c-0.23,13.5-12.29,22.65-24.58,18.82
		c-8.19-2.55-13.44-10-13.47-19.39c-0.05-17.94,0-35.89-0.03-53.84c-0.01-4.54-2.16-7.1-5.75-7.06c-3.4,0.04-5.72,2.63-5.73,6.8
		c-0.04,18.59-0.3,37.18,0.11,55.76c0.28,12.77,6.8,22.01,18.34,27.51c2.38,1.13,5,1.77,7.51,2.64c87.51,0,175.02,0,262.53,0
		c2.98-1.07,6.12-1.82,8.91-3.26c10.68-5.48,16.58-14.42,17.02-26.37c0.44-11.78,0.2-23.58,0.09-35.37
		C377.13,408.99,373.11,405.37,366.19,405.32z M365.69,449.25c-0.11,11.39-8.32,19.6-19.73,19.6
		c-75.22,0.04-150.43,0.02-225.65,0.01c-0.84,0-1.68-0.09-3.22-0.18c6.79-8.51,6.91-18.08,6.72-27.76
		c-0.15-7.8-0.03-15.61-0.03-23.76c80.62,0,160.99,0,241.63,0c0.09,0.79,0.28,1.63,0.28,2.48
		C365.72,429.51,365.79,439.38,365.69,449.25z"/>
</g>
<path class="st0" d="M195.63,224.75c-13.26-10.46-26.64-20.78-39.96-31.17c-3.65-2.85-7.59-3.64-11.83-1.61
	c-4.26,2.04-6.04,5.68-6.04,10.3c0,3.03,0,6.06,0,9.21c-21.39,0-42.3,0-63.63,0c0-1.75,0-3.25,0-4.75c0-26.4-0.04-52.81,0.02-79.21
	c0.02-10.1,0.77-20.3-6.62-29.12c1.26-0.13,1.73-0.22,2.21-0.22c70.36,0,140.72-0.03,211.08,0.03V86.62c-80.71,0-161.42,0-242.13,0
	c-0.31,0.2-0.6,0.5-0.94,0.59c-16.18,4.25-24.83,15.29-24.91,31.94c-0.05,10.13-0.03,20.25,0,30.38c0.02,8.7,3.45,12.18,12.05,12.21
	c11.13,0.03,22.26,0.01,33.39,0.01c1.35,0,2.69,0,4.09,0c0,16.92,0,33.26,0,50c-5.71,0-11.19-0.1-16.66,0.02
	c-6.9,0.15-10.89,4.18-11,11.1c-0.1,6.54-0.04,13.07-0.03,19.61c0.02,9.26,3.73,12.96,13.08,13.01c4.82,0.03,9.63,0.01,14.84,0.01
	c0,1.98,0,3.49,0,5c0,34.86,0,69.73,0.01,104.59c0,1.53-0.05,3.11,0.33,4.57c0.76,2.99,2.93,4.6,5.96,4.31
	c2.98-0.28,4.89-2.1,5.15-5.25c0.11-1.27,0.06-2.56,0.06-3.84c0-34.86,0-69.73,0-104.59c0-1.48,0-2.96,0-4.51
	c21.49,0,42.4,0,63.63,0c0,3.06,0.04,5.86-0.01,8.66c-0.08,4.76,1.62,8.54,6.01,10.71c4.41,2.18,8.41,1.11,12.13-1.8
	c13.22-10.31,26.49-20.56,39.67-30.92C201.93,237.45,201.97,229.75,195.63,224.75z M62.35,150.2c-6.62,0-13.11,0-19.6,0
	c-5.11,0-10.23-0.06-15.34,0.03c-1.99,0.03-3.08-0.38-3.05-2.72c0.1-10.25-0.23-20.5,0.16-30.73c0.42-10.91,9-18.79,19.49-18.6
	c10.44,0.2,18.5,8.53,18.62,19.45c0.11,9.86,0.03,19.72,0.02,29.59C62.64,148.06,62.48,148.93,62.35,150.2z M149.31,263.86
	c0-4.75,0.02-8.56,0-12.37c-0.03-5.7-1.83-7.52-7.62-7.52c-30.18-0.02-60.36-0.01-90.54-0.01c-1.5,0-3.01,0-4.68,0
	c0-7.06,0-13.65,0-20.69c1.71,0,3.21,0,4.7,0c29.8,0,59.6,0,89.39,0c7.24,0,8.75-1.53,8.76-8.8c0-3.42,0-6.85,0-11.2
	c13.27,10.33,25.89,20.16,38.91,30.29C175.24,243.66,162.67,253.46,149.31,263.86z"/>
<path class="st0" d="M286.14,220.92c0-28.8,0-57.02,0-85.84c-9.53,0-18.9,0-28.27,0c-3.09,0-6.18-0.06-9.27,0.01
	c-3.96,0.1-7.05-1.29-8.54-5.13c-1.52-3.91,0.14-6.89,3.1-9.44c14.39-12.43,28.75-24.9,43.12-37.35
	c23.59-20.43,47.18-40.86,70.76-61.3c6.06-5.25,8.58-5.26,14.71,0.06c37.59,32.57,75.18,65.15,112.79,97.69
	c3.26,2.82,5.89,5.8,4.04,10.45c-1.73,4.34-5.38,5.08-9.58,5.04c-12-0.1-24-0.04-36.31-0.04c0,28.68,0,57.01,0,85.84
	c2.37,0,4.6-0.07,6.82,0.01c5.26,0.2,8.34,2.98,8.42,8.09c0.15,10.24,0.15,20.48-0.01,30.72c-0.08,4.87-3.14,7.75-8.06,7.94
	c-3.9,0.16-7.8,0.04-11.7,0.04c-52.02,0-104.04,0-156.06,0c-9.24,0-11.38-2.18-11.39-11.54c0-8.13-0.01-16.26,0-24.38
	c0.01-8.58,2.31-10.84,11.04-10.9C283.05,220.91,284.34,220.92,286.14,220.92z M426.78,220.69c0-29.49,0.05-58.4-0.13-87.31
	c-0.01-1.71-1.5-3.82-2.9-5.05c-18.57-16.27-37.24-32.42-55.89-48.59c-1.08-0.93-2.25-1.75-3.46-2.69c-0.85,0.6-1.54,1.01-2.14,1.52
	c-19.4,16.8-38.84,33.56-58.1,50.51c-1.39,1.22-2.13,3.88-2.14,5.88c-0.14,27.13-0.1,54.26-0.08,81.38c0,1.41,0.16,2.82,0.25,4.22
	c10.46,0,20.58,0,30.97,0c0-10.72-0.15-21.11,0.03-31.48c0.28-15.85,12.4-28.89,28.06-30.48c15.82-1.61,30.91,8.93,33.35,24.86
	c1.56,10.17,0.74,20.71,0.96,31.09c0.04,2.04,0.01,4.08,0.01,6.13C406.27,220.69,416.28,220.69,426.78,220.69z M268.24,119.47
	c7.26,0,12.96,0.3,18.61-0.13c2.65-0.2,5.72-1.22,7.7-2.91c20.77-17.73,41.35-35.68,62-53.54c6.71-5.8,9-5.77,15.86,0.17
	c20.52,17.77,41.02,35.56,61.54,53.33c1.22,1.05,2.52,2.78,3.84,2.83c7.13,0.28,14.28,0.13,22.59,0.13
	c-32.7-28.33-64.34-55.74-96.03-83.19C332.36,63.9,300.84,91.22,268.24,119.47z M442.16,236.86c-52.11,0-103.83,0-155.45,0
	c0,5.27,0,10.2,0,15.03c52,0,103.61,0,155.45,0C442.16,246.83,442.16,242.02,442.16,236.86z M379.87,220.82
	c0-11.28,0.37-22.14-0.12-32.96c-0.36-7.89-7.77-13.88-15.66-13.75c-8.13,0.13-14.88,6.5-15.26,14.74
	c-0.25,5.35-0.07,10.72-0.07,16.08c0,5.28,0,10.56,0,15.89C359.42,220.82,369.31,220.82,379.87,220.82z"/>
<path class="st0" d="M387.74,119.16c0.08,13.02-10.41,23.66-23.34,23.68c-12.75,0.02-23.3-10.38-23.43-23.09
	c-0.13-12.96,10.35-23.59,23.35-23.67C377.02,96,387.67,106.49,387.74,119.16z M372.12,119.32c-0.07-4.18-3.6-7.64-7.79-7.63
	c-4.18,0.01-7.69,3.49-7.75,7.68c-0.06,4.38,3.67,8.04,8.03,7.87C368.79,127.08,372.19,123.5,372.12,119.32z"/>
<path class="st0" d="M332.79,158.28c-5.13,0-9.93,0-14.99,0c0-5,0-9.8,0-15c4.79,0,9.71,0,14.99,0
	C332.79,148.03,332.79,152.95,332.79,158.28z"/>
<path class="st0" d="M395.93,143.08c5.09,0,9.89,0,14.97,0c0,5.11,0,10.02,0,15.17c-5,0-9.8,0-14.97,0
	C395.93,153.36,395.93,148.45,395.93,143.08z"/>
</svg>
