<?xml version="1.0" encoding="utf-8"?>
<!-- Generator: Adobe Illustrator 27.9.0, SVG Export Plug-In . SVG Version: 6.00 Build 0)  -->
<svg version="1.1" id="Layer_1" xmlns="http://www.w3.org/2000/svg" xmlns:xlink="http://www.w3.org/1999/xlink" x="0px" y="0px"
	 viewBox="0 0 500 500" style="enable-background:new 0 0 500 500;" xml:space="preserve">
<style type="text/css">
	.st0{fill:#8A1538;}
	.st1{enable-background:new    ;}
</style>
<g>
	<path class="st0" d="M63.6,215.3c0-27.5,0-54.4,0-81.9c-9.1,0-18,0-27,0c-3,0-5.9-0.1-8.9,0c-3.8,0.1-6.7-1.2-8.1-4.9
		c-1.5-3.7,0.1-6.6,3-9C36.3,107.6,50,95.7,63.7,83.8c22.5-19.5,45-39,67.6-58.5c5.8-5,8.2-5,14,0c35.9,31.1,71.8,62.2,107.7,93.3
		c3.1,2.7,5.6,5.5,3.9,10c-1.6,4.1-5.1,4.9-9.1,4.8c-11.5-0.1-22.9,0-34.7,0c0,27.4,0,54.4,0,82c2.3,0,4.4-0.1,6.5,0
		c5,0.2,8,2.8,8,7.7c0.1,9.8,0.1,19.6,0,29.3c-0.1,4.7-3,7.4-7.7,7.6c-3.7,0.1-7.4,0-11.2,0c-49.7,0-99.3,0-149,0
		c-8.8,0-10.9-2.1-10.9-11c0-7.8,0-15.5,0-23.3c0-8.2,2.2-10.4,10.5-10.4C60.6,215.3,61.9,215.3,63.6,215.3z M197.9,215.1
		c0-28.1,0.1-55.8-0.1-83.4c0-1.6-1.4-3.6-2.8-4.8c-17.7-15.5-35.6-31-53.4-46.4c-1-0.9-2.1-1.7-3.3-2.6c-0.8,0.6-1.5,1-2,1.4
		c-18.5,16-37.1,32-55.5,48.2c-1.3,1.2-2,3.7-2,5.6c-0.1,25.9-0.1,51.8-0.1,77.7c0,1.3,0.2,2.7,0.2,4c10,0,19.7,0,29.6,0
		c0-10.2-0.1-20.1,0-30.1c0.3-15.1,11.8-27.6,26.8-29.1c15.1-1.5,29.5,8.5,31.8,23.7c1.5,9.7,0.7,19.8,0.9,29.7c0,1.9,0,3.9,0,5.9
		C178.3,215.1,187.8,215.1,197.9,215.1z M46.5,118.4c6.9,0,12.4,0.3,17.8-0.1c2.5-0.2,5.5-1.2,7.3-2.8
		c19.8-16.9,39.5-34.1,59.2-51.1c6.4-5.5,8.6-5.5,15.1,0.2c19.6,17,39.2,33.9,58.8,50.9c1.2,1,2.4,2.7,3.7,2.7
		c6.8,0.3,13.6,0.1,21.6,0.1c-31.2-27-61.4-53.2-91.7-79.4C107.7,65.4,77.6,91.5,46.5,118.4z M212.5,230.5c-49.8,0-99.1,0-148.4,0
		c0,5,0,9.7,0,14.4c49.7,0,98.9,0,148.4,0C212.5,240,212.5,235.4,212.5,230.5z M153.1,215.2c0-10.8,0.4-21.1-0.1-31.5
		c-0.3-7.5-7.4-13.2-14.9-13.1c-7.8,0.1-14.2,6.2-14.6,14.1c-0.2,5.1-0.1,10.2-0.1,15.4c0,5,0,10.1,0,15.2
		C133.5,215.2,143,215.2,153.1,215.2z"/>
	<path class="st0" d="M369.3,483.5c-61.8,0.1-111.9-50-111.9-111.8c0-61.3,50-111.5,111.1-111.7c62.1-0.1,112.3,49.9,112.4,111.9
		C481,433.3,430.9,483.4,369.3,483.5z M369.9,274.9c-54.5,0.1-97.5,43.2-97.5,97.6c0,52.8,43.8,96.1,97.1,96.1
		c53,0,96.6-43.7,96.6-96.7C466,318.5,422.6,274.8,369.9,274.9z"/>
	<path class="st0" d="M379,178c-12.9-22.1-29.5-39.1-50.3-52c-21.3-13.3-44.6-20.5-69.7-22.2c-6.9-0.5-9-2.8-9.1-9.6
		c0-8.5,0-17.1,0-25.6c0-7.2,2.8-10.1,9.9-9.5c77.4,6.4,133.1,44.4,166.9,114.4c1.7,3.4,3.3,4.8,7.1,4.7c7.7-0.3,15.5,0,23.3-0.1
		c3.5,0,7,0.8,7.9,4.3c0.6,2.6,0.2,6.4-1.3,8.5c-14.2,19.4-28.7,38.6-43.2,57.8c-4,5.3-8.8,5.3-13.2,0.3
		c-16.8-19.1-33.5-38.3-50.3-57.4c-2.3-2.6-3.6-5.4-2.1-8.9c1.6-3.6,4.7-4.6,8.4-4.6C368.3,178.1,373.2,178,379,178z M413.5,233.3
		c10.2-13.6,20-26.6,29.9-40c-1.1-0.2-1.4-0.3-1.7-0.3c-5,0-9.9,0-14.9,0c-6.9,0-8.3-1-10.9-7.1c-21.8-52-59.6-86.7-113.2-104.1
		c-12.1-3.9-24.5-6.3-37.5-7.2c0,5.1,0,9.8,0,14.5c6.8,1.2,13.4,1.9,19.9,3.5c50.9,12,88.3,41.3,112.1,87.9
		c3.8,7.4,0.5,12.5-7.8,12.5c-3.3,0-6.7,0-11.1,0C390.3,206.8,401.7,219.8,413.5,233.3z"/>
	<path class="st0" d="M121,349.5c10.6,18.3,23.7,33,39.9,45c23.9,17.8,50.8,27.5,80.5,29.4c6.2,0.4,8.6,2.9,8.7,9
		c0.1,8.2,0,16.4,0,24.7c0,9.3-2.3,11.5-11.7,10.9c-43.6-3-82.2-18.6-115.4-47.2c-21.8-18.8-38.5-41.5-50-68c-1.2-2.8-2.6-4-5.8-3.9
		c-8.1,0.3-16.1,0-24.2,0.1c-3.5,0-6.4-0.8-8.1-4.2c-1.7-3.4-0.4-6.2,1.7-9c14.3-19,28.5-38,42.8-56.9c4.4-5.8,8.9-5.9,13.8-0.4
		c16.6,18.9,33.1,37.8,49.7,56.7c2.4,2.7,4.1,5.5,2.4,9.2c-1.7,3.9-5,4.6-8.8,4.5C131.4,349.4,126.7,349.5,121,349.5z M56.4,334.6
		c6.3,0,11.6,0,16.9,0c6.7,0,8.3,1.1,10.9,7.2c19.5,46.9,52.7,80,99.6,99.3c16.3,6.7,33.2,10.7,51.1,12c0-5,0-9.8,0-14.6
		c-5.4-0.9-10.6-1.5-15.7-2.5c-52.8-11.1-91.6-40.6-116.2-88.6c-3.9-7.6-0.6-12.7,8.1-12.8c3.3,0,6.6,0,10.8,0
		c-12.2-14-23.6-27-35.2-40.2C76.5,307.7,66.8,320.7,56.4,334.6z"/>
	<path class="st0" d="M160.6,118.1c0.1,12.4-9.9,22.6-22.3,22.6c-12.2,0-22.2-9.9-22.4-22.1c-0.1-12.4,9.9-22.5,22.3-22.6
		C150.4,96,160.5,106,160.6,118.1z M145.7,118.3c-0.1-4-3.4-7.3-7.4-7.3c-4,0-7.3,3.3-7.4,7.3c-0.1,4.2,3.5,7.7,7.7,7.5
		C142.5,125.7,145.7,122.3,145.7,118.3z"/>
	<path class="st0" d="M108.1,155.5c-4.9,0-9.5,0-14.3,0c0-4.8,0-9.4,0-14.3c4.6,0,9.3,0,14.3,0C108.1,145.7,108.1,150.4,108.1,155.5
		z"/>
	<path class="st0" d="M168.4,141c4.9,0,9.4,0,14.3,0c0,4.9,0,9.6,0,14.5c-4.8,0-9.4,0-14.3,0C168.4,150.8,168.4,146.1,168.4,141z"/>
</g>
<g class="st1">
	<path class="st0" d="M318.5,402.1c-14.9-4-23.7-15.7-23.7-34.4c0-21.7,13.3-37,36.3-37c22.8,0,36,14,36,36.4
		c0,17.3-8.7,31.4-26.5,34.6c7.7,5.6,16.6,10,24.7,10c2.3,0,6-0.9,8.5-2l2,11c-3.9,2.4-8.9,3.4-13.7,3.4
		C346.3,424.1,331.4,408.9,318.5,402.1z M330.8,391.2c6.3,0,13-2.4,16-5c2.9-4.6,4.2-12.6,4.2-18.5c0-13-6.6-24.7-20.4-24.7
		c-5.8,0-12.3,2.2-15.5,5.1c-3,4.4-4.4,12.8-4.4,19C310.8,379.6,316.8,391.2,330.8,391.2z"/>
	<path class="st0" d="M378.5,332.3h27.7c23.1,0,30,8.3,30,21.9c0,10.8-5.9,17.7-15,20.9l17.7,27.2h-19l-14.8-24.7h-10.9v24.7h-15.7
		V332.3z M406.2,365.6c5.9,0,9.3-0.8,11.7-1.8c1.8-2.4,2.6-5.4,2.6-9.2c0-6.1-3.2-10.3-14.2-10.3h-12v21.4H406.2z"/>
</g>
</svg>
