<svg width="208" height="50" viewBox="0 0 208 50" fill="none" xmlns="http://www.w3.org/2000/svg">
<path d="M44.9385 38.3715C44.5882 38.3715 44.2274 38.2826 43.9032 38.0996C42.8836 37.5244 42.5228 36.2329 43.0928 35.2133C43.2444 34.9414 43.3908 34.6695 43.532 34.3976C46.162 29.2212 46.047 21.5872 43.2444 15.8408C41.0797 11.3964 37.7281 7.97682 33.8117 6.20427C31.4274 5.08009 28.9229 4.44219 26.3346 4.2801C25.1634 4.2069 24.2745 3.20298 24.3477 2.03697C24.4209 0.86573 25.4301 -0.0127082 26.5908 0.0500366C29.7176 0.238271 32.7451 1.01736 35.5895 2.35591C40.379 4.52061 44.4627 8.65656 47.0614 13.9846C50.4601 20.9598 50.5594 29.9323 47.3176 36.3218C47.1503 36.6512 46.9777 36.9754 46.7947 37.2996C46.4078 37.9898 45.6862 38.382 44.9437 38.382L44.9385 38.3715Z" fill="url(#paint0_linear_13866_60009)"/>
<path d="M3.70975 35.4693C2.8627 35.4693 2.0627 34.9569 1.73329 34.1203C-1.02226 27.0876 -0.47324 19.2811 3.24439 12.7086C7.92935 4.41583 17.0901 -0.55671 26.5959 0.0498238C27.762 0.123026 28.6508 1.13218 28.5776 2.29819C28.5044 3.46943 27.4953 4.35832 26.3293 4.27989C18.4339 3.77793 10.8261 7.90863 6.94111 14.7949C3.85616 20.2537 3.40126 26.7373 5.68622 32.5778C6.11497 33.6706 5.57641 34.8994 4.48361 35.3229C4.2274 35.4223 3.96596 35.4693 3.70975 35.4693Z" fill="url(#paint1_linear_13866_60009)"/>
<path d="M24.9697 50C20.8077 50 16.5933 48.9595 12.7188 46.7739C7.72011 43.9556 3.81947 39.4589 1.73321 34.1203C1.30968 33.0275 1.84824 31.7988 2.93582 31.3752C4.02862 30.9465 5.25738 31.4903 5.68091 32.5779C7.41162 37.0118 10.6534 40.7399 14.7998 43.0824C24.771 48.7138 37.4612 45.1791 43.0925 35.2079C43.6677 34.1883 44.9592 33.8275 45.9788 34.4027C46.9984 34.9779 47.3592 36.2693 46.784 37.2889C42.1932 45.4196 33.7017 49.9948 24.9645 49.9948L24.9697 50Z" fill="url(#paint2_linear_13866_60009)"/>
<path d="M4.40005 37.0795C3.61574 37.0795 2.8628 36.6403 2.49156 35.8925C0.248431 31.3069 -0.0757508 26.1253 1.58176 21.2939C3.23927 16.4678 6.67455 12.5724 11.2602 10.3292C20.7712 5.67565 31.8405 9.43513 36.4627 18.8887C36.9751 19.9397 36.5411 21.2102 35.4901 21.7227C34.4392 22.2351 33.1686 21.8011 32.6562 20.7501C30.915 17.1946 27.9555 14.5593 24.3163 13.3305C20.6771 12.1018 16.7033 12.3894 13.1268 14.141C5.76475 17.7436 2.70071 26.6638 6.30331 34.0259C6.81573 35.0769 6.38174 36.3474 5.33077 36.8651C5.03273 37.0115 4.71378 37.0795 4.40005 37.0795Z" fill="url(#paint3_linear_13866_60009)"/>
<path d="M22.6432 33.8899C22.6327 33.8115 22.6275 33.7383 22.6275 33.6599C22.6275 33.5971 22.6275 33.5448 22.638 33.4821V33.456C21.9059 33.2677 21.2001 32.9854 20.5465 32.6194C19.4537 32.0128 18.4916 31.1762 17.7334 30.1409C17.7857 30.2194 17.8432 30.2978 17.9007 30.3762C17.9007 30.3867 17.9007 30.3919 17.9164 30.3971C17.9739 30.4756 18.0314 30.554 18.0994 30.6324C18.1988 30.7684 18.3086 30.8991 18.4236 31.0298C18.4236 31.0298 18.4236 31.0403 18.4341 31.0403C18.5543 31.1867 18.685 31.3279 18.821 31.4638C18.8367 31.4847 18.8576 31.5109 18.8837 31.5266C19.0144 31.6625 19.1452 31.7984 19.2863 31.9292C19.2863 31.9292 19.302 31.9396 19.3073 31.9448C19.4327 32.0651 19.5582 32.1801 19.6942 32.2952C19.7674 32.3579 19.8458 32.4207 19.919 32.4834C20.0602 32.6037 20.2014 32.7187 20.353 32.8285C20.5046 32.9383 20.651 33.0481 20.8027 33.1527L20.8131 33.1632C20.9805 33.273 21.153 33.388 21.3255 33.4978C21.336 33.5082 21.3465 33.5187 21.3621 33.5187C21.3621 33.5187 21.3726 33.5292 21.3778 33.5292C21.5713 33.6494 21.77 33.7645 21.9687 33.8795C22.0105 33.9056 22.0523 33.9318 22.0889 33.9475C22.272 34.052 22.4602 34.1462 22.6536 34.2403C22.6746 34.256 22.7059 34.2664 22.7321 34.2769C22.6955 34.1514 22.6693 34.0259 22.6536 33.8899H22.6432ZM37.132 20.5671C36.9804 20.154 36.8131 19.7514 36.6301 19.3593V19.3436C34.4445 14.7162 29.7647 11.877 24.8183 11.877C23.4066 11.877 21.9635 12.1122 20.5517 12.5985C20.5256 12.609 20.5046 12.6194 20.4785 12.6247C13.6968 15.0299 10.136 22.5017 12.5413 29.2834C12.7243 29.7906 12.9439 30.2821 13.1896 30.7527C13.2001 30.7736 13.2105 30.7945 13.2158 30.8155C13.2315 30.8468 13.2471 30.8834 13.2681 30.92C13.2681 30.9357 13.2785 30.9409 13.2837 30.9566C13.2837 30.9723 13.2942 30.9775 13.2994 30.9932C13.5818 31.5318 13.9007 32.0494 14.2511 32.5514C16.7033 35.9553 20.6824 37.9736 24.8549 37.9736C25.6706 37.9736 26.4915 37.8952 27.3125 37.7383C27.9451 37.618 28.583 37.4507 29.2053 37.2259C29.9739 36.9488 30.7111 36.6089 31.4013 36.2115C31.9137 35.9187 32.3948 35.5893 32.8549 35.2285C34.4392 33.9998 35.7255 32.4102 36.6196 30.5435C38.115 27.3958 38.298 23.8508 37.1373 20.5723L37.132 20.5671ZM32.7869 28.7187C31.9242 30.5279 30.5072 31.9553 28.7347 32.8285C28.4471 32.9801 28.1491 33.1056 27.8406 33.2102C27.8406 33.2102 27.8301 33.2207 27.8196 33.2207C27.8092 33.2207 27.7987 33.2311 27.7883 33.2363C27.485 33.3461 27.1765 33.435 26.868 33.5083C25.4458 33.8481 24.0027 33.8115 22.6484 33.4664C21.9164 33.2782 21.2105 32.9958 20.5569 32.6298C19.4641 32.0233 18.502 31.1867 17.7439 30.1514C17.7229 30.1305 17.702 30.1043 17.6811 30.0782C17.6811 30.0782 17.6811 30.0625 17.6654 30.0573C17.404 29.6913 17.1687 29.2991 16.9596 28.8808C16.9596 28.8808 16.9596 28.8808 16.9596 28.8704C16.8027 28.5566 16.6667 28.2324 16.5465 27.8926C14.9256 23.3122 17.3256 18.2717 21.9059 16.6456C26.4811 15.0247 31.5268 17.4299 33.1477 22.005C33.9373 24.222 33.8118 26.6115 32.8026 28.7396L32.7869 28.7187ZM22.6432 33.8899C22.6327 33.8115 22.6275 33.7383 22.6275 33.6599C22.6275 33.5971 22.6275 33.5448 22.638 33.4821V33.456C21.9059 33.2677 21.2001 32.9854 20.5465 32.6194C19.4537 32.0128 18.4916 31.1762 17.7334 30.1409C17.7125 30.12 17.6916 30.0939 17.6707 30.0677C17.7439 30.1775 17.8223 30.2769 17.9007 30.3815C17.9007 30.3919 17.9007 30.3971 17.9164 30.4024C17.9739 30.4808 18.0314 30.5592 18.0994 30.6377C18.1988 30.7736 18.3086 30.9043 18.4236 31.035C18.4236 31.035 18.4236 31.0455 18.4341 31.0455C18.5543 31.1919 18.685 31.3331 18.821 31.469C18.8367 31.49 18.8576 31.5161 18.8837 31.5318C19.0144 31.6677 19.1452 31.8037 19.2863 31.9344C19.2863 31.9344 19.302 31.9449 19.3073 31.9501C19.4327 32.0703 19.5582 32.1854 19.6942 32.3004C19.7674 32.3632 19.8458 32.4259 19.919 32.4886C20.0602 32.6089 20.2014 32.7239 20.353 32.8337C20.5046 32.9435 20.651 33.0533 20.8027 33.1579L20.8131 33.1684C20.9805 33.2782 21.153 33.3932 21.3255 33.503C21.336 33.5135 21.3465 33.5239 21.3621 33.5239C21.3621 33.5239 21.3726 33.5344 21.3778 33.5344C21.5713 33.6546 21.77 33.7697 21.9687 33.8847C22.0105 33.9109 22.0523 33.937 22.0889 33.9527C22.272 34.0573 22.4602 34.1514 22.6536 34.2455C22.6746 34.2612 22.7059 34.2716 22.7321 34.2873C22.6955 34.1566 22.6693 34.0311 22.6536 33.8952L22.6432 33.8899Z" fill="url(#paint4_linear_13866_60009)"/>
<path d="M31.124 40.4573C30.3083 40.4573 29.4508 40.405 28.5357 40.2952C21.5135 39.4377 15.9606 36.0495 13.2992 30.9985C12.7554 29.9632 13.1528 28.6822 14.1881 28.1332C15.2234 27.5894 16.5044 27.9868 17.0534 29.022C19.056 32.8286 23.4325 35.4011 29.0534 36.0913C31.7357 36.4155 33.7645 36.0965 36.1697 35.4743C37.3043 35.1815 38.4599 35.8612 38.7527 36.9959C39.0455 38.1305 38.3658 39.2861 37.2311 39.5789C35.1971 40.107 33.2939 40.4625 31.1292 40.4625L31.124 40.4573Z" fill="url(#paint5_linear_13866_60009)"/>
<path d="M30.371 30.4187C30.1358 30.9572 29.8325 31.4801 29.4665 31.9873C29.2887 32.233 29.0534 32.5049 28.7397 32.8239L28.1593 33.399C27.8456 33.6971 27.4848 34.0317 27.0665 34.4082C26.7998 34.6487 26.5279 34.9049 26.2613 35.1559C26.2403 35.1768 26.2194 35.1977 26.1985 35.2134C26.0939 35.3128 25.9894 35.3964 25.8743 35.4644C25.7279 35.5533 25.5815 35.6213 25.4247 35.6683C25.3776 35.6892 25.3253 35.6997 25.2782 35.7101C25.2469 35.7206 25.2103 35.7311 25.1737 35.7311C25.0377 35.7572 24.8966 35.7729 24.7658 35.7729C24.7083 35.7729 24.6508 35.7729 24.5933 35.7624C24.5515 35.7624 24.5096 35.7624 24.473 35.7467C24.3318 35.7258 24.1907 35.6945 24.06 35.6422C24.0129 35.6265 23.9606 35.6108 23.9135 35.5847C23.8037 35.5376 23.6992 35.4801 23.5946 35.4121C23.5475 35.386 23.5005 35.3494 23.4586 35.3128C23.4273 35.2866 23.3959 35.2553 23.3593 35.2291C23.307 35.1873 23.26 35.1402 23.2129 35.0879C23.1658 35.0356 23.1188 34.9834 23.0769 34.9311C22.9515 34.769 22.8521 34.5912 22.7841 34.403C22.7632 34.3611 22.7528 34.3193 22.7423 34.2827C22.7423 34.2827 22.7423 34.2722 22.7423 34.267C22.7057 34.1363 22.6796 34.0108 22.6639 33.8748C22.6534 33.8016 22.6482 33.7232 22.6482 33.6448C22.6482 33.582 22.6482 33.5298 22.6587 33.467V33.4409C22.6587 33.4409 22.6586 33.399 22.6691 33.3781C22.6691 33.3572 22.6691 33.3415 22.6796 33.3258C22.6796 33.3102 22.6796 33.2997 22.6796 33.2892C22.7109 33.0801 22.7841 32.8814 22.8783 32.6827C22.8992 32.6513 22.9149 32.62 22.9358 32.5781C22.9828 32.4945 23.0403 32.416 23.0979 32.3376C23.1397 32.2801 23.1868 32.2278 23.2338 32.1807C23.2547 32.1598 23.2756 32.1337 23.2966 32.118L23.3175 32.0971C23.6103 31.82 23.9083 31.5481 24.2011 31.2814C24.3528 31.1402 24.5201 30.9938 24.6874 30.8317C25.2678 30.2932 25.8639 29.7285 26.026 29.5141C26.2926 29.1428 26.5175 28.7193 26.6534 28.2958C26.9776 27.3442 26.9148 26.3455 26.1462 25.6657C26.1358 25.6657 26.1305 25.65 26.1253 25.6448L26.1148 25.6344C25.226 24.8814 25.1109 23.5429 25.8691 22.6435C26.6168 21.7703 27.9135 21.6448 28.8076 22.3612C28.8233 22.3716 28.8338 22.3821 28.8495 22.3925C28.8495 22.3925 28.853 22.3925 28.8599 22.3925C31.1344 24.3219 31.673 27.4906 30.3815 30.403L30.371 30.4187Z" fill="url(#paint6_linear_13866_60009)"/>
<path d="M26.8627 33.5035C26.9045 34.0159 26.7529 34.544 26.413 34.978C26.3607 35.0408 26.3084 35.1035 26.2561 35.161C26.2352 35.182 26.2143 35.2029 26.1934 35.2186C26.0888 35.3179 25.9842 35.4016 25.8692 35.4695C25.7228 35.5584 25.5764 35.6264 25.4195 35.6734C25.3725 35.6944 25.3202 35.7048 25.2731 35.7153C25.2418 35.7257 25.2052 35.7362 25.1686 35.7362C25.0326 35.7623 24.8914 35.778 24.7607 35.778C24.7032 35.778 24.6457 35.778 24.5882 35.7676C24.5463 35.7676 24.5045 35.7676 24.4679 35.7519C24.3267 35.731 24.1856 35.6996 24.0548 35.6473C24.0078 35.6316 23.9555 35.6159 23.9084 35.5898C23.7986 35.5427 23.6941 35.4852 23.5895 35.4172C23.5424 35.3911 23.4954 35.3545 23.4535 35.3179C23.4326 35.3022 23.4222 35.2918 23.4065 35.2813C23.3908 35.2708 23.3856 35.2604 23.3751 35.2552L22.3921 34.4708C22.0261 34.1519 21.681 33.8329 21.362 33.5088C21.0692 33.2107 20.7973 32.9127 20.5568 32.6094C19.8875 31.7885 19.4169 30.9781 19.166 30.2251C18.3451 27.7362 18.6013 25.3728 19.8875 23.5637C19.9032 23.5428 19.9137 23.5219 19.9346 23.5009C20.6248 22.5964 21.9111 22.3977 22.847 23.0617C23.7882 23.7362 24.0182 25.0486 23.3542 26.0003C23.3542 26.0003 23.3437 26.016 23.3385 26.0212C22.7163 26.8944 22.915 28.0656 23.1869 28.9022C23.2862 29.2003 23.7045 29.9114 24.6771 30.8316H24.6875C24.8182 30.9676 24.9646 31.0983 25.1163 31.229L25.9163 31.8617C25.9529 31.8826 25.9842 31.914 26.0208 31.9454C26.0365 31.9454 26.047 31.9611 26.0574 31.9715C26.0574 31.9715 26.0679 31.982 26.0731 31.9872C26.5594 32.3741 26.8261 32.9231 26.8679 33.4931L26.8627 33.5035Z" fill="url(#paint7_linear_13866_60009)"/>
<path d="M21.6027 26.9207C21.1791 26.9207 20.7504 26.7952 20.3739 26.5286C19.4223 25.8488 19.1974 24.526 19.8719 23.5743C20.8288 22.2253 22.3817 21.3208 24.1281 21.1011C25.8589 20.8763 27.5791 21.3574 28.834 22.4083C29.7334 23.1613 29.8484 24.4998 29.0954 25.3939C28.3425 26.2933 27.004 26.4083 26.1098 25.6554C25.7595 25.3626 25.221 25.2319 24.6667 25.2998C24.102 25.373 23.6 25.6449 23.3281 26.0266C22.9151 26.607 22.2615 26.9207 21.5974 26.9207H21.6027Z" fill="url(#paint8_linear_13866_60009)"/>
<path d="M35.3333 39.6783C30.868 39.6783 26.6902 37.8587 23.4484 35.328C22.5281 34.6064 22.3608 33.2731 23.0824 32.3529C23.804 31.4326 25.1373 31.2653 26.0575 31.9869C29.0641 34.3346 36.9229 38.9411 44.9908 31.0823C45.8326 30.2666 47.1712 30.2823 47.9869 31.1241C48.8026 31.9607 48.7869 33.3045 47.9451 34.1202C43.8405 38.1202 39.4588 39.6783 35.3281 39.6783H35.3333Z" fill="url(#paint9_linear_13866_60009)"/>
<path d="M169.696 19.9769C165.163 19.9769 161.456 23.6475 161.456 28.2122C161.456 32.7769 165.163 36.4527 169.696 36.4527C171.96 36.4527 174.01 35.2396 174.773 33.671V36.1965H177.91V28.2069C177.91 23.6423 174.235 19.9717 169.701 19.9717L169.696 19.9769ZM169.727 33.42C166.82 33.42 164.582 31.1246 164.582 28.2122C164.582 25.2998 166.789 23.0044 169.727 23.0044C172.666 23.0044 174.81 25.305 174.81 28.2122C174.81 31.1194 172.635 33.42 169.727 33.42Z" fill="#010101"/>
<path d="M183.526 24.7037C183.526 23.522 184.708 22.7481 186.245 22.7481C187.782 22.7481 189.152 23.522 189.152 24.7612H192.148C192.148 21.6919 189.597 19.9717 186.308 19.9717C183.019 19.9717 180.399 21.7861 180.399 24.4736C180.399 30.6697 189.503 27.9194 189.534 31.5272C189.534 32.7769 188.452 33.6344 186.475 33.6344C184.499 33.6344 183.145 32.7769 183.145 31.4017H180.148C180.148 34.6592 183.118 36.4474 186.407 36.4474C189.984 36.4474 192.703 34.8475 192.671 31.5952C192.572 25.4305 183.531 27.888 183.531 24.6932L183.526 24.7037Z" fill="#010101"/>
<path d="M197.963 24.7037C197.963 23.522 199.144 22.7481 200.676 22.7481C202.208 22.7481 203.589 23.522 203.589 24.7612H206.585C206.585 21.6919 204.028 19.9717 200.739 19.9717C197.45 19.9717 194.836 21.7861 194.836 24.4736C194.836 30.6697 203.939 27.9194 203.971 31.5272C203.971 32.7769 202.888 33.6344 200.901 33.6344C198.914 33.6344 197.581 32.7769 197.581 31.4017H194.585C194.585 34.6592 197.555 36.4474 200.844 36.4474C204.42 36.4474 207.139 34.8475 207.103 31.5952C207.008 25.4305 197.968 27.888 197.968 24.6932L197.963 24.7037Z" fill="#010101"/>
<path d="M153.309 13.8438H146.088V36.2018H149.226V27.9927H153.314C157.278 27.9927 160.499 24.7718 160.499 20.7771C160.499 16.7823 157.278 13.849 153.314 13.849L153.309 13.8438ZM153.309 25.1849H149.22V16.6568H153.309C155.735 16.6568 157.367 18.3509 157.367 20.7771C157.367 23.2032 155.735 25.1901 153.309 25.1901V25.1849Z" fill="#010101"/>
<path d="M91.9501 19.9766C87.4168 19.9766 83.7043 23.6471 83.7043 28.2171C83.7043 32.787 87.4115 36.4628 91.9501 36.4628C94.2193 36.4628 96.2638 35.2497 97.0272 33.6811V36.2118H100.159V28.2223C100.159 23.6524 96.4834 19.9818 91.9501 19.9818V19.9766ZM91.9814 33.4197C89.0743 33.4197 86.8364 31.1295 86.8364 28.2118C86.8364 25.2942 89.0429 23.004 91.9814 23.004C94.92 23.004 97.0638 25.3046 97.0638 28.2118C97.0638 31.119 94.8834 33.4197 91.9814 33.4197Z" fill="#010101"/>
<path d="M109.932 23.2656V20.2277H106.481V14.5127H103.354V20.2277H100.99V23.2656H103.354V28.6564C103.354 33.8015 106.099 36.1388 109.932 36.2956V33.263C107.662 33.0643 106.481 31.6577 106.481 28.6251V23.2604H109.932V23.2656Z" fill="#010101"/>
<path d="M119.605 19.9766C115.071 19.9766 111.369 23.6471 111.369 28.2171C111.369 32.787 115.066 36.4628 119.605 36.4628C121.879 36.4628 123.924 35.2497 124.692 33.6811V36.2118H127.819V28.2223C127.819 23.6524 124.143 19.9818 119.605 19.9818V19.9766ZM119.641 33.4197C116.734 33.4197 114.501 31.1295 114.501 28.2118C114.501 25.2942 116.703 23.004 119.641 23.004C122.58 23.004 124.724 25.3046 124.724 28.2118C124.724 31.119 122.554 33.4197 119.641 33.4197Z" fill="#010101"/>
<path d="M137.398 20.165C133.534 20.165 130.695 22.565 130.695 27.867V36.2068H133.822V27.867C133.822 24.6356 135.166 23.203 137.398 23.203H137.728V20.165H137.398Z" fill="#010101"/>
<path d="M74.622 18.0107C75.0299 18.2878 75.4168 18.5911 75.7776 18.9309C75.422 18.5806 75.0403 18.2773 74.622 18.0107ZM69.9789 13.5244C66.7475 13.5244 63.8822 14.8107 61.8325 16.9022C63.9083 14.8421 66.7841 13.5924 69.9789 13.5924C72.975 13.5924 75.6835 14.68 77.707 16.4943C75.6835 14.6486 72.9854 13.5244 69.9789 13.5244Z" fill="#010101"/>
<path d="M78.1043 16.8764C77.9736 16.7457 77.8376 16.615 77.7069 16.4947C75.6781 14.6803 72.9749 13.5928 69.9788 13.5928C66.7841 13.5928 63.9082 14.8424 61.8324 16.9026C61.6703 17.0647 61.5187 17.2267 61.3671 17.3888C59.5684 19.3967 58.4756 22.0581 58.4756 25.028C58.4756 28.4372 59.9135 31.4489 62.2194 33.5247H62.2246L62.2403 33.5509C64.2481 35.4071 66.9723 36.5208 69.9736 36.5208C72.2951 36.5208 74.4285 35.862 76.2062 34.7116C77.0428 34.1679 77.8062 33.5195 78.4703 32.7822C78.6533 32.5835 78.8206 32.3744 78.9775 32.1653C80.5043 30.2097 81.4036 27.7365 81.4036 25.0228C81.4036 21.8333 80.1435 18.947 78.0938 16.8764H78.1043ZM73.4507 32.6724C72.8912 32.913 72.3056 33.1012 71.6834 33.2267C71.6363 33.2371 71.5893 33.2424 71.537 33.2476C71.4167 33.2738 71.2965 33.2947 71.1657 33.3104C71.0978 33.3208 71.0246 33.3313 70.9514 33.3365C70.6272 33.3679 70.3082 33.394 69.9788 33.394C69.8272 33.394 69.686 33.3888 69.5448 33.3783C69.4298 33.3731 69.3252 33.3679 69.2154 33.3574C69.0899 33.3522 68.9749 33.3365 68.8494 33.3156C68.6507 33.2947 68.452 33.2581 68.2638 33.2215C65.1736 32.6097 62.7579 30.3456 61.9266 27.3548C61.8586 27.1247 61.8011 26.879 61.7592 26.6385C61.7331 26.4973 61.7069 26.3457 61.686 26.1993C61.6756 26.1313 61.6703 26.0633 61.6651 26.0006C61.6233 25.6764 61.6076 25.3574 61.6076 25.028C61.6076 20.3326 65.2834 16.662 69.984 16.662C71.0141 16.662 71.9867 16.8346 72.886 17.1588C73.32 17.3156 73.7383 17.5091 74.1409 17.7235C74.3082 17.8176 74.4703 17.9117 74.6272 18.0163C75.0455 18.2829 75.4272 18.5862 75.7827 18.9365C75.8664 19.015 75.9657 19.1039 76.0441 19.1927C76.3056 19.4594 76.5409 19.7418 76.7553 20.0398C76.8494 20.1705 76.9487 20.3117 77.0324 20.4529C77.1265 20.5888 77.2049 20.73 77.2886 20.8764C77.5082 21.2686 77.7017 21.6921 77.8585 22.1261C77.9265 22.3195 77.9892 22.5182 78.0468 22.7169C78.099 22.9156 78.1461 23.1248 78.1879 23.3287C78.303 23.8777 78.3553 24.4476 78.3553 25.0333C78.3553 25.1797 78.35 25.3261 78.3396 25.4725C78.3343 25.6084 78.3291 25.7548 78.3134 25.8908C78.3082 25.9797 78.2977 26.079 78.2821 26.1627C78.2716 26.2881 78.2559 26.4032 78.2298 26.5234C77.9631 28.0816 77.2886 29.4672 76.3108 30.5809C75.5317 31.4751 74.5644 32.1862 73.4664 32.6777L73.4507 32.6724Z" fill="#010101"/>
<path d="M82.4808 32.8084V36.3064C76.6769 36.3064 72.6403 32.7718 70.6063 28.845C70.6011 28.8398 70.6011 28.8346 70.6011 28.8241L73.5605 27.1875C75.0664 30.0424 78.0834 32.8032 82.4808 32.8032V32.8084Z" fill="#010101"/>
<defs>
<linearGradient id="paint0_linear_13866_60009" x1="23.0284" y1="2.62285" x2="52.3073" y2="31.9024" gradientUnits="userSpaceOnUse">
<stop stop-color="#C67987"/>
<stop offset="0.24" stop-color="#C47584"/>
<stop offset="0.44" stop-color="#C06B7C"/>
<stop offset="0.62" stop-color="#BA5A6E"/>
<stop offset="0.8" stop-color="#B1425B"/>
<stop offset="0.96" stop-color="#A62342"/>
<stop offset="1" stop-color="#A31B3C"/>
</linearGradient>
<linearGradient id="paint1_linear_13866_60009" x1="-2.63182" y1="29.9978" x2="27.3346" y2="0.031383" gradientUnits="userSpaceOnUse">
<stop offset="0.13" stop-color="#5C3292"/>
<stop offset="0.45" stop-color="#8F4F9E"/>
<stop offset="1" stop-color="#C77A88"/>
</linearGradient>
<linearGradient id="paint2_linear_13866_60009" x1="11.1108" y1="22.9669" x2="36.7731" y2="48.6279" gradientUnits="userSpaceOnUse">
<stop stop-color="#5C3292"/>
<stop offset="0.66" stop-color="#A01B3F"/>
<stop offset="0.91" stop-color="#A62850"/>
<stop offset="1" stop-color="#A61C42"/>
</linearGradient>
<linearGradient id="paint3_linear_13866_60009" x1="0.51474" y1="22.6235" x2="36.6602" y2="22.6241" gradientUnits="userSpaceOnUse">
<stop offset="0.02" stop-color="#5C3292"/>
<stop offset="0.22" stop-color="#6D2A80"/>
<stop offset="0.99" stop-color="#B11E39"/>
</linearGradient>
<linearGradient id="paint4_linear_13866_60009" x1="37.676" y1="26.485" x2="11.746" y2="23.5159" gradientUnits="userSpaceOnUse">
<stop offset="0.02" stop-color="#D98D98"/>
<stop offset="0.26" stop-color="#C85875"/>
<stop offset="0.74" stop-color="#A31B3C"/>
</linearGradient>
<linearGradient id="paint5_linear_13866_60009" x1="13.0542" y1="34.2248" x2="38.8153" y2="34.2252" gradientUnits="userSpaceOnUse">
<stop offset="0.24" stop-color="#A31B3C"/>
<stop offset="1" stop-color="#D06D81"/>
</linearGradient>
<linearGradient id="paint6_linear_13866_60009" x1="22.941" y1="28.6461" x2="30.9567" y2="29.1481" gradientUnits="userSpaceOnUse">
<stop stop-color="#D98D98"/>
<stop offset="0.18" stop-color="#D37C8C"/>
<stop offset="0.46" stop-color="#CD667E"/>
<stop offset="0.74" stop-color="#C95975"/>
<stop offset="1" stop-color="#C85573"/>
</linearGradient>
<linearGradient id="paint7_linear_13866_60009" x1="19.7307" y1="31.4695" x2="25.8744" y2="27.48" gradientUnits="userSpaceOnUse">
<stop stop-color="#D98B98"/>
<stop offset="0.6" stop-color="#D88996"/>
<stop offset="0.81" stop-color="#D68291"/>
<stop offset="0.97" stop-color="#D37689"/>
<stop offset="1" stop-color="#D37387"/>
</linearGradient>
<linearGradient id="paint8_linear_13866_60009" x1="21.7072" y1="27.5952" x2="27.37" y2="21.211" gradientUnits="userSpaceOnUse">
<stop offset="0.17" stop-color="#D98A98"/>
<stop offset="0.46" stop-color="#D06F85"/>
<stop offset="0.74" stop-color="#CA5C77"/>
<stop offset="0.94" stop-color="#C85573"/>
</linearGradient>
<linearGradient id="paint9_linear_13866_60009" x1="22.6066" y1="33.9476" x2="48.4104" y2="35.5633" gradientUnits="userSpaceOnUse">
<stop stop-color="#D98D98"/>
<stop offset="0.54" stop-color="#C85573"/>
<stop offset="0.97" stop-color="#AA1D4B"/>
</linearGradient>
</defs>
</svg>
