<svg width="73" height="72" viewBox="0 0 73 72" fill="none" xmlns="http://www.w3.org/2000/svg">
<g clip-path="url(#clip0_4607_1080)">
<path d="M-0.000104167 22.9248C0.121562 22.5227 0.233724 22.1168 0.366797 21.7185C1.01695 19.782 2.26023 18.3425 4.08143 17.4264C4.48445 17.2235 4.61562 17.0073 4.62133 16.5691C4.65555 13.9385 6.17828 12.4667 8.82833 12.4591C9.18383 12.4591 9.54122 12.4496 9.89672 12.461C10.6077 12.4857 11.2655 12.5028 11.8054 11.8389C12.0411 11.5487 12.6076 11.4274 13.0315 11.4084C14.2653 11.3534 15.5067 11.3193 16.7348 11.4198C17.2747 11.4634 17.7898 11.8465 18.3088 12.0931C18.5103 12.1879 18.6852 12.4364 18.8753 12.4402C20.3677 12.4686 21.8619 12.4572 23.4359 12.4572C23.4511 12.1538 23.4759 11.9034 23.4759 11.655C23.4797 9.40365 23.4683 7.15045 23.4797 4.89915C23.4987 1.92143 25.4092 0.0134204 28.3939 0.00583383C32.6218 -0.00554597 36.8516 0.00204056 41.0814 0.0039372C41.1993 0.0039372 41.319 0.00014393 41.4369 0.0096271C42.0852 0.0551463 42.4844 0.432576 42.511 1.01484C42.5376 1.62746 42.1327 2.09403 41.473 2.13386C40.9046 2.168 40.3324 2.14524 39.7621 2.14524C35.9847 2.14524 32.2073 2.14334 28.43 2.14524C26.5841 2.14713 25.6316 3.10114 25.6297 4.95794C25.6259 12.425 25.6259 19.892 25.6297 27.3591C25.6297 29.2955 26.5632 30.2059 28.5307 30.2059C36.3706 30.2059 44.2105 30.2059 52.0504 30.2059C54.0598 30.2059 54.8411 30.993 54.8411 33.0129C54.8411 35.3325 54.8411 37.6502 54.8411 40.1101C55.4609 39.9413 56.0103 39.837 56.5255 39.6455C59.9645 38.3728 62.2875 35.196 62.3046 31.5298C62.3465 22.5701 62.3274 13.6085 62.3179 4.64879C62.3179 3.15235 61.2553 2.15093 59.7135 2.14713C55.4609 2.13765 51.2083 2.14334 46.9556 2.14144C46.718 2.14144 46.4709 2.16231 46.2465 2.10541C45.7009 1.96316 45.3759 1.58952 45.4082 1.02243C45.4424 0.43068 45.7903 0.0703194 46.4043 0.0134204C46.5697 -0.0017527 46.737 0.00204056 46.9024 0.00204056C51.0847 0.00204056 55.2651 -0.00364934 59.4474 0.00204056C62.5765 0.00583383 64.4623 1.88729 64.468 4.99777C64.4737 7.43874 64.468 9.87781 64.468 12.3548C64.6429 12.4041 64.7931 12.461 64.9471 12.4857C67.0629 12.8081 68.3442 14.2116 68.3633 16.3548C68.369 16.9655 68.5686 17.25 69.099 17.5307C71.1236 18.6042 72.3516 20.3093 72.8516 22.5378C72.882 22.6706 72.9467 22.7939 72.9942 22.921V39.5658C72.6748 40.0988 72.2452 40.461 71.5912 40.2486C70.9354 40.0362 70.8308 39.4862 70.846 38.8698C70.8688 37.9935 70.8517 37.1154 70.8517 36.2391C70.8517 32.1386 70.8745 28.0362 70.8384 23.9357C70.8232 22.1244 70.0172 20.6943 68.3823 19.5848C68.3823 20.0286 68.3823 20.3283 68.3823 20.6298C68.3823 33.4074 68.3823 46.187 68.3823 58.9646C68.3823 61.6711 66.8519 63.1865 64.1391 63.1865C56.1795 63.1865 48.2198 63.1751 40.2602 63.1979C38.8724 63.2017 37.5512 63.1239 36.498 62.0656C35.7148 62.7427 34.8821 63.1789 33.886 63.1808C25.356 63.1865 16.826 63.1922 8.29604 63.177C6.64974 63.1732 5.19924 62.0409 4.77911 60.4572C4.63654 59.9167 4.61372 59.3325 4.61182 58.7673C4.60232 46.0371 4.60422 33.305 4.60422 20.5748V19.562C2.88188 20.7872 2.13286 22.2951 2.13286 24.2069C2.13667 36.2031 2.13286 48.1993 2.13667 60.1955C2.13667 63.5525 4.34758 65.7356 7.73333 65.7375C15.1949 65.7375 22.6546 65.7526 30.1162 65.7261C31.7074 65.7204 32.772 66.352 33.4031 67.8181C33.9696 69.1343 35.0228 69.8532 36.4676 69.8626C37.9143 69.8702 38.977 69.1666 39.5473 67.8484C40.1898 66.3577 41.2696 65.7185 42.8912 65.7261C50.3053 65.7564 57.7174 65.7394 65.1315 65.7394C68.7035 65.7394 70.8498 63.5981 70.8517 60.0343C70.8517 54.8906 70.8555 49.745 70.8479 44.6014C70.8479 44.076 70.8954 43.5848 71.4125 43.3174C72.1026 42.957 72.5741 43.3439 72.9961 43.8389V61.4795C72.9695 61.5193 72.9315 61.5554 72.9201 61.5971C71.8688 65.8835 69.3138 67.8807 64.8748 67.8807C57.5805 67.8807 50.2863 67.8901 42.992 67.8655C42.2239 67.8636 41.8057 68.0874 41.4654 68.81C40.4921 70.8811 38.8021 72.0001 36.4961 72.002C34.192 72.0039 32.4982 70.8963 31.5173 68.8252C31.1808 68.1139 30.7797 67.8617 30.0002 67.8636C22.493 67.8901 14.9839 67.8882 7.47669 67.875C3.75065 67.8693 0.830651 65.4397 0.11776 61.8057C0.0949479 61.6919 0.0360156 61.5876 -0.00390625 61.4776C-0.00390625 48.626 -0.00390625 35.7763 -0.00390625 22.9248H-0.000104167ZM18.8278 14.6497C18.8278 15.0139 18.8278 15.2946 18.8278 15.5753C18.8278 21.0983 18.824 26.6213 18.8335 32.1443C18.8335 32.9029 18.5864 33.4947 17.8887 33.8323C17.1815 34.1756 16.5542 33.984 15.9839 33.4928C15.6303 33.1893 15.2615 32.901 14.8908 32.5976C14.5752 32.8593 14.2938 33.0774 14.0315 33.3164C13.4136 33.8778 12.7464 34.2382 11.9061 33.8323C11.1077 33.4454 10.9613 32.7455 10.9632 31.9281C10.9784 26.4525 10.9708 20.9769 10.9708 15.5013V14.6118C10.2142 14.6118 9.55263 14.6118 8.89107 14.6118C7.29609 14.6156 6.7638 15.1486 6.7638 16.755C6.7638 30.811 6.7638 44.8669 6.7638 58.9229C6.7638 60.5065 7.31891 61.0509 8.91388 61.0509C17.0389 61.0509 25.1621 61.0509 33.2871 61.0509C34.8783 61.0509 35.4087 60.5179 35.4087 58.9077C35.4087 50.3273 35.4087 41.7469 35.4087 33.1666C35.4087 32.9162 35.384 32.664 35.3669 32.351C35.0418 32.351 34.7852 32.351 34.5285 32.351C32.5324 32.351 30.5344 32.2733 28.5421 32.37C25.6583 32.5103 23.3846 30.2932 23.4549 27.3268C23.55 23.3951 23.4778 19.4577 23.4778 15.5241C23.4778 15.2472 23.4778 14.9684 23.4778 14.6535H18.8259L18.8278 14.6497ZM37.6006 32.389C37.5854 32.6545 37.5626 32.8859 37.5626 33.1154C37.5626 41.7204 37.5607 50.3254 37.5626 58.9323C37.5626 60.5103 38.1196 61.0509 39.7222 61.0509C47.7997 61.0509 55.8791 61.0509 63.9566 61.0509C65.736 61.0509 66.2379 60.5502 66.2379 58.7692C66.2379 44.8062 66.2379 30.8432 66.236 16.8802C66.236 16.5255 66.2322 16.1633 66.1561 15.82C65.9851 15.0461 65.333 14.6194 64.4756 14.7199C64.4756 14.993 64.4756 15.2737 64.4756 15.5544C64.4718 20.9598 64.525 26.3652 64.449 31.7688C64.3768 36.7645 60.5614 41.178 55.6624 42.1263C53.8051 42.4866 52.7063 41.6009 52.6987 39.7194C52.6892 37.5383 52.6987 35.3572 52.6949 33.1761C52.6949 32.9219 52.6721 32.6697 52.6587 32.3871H37.6063L37.6006 32.389ZM13.1627 13.5554V31.3287C14.3414 29.9214 15.482 30.0694 16.6435 31.2472V13.5554H13.1627Z" fill="#A29475"/>
<path d="M40.6555 22.3634V16.8574C40.511 16.8347 40.3798 16.8138 40.2467 16.7949C38.7658 16.59 37.8514 15.4596 37.956 13.9632C38.0567 12.5502 39.0871 11.5772 40.5395 11.5583C41.7029 11.5431 42.8664 11.5393 44.0298 11.5583C46.1856 11.5962 47.2996 12.7342 47.2996 14.8698C47.2996 17.3316 47.2996 19.7934 47.2996 22.3615C47.6133 22.3615 47.887 22.3539 48.1608 22.3615C49.6873 22.407 50.7329 23.4938 50.7196 25.013C50.7044 26.5037 49.6683 27.5943 48.1798 27.6057C45.3795 27.6265 42.5774 27.6265 39.7753 27.6057C38.2887 27.5943 37.2488 26.5018 37.2355 25.0149C37.2222 23.4919 38.2658 22.4089 39.7905 22.3634C40.049 22.3558 40.3076 22.3634 40.6555 22.3634ZM45.1495 18.7996C45.1495 17.4264 45.1267 16.0514 45.1609 14.6782C45.1742 14.1168 44.9613 13.7811 44.4271 13.7602C43.1249 13.7109 41.8189 13.7033 40.5148 13.7242C40.3741 13.7261 40.1308 14.0239 40.1308 14.1851C40.1308 14.3425 40.3551 14.5872 40.5262 14.6384C40.7885 14.718 41.0908 14.6536 41.374 14.6706C42.1991 14.7218 42.7922 15.2282 42.8055 16.0514C42.8436 18.3956 42.8436 20.7399 42.8074 23.0841C42.7941 23.9433 42.1896 24.4592 41.3265 24.4933C40.8532 24.5123 40.3703 24.4573 39.9045 24.5217C39.7144 24.5483 39.5566 24.8043 39.3837 24.9561C39.5586 25.1287 39.7315 25.4473 39.9083 25.4511C42.6135 25.4833 45.3206 25.4833 48.0277 25.4511C48.2064 25.4492 48.3832 25.1344 48.56 24.9637C48.3908 24.81 48.2406 24.5597 48.0467 24.5217C47.6817 24.4497 47.292 24.5028 46.9118 24.499C45.7065 24.4895 45.1628 23.9679 45.1514 22.7768C45.1381 21.4511 45.1476 20.1234 45.1476 18.7977L45.1495 18.7996Z" fill="#A29475"/>
<path d="M47.3566 7.23015C47.3642 9.09644 45.8415 10.665 44.0051 10.6839C42.1211 10.7029 40.5547 9.14386 40.5547 7.25291C40.5547 5.38852 42.0793 3.86553 43.9557 3.85794C45.8453 3.85035 47.349 5.343 47.3566 7.23015ZM43.9576 8.54073C44.6229 8.54642 45.2084 7.94329 45.2084 7.25102C45.2084 6.57961 44.6704 6.0182 44.0089 5.99924C43.315 5.97837 42.7257 6.54168 42.7162 7.23584C42.7067 7.92432 43.2865 8.53314 43.9576 8.54073Z" fill="#A29475"/>
<path d="M21.1775 44.3889C24.2876 44.3889 27.3977 44.3851 30.5078 44.3908C31.2873 44.3908 31.7834 44.7967 31.7739 45.4264C31.7663 45.9935 31.4527 46.3595 30.9052 46.4904C30.6789 46.5435 30.4337 46.5283 30.1961 46.5283C24.1184 46.5283 18.0408 46.5283 11.9651 46.5283C11.8472 46.5283 11.7274 46.5321 11.6096 46.5264C10.8568 46.4866 10.3853 46.0428 10.4138 45.4017C10.4404 44.7929 10.9005 44.3946 11.6343 44.3927C14.8147 44.3851 17.9971 44.3889 21.1775 44.3889Z" fill="#A29475"/>
<path d="M21.1052 48.9576C24.145 48.9576 27.1829 48.9576 30.2226 48.9576C30.4355 48.9576 30.6561 48.9387 30.8614 48.9785C31.4184 49.0866 31.7606 49.4451 31.7663 50.0065C31.7739 50.6001 31.4298 50.9776 30.8348 51.08C30.6275 51.116 30.4089 51.097 30.1941 51.097C24.1165 51.097 18.0388 51.097 11.9612 51.097C11.7958 51.097 11.6285 51.1046 11.4631 51.0914C10.8472 51.0401 10.4233 50.6153 10.41 50.0501C10.3967 49.4602 10.8377 49.0107 11.4898 48.9633C11.678 48.9501 11.87 48.9576 12.0601 48.9576C15.0751 48.9576 18.0902 48.9576 21.1052 48.9576Z" fill="#A29475"/>
<path d="M21.1056 55.6699C18.0677 55.6699 15.0279 55.6699 11.9901 55.6699C11.7524 55.6699 11.4483 55.7458 11.2924 55.6301C10.9597 55.3835 10.5111 55.0573 10.473 54.7216C10.435 54.3878 10.7886 53.9497 11.0776 53.6652C11.2373 53.5078 11.6156 53.5343 11.895 53.5343C18.0202 53.5286 24.1434 53.5286 30.2686 53.5324C30.5043 53.5324 30.7495 53.5305 30.972 53.5931C31.5195 53.7486 31.8198 54.1412 31.7647 54.7027C31.7096 55.2565 31.3712 55.6036 30.7914 55.6586C30.5785 55.6794 30.3636 55.6699 30.1507 55.6699C27.1357 55.6699 24.1206 55.6699 21.1056 55.6699Z" fill="#A29475"/>
<path d="M21.0255 37.354C18.0352 37.354 15.0449 37.354 12.0545 37.354C11.7941 37.354 11.5279 37.3578 11.2751 37.3104C10.7409 37.2099 10.4424 36.8552 10.4215 36.3242C10.4006 35.7912 10.6744 35.4138 11.201 35.2791C11.4481 35.2146 11.718 35.2109 11.9766 35.2109C18.0523 35.2071 24.128 35.2071 30.2038 35.2109C30.4395 35.2109 30.6828 35.209 30.911 35.2583C31.4718 35.3797 31.7873 35.7571 31.7683 36.3185C31.7493 36.8742 31.428 37.244 30.852 37.3237C30.5954 37.3597 30.3311 37.3559 30.0707 37.3559C27.0556 37.3578 24.0425 37.3559 21.0274 37.3559L21.0255 37.354Z" fill="#A29475"/>
<path d="M21.0255 39.8065C24.0633 39.8065 27.1012 39.8065 30.139 39.8065C30.3995 39.8065 30.7284 39.7306 30.9052 39.8558C31.2397 40.0948 31.6865 40.4362 31.7169 40.7681C31.7492 41.1038 31.3937 41.5476 31.0915 41.815C30.9052 41.9819 30.5059 41.944 30.2018 41.944C24.1261 41.9497 18.0503 41.9497 11.9727 41.944C11.7141 41.944 11.4461 41.9364 11.199 41.87C10.6439 41.7183 10.3663 41.3181 10.4233 40.7548C10.4766 40.2294 10.7959 39.8937 11.3396 39.8254C11.5735 39.797 11.813 39.8027 12.0506 39.8027C15.041 39.8027 18.0313 39.8027 21.0216 39.8027L21.0255 39.8065Z" fill="#A29475"/>
<path d="M51.9632 44.3889C55.0011 44.3889 58.039 44.3889 61.0749 44.3889C61.3125 44.3889 61.6091 44.313 61.7726 44.4249C62.0958 44.6449 62.4589 44.9256 62.5996 45.2651C62.7878 45.7203 62.5349 46.1566 62.0768 46.3747C61.8524 46.4828 61.5749 46.5207 61.3221 46.5226C55.1057 46.5302 48.8873 46.5283 42.6709 46.5264C42.4827 46.5264 42.2831 46.5302 42.1082 46.4752C41.5721 46.3064 41.2718 45.9385 41.3212 45.36C41.3706 44.7853 41.7109 44.4648 42.2812 44.4003C42.4922 44.3775 42.7071 44.3889 42.9219 44.3889C45.935 44.3889 48.9501 44.3889 51.9632 44.3889Z" fill="#A29475"/>
<path d="M51.9631 51.0972C48.8302 51.0972 45.6973 51.101 42.5663 51.0934C41.65 51.0916 41.1025 50.4562 41.361 49.6975C41.5701 49.083 42.072 48.9521 42.6689 48.9521C47.2961 48.9616 51.9251 48.9578 56.5522 48.9578C58.0712 48.9578 59.5901 48.9578 61.109 48.9578C62.1394 48.9578 62.6413 49.3011 62.6527 50.0086C62.666 50.7445 62.1584 51.0953 61.0767 51.0953C58.0388 51.0953 55.001 51.0953 51.9631 51.0953V51.0972Z" fill="#A29475"/>
<path d="M51.9819 55.67C48.849 55.67 45.718 55.6663 42.5851 55.6738C42.0053 55.6738 41.5471 55.5088 41.357 54.9247C41.1593 54.3177 41.5186 53.7108 42.1593 53.5705C42.4102 53.5155 42.6782 53.5288 42.9387 53.5288C48.9669 53.5269 54.9932 53.5288 61.0214 53.5288C61.1393 53.5288 61.259 53.5269 61.3769 53.5288C62.1886 53.5534 62.6715 53.9764 62.6506 54.6421C62.6316 55.2888 62.1829 55.6644 61.3788 55.6663C58.2459 55.6719 55.1149 55.6682 51.9819 55.6682V55.67Z" fill="#A29475"/>
<path d="M46.1251 37.3542C44.9617 37.3542 43.7964 37.3636 42.6329 37.3523C41.7623 37.3428 41.3212 36.9748 41.3174 36.2939C41.3136 35.6131 41.7661 35.2148 42.6139 35.211C44.9427 35.2015 47.2715 35.1996 49.5983 35.211C50.4177 35.2148 50.9082 35.6548 50.893 36.3091C50.8777 36.9369 50.4082 37.3371 49.6174 37.3485C48.4539 37.3636 47.2886 37.3523 46.1251 37.3523V37.3542Z" fill="#A29475"/>
<path d="M46.0735 41.9495C44.8853 41.9495 43.6972 41.9742 42.509 41.9419C41.5414 41.9173 40.973 41.077 41.4596 40.3677C41.6517 40.0889 42.106 39.8404 42.4463 39.8329C44.8682 39.7873 47.292 39.8006 49.7159 39.8139C50.4402 39.8177 50.8945 40.2596 50.8888 40.8722C50.885 41.481 50.4307 41.9248 49.7064 41.94C48.4954 41.9666 47.2825 41.9476 46.0716 41.9476L46.0735 41.9495Z" fill="#A29475"/>
</g>
<defs>
<clipPath id="clip0_4607_1080">
<rect width="73" height="72" fill="white"/>
</clipPath>
</defs>
</svg>
