<svg width="234" height="319" viewBox="0 0 234 319" fill="none"
  xmlns="http://www.w3.org/2000/svg">
  <path d="M57.9269 290.963C74.936 290.963 91.5714 290.963 108.207 290.963C107.521 288.72 106.649 286.601 106.275 284.359C105.278 278.502 107.085 273.393 111.384 269.405C114.313 266.664 115.434 263.486 115.933 259.437C116.493 254.888 117.926 250.091 120.356 246.29C127.21 235.325 142.225 235.449 149.515 246.166C152.318 250.34 153.876 255.013 153.938 259.997C154.001 263.736 155.309 266.477 157.926 268.969C162.038 272.77 164.219 277.505 163.596 283.237C163.284 285.792 162.35 288.221 161.664 290.901C171.758 290.901 181.975 290.901 192.38 290.901C192.38 214.141 192.38 137.382 192.38 60.3732C150.885 60.3732 109.391 60.3732 67.6464 60.3732C67.6464 85.7935 67.6464 111.276 67.6464 136.946C64.2819 136.946 61.229 136.946 57.9892 136.946C57.9892 111.463 57.9892 86.0427 57.9892 60.1863C54.9362 60.1863 52.0702 60.1863 49.2042 60.1863C45.279 60.124 43.4722 58.4417 43.4722 54.5165C43.4099 48.5976 43.4099 42.6786 43.4722 36.7597C43.5345 33.3329 45.1544 31.5884 48.5189 31.3392C80.7304 28.4732 113.004 25.6695 145.216 22.8658C166.649 20.9966 188.144 19.0029 209.576 17.0714C214.748 16.6353 216.617 18.3175 216.679 23.3642C216.679 33.5822 216.679 43.8001 216.679 54.0181C216.679 58.5663 215.059 60.1863 210.511 60.1863C207.894 60.1863 205.34 60.1863 202.474 60.1863C202.474 137.07 202.474 213.892 202.474 291.025C208.642 291.025 214.935 291.025 221.352 291.025C221.352 294.327 221.352 297.256 221.352 300.495C125.341 300.495 29.2667 300.495 -66.9317 300.495C-66.9317 297.505 -66.9317 294.452 -66.9317 291.212C-60.7013 291.212 -54.5331 291.212 -48.1157 291.212C-48.1157 263.923 -48.1157 236.82 -48.1157 209.344C-52.1655 209.344 -56.2153 209.344 -60.2651 209.344C-65.6233 209.344 -67.1187 207.911 -67.1187 202.677C-67.1187 165.481 -67.1187 128.348 -67.1187 91.1517C-67.1187 85.6689 -65.6856 84.2982 -60.1405 84.2982C-56.153 84.2982 -52.1655 84.2982 -47.8665 84.2982C-47.8665 79.7499 -47.8665 75.4509 -47.8665 71.2142C-47.8665 66.7283 -46.2466 65.1083 -41.6983 65.1083C-29.7981 65.1083 -17.8356 64.9837 -5.93545 65.2329C-4.00401 65.2952 -1.63642 66.3544 -0.203415 67.6628C4.78096 72.2734 9.57841 77.1331 14.3136 82.0552C15.9958 83.7997 17.678 84.4228 20.1079 84.3605C29.3913 84.2359 38.737 84.2982 48.2073 84.2982C48.2073 87.4757 48.2073 90.4663 48.2073 93.7685C13.1921 93.7685 -21.9478 93.7685 -57.2745 93.7685C-57.2745 129.22 -57.2745 164.297 -57.2745 199.624C-47.8665 199.624 -38.4585 199.624 -28.8636 199.624C-28.8636 202.864 -28.8636 205.917 -28.8636 209.281C-31.8542 209.281 -34.9071 209.281 -38.0847 209.281C-38.0847 236.633 -38.0847 263.673 -38.0847 290.901C-27.0567 290.901 -16.0288 290.901 -4.75166 290.901C-4.75166 264.234 -4.75166 237.568 -4.75166 210.527C-7.11924 211.524 -9.42451 212.584 -11.6675 213.456C-15.7796 215.076 -18.8948 213.02 -18.9571 208.534C-19.0194 200.995 -18.9571 193.518 -19.0194 185.979C-19.0194 183.363 -17.9603 181.618 -15.5927 180.559C9.70303 169.531 34.9987 158.378 60.3567 147.475C61.7897 146.852 64.0327 146.914 65.4657 147.537C90.6368 158.441 115.746 169.469 140.854 180.434C143.471 181.556 144.593 183.425 144.593 186.291C144.53 193.581 144.593 200.933 144.53 208.222C144.53 213.082 141.415 215.138 136.991 213.269C134.811 212.334 132.63 211.4 130.138 210.278C130.138 218.066 130.138 225.418 130.138 233.019C126.898 233.019 123.908 233.019 120.481 233.019C120.481 226.353 120.045 219.624 120.605 212.957C121.104 207.412 119.048 205.045 114.063 202.989C97.8018 196.322 81.7272 189.095 65.5903 181.93C63.5966 181.057 62.039 180.933 59.9829 181.867C42.413 189.655 24.7808 197.319 7.21084 204.982C5.84014 205.605 4.96787 206.166 4.96787 207.973C5.03017 235.138 5.03017 262.303 5.03017 289.467C5.03017 289.841 5.09248 290.215 5.15479 290.776C9.82764 290.776 14.3759 290.776 19.4226 290.776C19.4226 289.779 19.4226 288.72 19.4226 287.661C19.4226 268.533 19.4226 249.406 19.4226 230.216C19.4226 225.044 20.9179 223.549 25.9646 223.549C34.3134 223.549 42.5999 223.549 50.9487 223.549C56.4939 223.549 57.9269 224.92 57.9269 230.403C57.9269 249.343 57.9269 268.284 57.9269 287.225C57.9269 288.471 57.9269 289.592 57.9269 290.963ZM206.897 26.9779C155.621 31.5261 104.468 36.012 53.3786 40.498C53.3786 43.987 53.3786 47.2269 53.3786 50.4044C104.718 50.4044 155.745 50.4044 206.897 50.4044C206.897 42.6163 206.897 34.9529 206.897 26.9779ZM-9.42451 201.742C-8.30302 201.369 -7.49306 201.057 -6.68311 200.746C15.0612 191.213 36.7433 181.743 58.4253 172.148C61.4159 170.839 63.9704 170.777 66.961 172.085C83.5964 179.5 100.294 186.727 116.929 194.079C122.786 196.634 128.643 199.188 134.873 201.867C134.873 197.443 134.935 193.518 134.811 189.531C134.811 188.908 133.939 188.035 133.316 187.724C110.325 177.631 87.3347 167.537 64.2819 157.568C63.4097 157.195 62.1013 157.195 61.229 157.568C38.1763 167.537 15.1858 177.631 -7.80459 187.724C-8.48994 188.035 -9.36221 189.032 -9.36221 189.78C-9.48682 193.643 -9.42451 197.568 -9.42451 201.742ZM48.0827 290.963C48.0827 271.648 48.0827 252.583 48.0827 233.643C41.603 233.643 35.3726 233.643 29.2044 233.643C29.2044 252.895 29.2044 271.835 29.2044 290.963C35.5595 290.963 41.7276 290.963 48.0827 290.963ZM134.935 291.087C137.615 291.087 140.356 291.087 143.035 291.087C147.77 291.087 151.446 289.156 153.44 284.795C155.371 280.62 153.253 277.505 150.262 274.764C146.337 271.088 144.53 266.539 144.343 261.119C144.219 258.191 143.409 255.138 142.1 252.521C139.048 246.415 131.633 246.041 128.144 251.835C126.524 254.515 125.652 258.004 125.465 261.181C125.154 266.477 123.534 270.901 119.733 274.577C119.11 275.2 118.487 275.885 117.864 276.508C115.06 279.623 114.936 283.611 117.615 286.851C119.733 289.405 122.537 290.963 125.964 290.963C128.954 291.087 131.945 291.087 134.935 291.087ZM3.09873 84.1736C-0.0165024 81.1206 -2.50868 78.5038 -5.18779 76.1363C-6.12236 75.3263 -7.55537 74.7033 -8.80146 74.7033C-17.711 74.5786 -26.6206 74.6409 -35.5302 74.6409C-36.4024 74.6409 -37.2747 74.7656 -38.0224 74.8279C-38.0224 78.13 -38.0224 81.1829 -38.0224 84.2359C-24.5022 84.1736 -11.169 84.1736 3.09873 84.1736Z" fill="#f4f4f4" />
  <path d="M48.1449 103.488C48.1449 106.852 48.1449 109.843 48.1449 113.02C33.8148 113.02 19.6094 113.02 5.09238 113.02C5.09238 129.095 5.09238 144.983 5.09238 160.995C1.72793 160.995 -1.325 160.995 -4.56484 160.995C-4.56484 145.17 -4.56484 129.344 -4.56484 113.332C-15.842 113.332 -26.8699 113.332 -38.1471 113.332C-38.1471 135.512 -38.1471 157.817 -38.1471 180.309C-35.1564 180.309 -32.1658 180.309 -28.9883 180.309C-28.9883 183.549 -28.9883 186.602 -28.9883 189.967C-33.9727 189.967 -39.0816 190.216 -44.066 189.842C-46.8074 189.655 -47.9912 187.35 -47.9912 184.608C-47.9912 180.123 -47.9912 175.574 -47.9912 171.088C-47.9912 150.777 -47.9912 130.403 -47.9912 110.092C-47.9912 104.983 -46.4959 103.488 -41.3869 103.488C-12.5398 103.488 16.3072 103.488 45.1543 103.488C46.1512 103.488 47.0234 103.488 48.1449 103.488Z" fill="#f4f4f4" />
  <path d="M120.481 93.6439C120.481 98.2544 120.543 102.865 120.481 107.476C120.419 111.214 118.674 113.021 114.936 113.083C105.839 113.145 96.6805 113.145 87.584 113.083C83.8457 113.083 82.0389 111.276 82.0389 107.538C81.9766 98.4414 81.9766 89.2826 82.0389 80.1861C82.0389 76.4478 83.8457 74.641 87.584 74.641C96.6805 74.5787 105.839 74.5787 114.936 74.641C118.674 74.641 120.481 76.4478 120.543 80.1861C120.543 84.672 120.481 89.158 120.481 93.6439ZM110.699 84.4228C104.219 84.4228 97.9889 84.4228 91.8207 84.4228C91.8207 90.8402 91.8207 97.133 91.8207 103.301C98.2381 103.301 104.406 103.301 110.699 103.301C110.699 97.0084 110.699 90.8402 110.699 84.4228Z" fill="#f4f4f4" />
  <path d="M178.175 93.9554C178.175 98.4414 178.237 102.99 178.175 107.476C178.112 111.214 176.368 113.083 172.692 113.083C163.595 113.145 154.437 113.145 145.34 113.083C141.54 113.083 139.733 111.276 139.733 107.6C139.67 98.5037 139.67 89.3449 139.733 80.2484C139.733 76.4478 141.54 74.641 145.216 74.641C154.312 74.5787 163.471 74.5787 172.567 74.641C176.43 74.641 178.175 76.4478 178.175 80.4353C178.237 84.9212 178.175 89.4072 178.175 93.9554ZM168.393 103.363C168.393 96.8837 168.393 90.6533 168.393 84.4851C161.913 84.4851 155.683 84.4851 149.515 84.4851C149.515 90.9025 149.515 97.0706 149.515 103.363C155.807 103.363 161.976 103.363 168.393 103.363Z" fill="#f4f4f4" />
  <path d="M178.175 146.79C178.175 151.276 178.237 155.824 178.175 160.31C178.112 164.235 176.368 165.98 172.443 166.042C163.409 166.104 154.374 166.104 145.402 166.042C141.477 166.042 139.733 164.235 139.733 160.31C139.67 151.276 139.67 142.304 139.733 133.27C139.733 129.344 141.477 127.6 145.465 127.6C154.499 127.538 163.533 127.538 172.505 127.6C176.43 127.6 178.175 129.344 178.237 133.332C178.237 137.756 178.175 142.242 178.175 146.79ZM149.452 156.135C155.932 156.135 162.162 156.135 168.331 156.135C168.331 149.656 168.331 143.425 168.331 137.257C161.913 137.257 155.745 137.257 149.452 137.257C149.452 143.612 149.452 149.78 149.452 156.135Z" fill="#f4f4f4" />
  <path d="M86.5868 267.038C82.1631 267.038 77.7395 267.038 73.3782 267.038C69.3907 266.976 67.5838 265.293 67.5838 261.431C67.5215 253.892 67.5215 246.415 67.5838 238.876C67.5838 235.138 69.3907 233.393 73.1913 233.393C82.2877 233.331 91.4465 233.331 100.543 233.393C104.281 233.393 106.026 235.2 106.026 239.001C106.088 246.54 106.088 254.016 106.026 261.555C106.026 265.293 104.219 267.038 100.418 267.038C95.8079 267.038 91.1973 267.038 86.5868 267.038ZM96.3063 243.113C89.8266 243.113 83.6585 243.113 77.3657 243.113C77.3657 247.91 77.3657 252.521 77.3657 257.194C83.7831 257.194 90.0135 257.194 96.3063 257.194C96.3063 252.396 96.3063 247.848 96.3063 243.113Z" fill="#f4f4f4" />
  <path d="M110.886 160.995C110.886 153.082 110.886 145.294 110.886 137.319C104.406 137.319 98.1759 137.319 91.6962 137.319C91.6962 140.31 91.6962 143.301 91.6962 146.478C88.4563 146.478 85.4034 146.478 82.039 146.478C82.039 141.494 81.8521 136.447 82.1013 131.4C82.2259 128.97 84.2196 127.537 86.7741 127.537C96.369 127.475 106.026 127.475 115.621 127.537C118.425 127.537 120.294 129.282 120.356 132.023C120.481 141.618 120.419 151.213 120.419 160.995C117.303 160.995 114.313 160.995 110.886 160.995Z" fill="#f4f4f4" />
  <path d="M168.455 209.406C168.455 202.802 168.455 196.634 168.455 190.154C163.782 190.154 159.172 190.154 154.312 190.154C154.312 186.852 154.312 183.923 154.312 180.434C155.184 180.434 156.119 180.434 157.053 180.434C162.287 180.434 167.458 180.372 172.692 180.434C176.306 180.497 178.175 182.241 178.175 185.73C178.237 195.076 178.237 204.359 178.175 213.705C178.175 216.945 176.306 218.814 173.19 218.876C166.96 218.939 160.792 218.876 154.374 218.876C154.374 215.699 154.374 212.646 154.374 209.406C158.923 209.406 163.533 209.406 168.455 209.406Z" fill="#f4f4f4" />
  <path d="M34.064 204.608C37.2415 204.608 40.1698 204.608 43.2851 204.608C43.2851 207.661 43.2851 210.652 43.2851 213.83C40.3567 213.83 37.3038 213.83 34.064 213.83C34.064 210.901 34.064 207.911 34.064 204.608Z" fill="#f4f4f4" />
</svg>
