<?xml version="1.0" encoding="utf-8"?>
<!-- Generator: Adobe Illustrator 27.9.0, SVG Export Plug-In . SVG Version: 6.00 Build 0)  -->
<svg version="1.1" id="Layer_1" xmlns="http://www.w3.org/2000/svg" xmlns:xlink="http://www.w3.org/1999/xlink" x="0px" y="0px"
	 viewBox="0 0 500 500" style="enable-background:new 0 0 500 500;" xml:space="preserve">
<style type="text/css">
	.st0{fill:#8A1538;}
</style>
<g>
	<path class="st0" d="M222.5,447.3c24.4,0,48.3,0,72.2,0c-1-3.2-2.3-6.3-2.8-9.5c-1.4-8.4,1.2-15.7,7.3-21.5c4.2-4,5.8-8.5,6.5-14.3
		c0.8-6.5,2.9-13.4,6.4-18.9c9.9-15.8,31.4-15.5,41.9-0.1c4.1,6,6.3,12.7,6.4,19.8c0.1,5.4,2,9.3,5.8,12.8
		c5.9,5.5,9.1,12.3,8.1,20.4c-0.4,3.6-1.8,7.2-2.8,11c14.4,0,29.1,0,44.1,0c0-110.2,0-220.4,0-330.9c-59.6,0-119.1,0-179.1,0
		c0,36.5,0,73.1,0,109.9c-4.8,0-9.2,0-13.9,0c0-36.6,0-73,0-110.2c-4.4,0-8.5,0-12.6,0c-5.7-0.1-8.2-2.5-8.2-8.1
		c-0.1-8.5-0.1-17,0-25.5c0-5,2.4-7.4,7.3-7.8c46.3-4.1,92.5-8.1,138.8-12.2c30.8-2.7,61.6-5.5,92.4-8.3c7.4-0.7,10.1,1.8,10.2,9.1
		c0,14.7,0,29.3,0,44c0,6.5-2.4,8.8-8.8,8.9c-3.7,0-7.5,0-11.5,0c0,110.4,0,220.6,0,331.3c8.9,0,17.9,0,27.1,0c0,4.7,0,9,0,13.6
		c-137.8,0-275.7,0-413.8,0c0-4.3,0-8.7,0-13.3c9,0,17.8,0,27,0c0-39.2,0-78.1,0-117.5c-5.8,0-11.6,0-17.5,0c-7.7,0-9.8-2.1-9.8-9.6
		c0-53.4,0-106.7,0-160.1c0-7.8,2-9.8,10-9.8c5.7,0,11.4,0,17.6,0c0-6.5,0-12.7,0-18.8c0-6.5,2.4-8.8,8.9-8.8
		c17.1,0,34.2-0.2,51.4,0.2c2.8,0.1,6.1,1.6,8.2,3.5c7.2,6.6,14.1,13.6,20.8,20.7c2.4,2.5,4.9,3.4,8.3,3.3
		c13.3-0.2,26.7-0.1,40.3-0.1c0,4.6,0,8.9,0,13.6c-50.3,0-100.7,0-151.4,0c0,50.9,0,101.2,0,152c13.5,0,27,0,40.8,0
		c0,4.7,0,9,0,13.9c-4.3,0-8.7,0-13.2,0c0,39.3,0,78,0,117.1c15.8,0,31.7,0,47.8,0c0-38.3,0-76.6,0-115.3c-3.4,1.5-6.7,2.9-10,4.2
		c-5.9,2.4-10.4-0.6-10.4-7c-0.1-10.8,0-21.6-0.1-32.4c0-3.8,1.5-6.3,4.9-7.8c36.3-15.9,72.6-31.8,109-47.5c2.1-0.9,5.2-0.8,7.4,0.1
		c36.1,15.6,72.1,31.5,108.2,47.2c3.8,1.6,5.4,4.3,5.3,8.4c-0.1,10.5,0,21-0.1,31.5c0,7-4.5,9.9-10.9,7.3c-3.1-1.3-6.2-2.7-9.8-4.3
		c0,11.2,0,21.8,0,32.7c-4.6,0-9,0-13.9,0c0-9.6-0.6-19.3,0.2-28.8c0.7-7.9-2.3-11.3-9.4-14.3c-23.4-9.6-46.4-20-69.5-30.2
		c-2.8-1.3-5.1-1.4-8.1-0.1c-25.2,11.2-50.5,22.2-75.8,33.2c-2,0.9-3.2,1.7-3.2,4.3c0.1,39,0.1,78,0.1,116.9c0,0.5,0.1,1.1,0.2,1.9
		c6.7,0,13.2,0,20.5,0c0-1.4,0-2.9,0-4.4c0-27.5,0-54.9,0-82.4c0-7.4,2.1-9.6,9.4-9.6c11.9,0,23.9,0,35.8,0c8,0,10,2,10,9.8
		c0,27.2,0,54.4,0,81.6C222.5,443.7,222.5,445.3,222.5,447.3z M436.3,68.4c-73.6,6.5-147,13-220.4,19.4c0,5,0,9.6,0,14.2
		c73.6,0,146.9,0,220.4,0C436.3,90.8,436.3,79.8,436.3,68.4z M125.8,319.2c1.6-0.6,2.8-0.9,4-1.4c31.2-13.6,62.4-27.2,93.5-41
		c4.3-1.9,8-2,12.3-0.1c23.9,10.6,47.8,21.1,71.8,31.5c8.4,3.7,16.8,7.3,25.7,11.2c0-6.3,0.1-12-0.1-17.7c0-0.9-1.2-2.2-2.2-2.6
		c-33-14.5-66-28.9-99.1-43.3c-1.2-0.5-3.1-0.5-4.4,0c-33.1,14.3-66.1,28.8-99,43.3c-1,0.5-2.2,1.9-2.3,3
		C125.7,307.6,125.8,313.2,125.8,319.2z M208.4,447.2c0-27.7,0-55.1,0-82.3c-9.3,0-18.2,0-27.1,0c0,27.6,0,54.9,0,82.3
		C190.4,447.2,199.2,447.2,208.4,447.2z M333,447.4c3.9,0,7.8,0,11.6,0c6.8,0,12-2.8,14.9-9c2.8-6-0.3-10.4-4.5-14.4
		c-5.7-5.3-8.2-11.8-8.5-19.6c-0.2-4.2-1.4-8.6-3.2-12.3c-4.4-8.8-15-9.3-20.1-0.9c-2.3,3.9-3.6,8.8-3.9,13.4
		c-0.4,7.6-2.8,14-8.2,19.3c-0.9,0.9-1.8,1.8-2.7,2.8c-4,4.5-4.2,10.2-0.3,14.9c3.1,3.7,7.1,5.9,12,5.9
		C324.4,447.5,328.7,447.4,333,447.4z M143.8,150.4c-4.5-4.4-8.1-8.2-11.9-11.5c-1.3-1.2-3.4-2.1-5.2-2.1
		c-12.8-0.2-25.6-0.1-38.4-0.1c-1.2,0-2.5,0.2-3.6,0.2c0,4.7,0,9.1,0,13.5C104.2,150.4,123.3,150.4,143.8,150.4z"/>
	<path class="st0" d="M208.5,178.1c0,4.8,0,9.1,0,13.7c-20.6,0-40.9,0-61.8,0c0,23.1,0,45.8,0,68.9c-4.8,0-9.2,0-13.9,0
		c0-22.7,0-45.4,0-68.4c-16.2,0-32,0-48.2,0c0,31.9,0,63.8,0,96.1c4.3,0,8.6,0,13.2,0c0,4.7,0,9,0,13.8c-7.1,0-14.4,0.4-21.7-0.1
		c-3.9-0.3-5.6-3.6-5.6-7.5c0-6.5,0-12.9,0-19.4c0-29.2,0-58.4,0-87.6c0-7.4,2.1-9.5,9.5-9.5c41.4,0,82.8,0,124.2,0
		C205.6,178.1,206.8,178.1,208.5,178.1z"/>
	<path class="st0" d="M312.3,164.1c0,6.6,0.1,13.2,0,19.8c-0.1,5.4-2.6,8-7.9,8c-13.1,0.1-26.2,0.1-39.3,0c-5.4,0-8-2.6-8-7.9
		c-0.1-13.1-0.1-26.2,0-39.3c0-5.4,2.6-8,7.9-8c13.1-0.1,26.2-0.1,39.3,0c5.4,0,7.9,2.6,8,7.9C312.3,151.1,312.3,157.6,312.3,164.1z
		 M298.3,150.8c-9.3,0-18.2,0-27.1,0c0,9.2,0,18.2,0,27.1c9.2,0,18,0,27.1,0C298.3,168.9,298.3,160,298.3,150.8z"/>
	<path class="st0" d="M395.1,164.5c0,6.5,0.1,12.9,0,19.4c-0.1,5.4-2.6,8-7.9,8c-13.1,0.1-26.2,0.1-39.3,0c-5.4,0-8-2.6-8-7.9
		c-0.1-13.1-0.1-26.2,0-39.3c0-5.4,2.6-8,7.9-8c13.1-0.1,26.2-0.1,39.3,0c5.6,0,8,2.6,8.1,8.3C395.2,151.5,395.1,158,395.1,164.5z
		 M381,178c0-9.3,0-18.3,0-27.1c-9.3,0-18.2,0-27.1,0c0,9.2,0,18.1,0,27.1C363,178,371.9,178,381,178z"/>
	<path class="st0" d="M395.1,240.3c0,6.5,0,12.9,0,19.4c-0.1,5.6-2.6,8.2-8.2,8.2c-12.9,0.1-25.9,0.1-38.8,0c-5.6,0-8.2-2.5-8.2-8.2
		c-0.1-12.9-0.1-25.9,0-38.8c0-5.6,2.5-8.2,8.2-8.2c12.9-0.1,25.9-0.1,38.8,0c5.6,0,8.1,2.5,8.2,8.2
		C395.2,227.3,395.1,233.8,395.1,240.3z M353.9,253.8c9.3,0,18.3,0,27.1,0c0-9.3,0-18.2,0-27.1c-9.2,0-18.1,0-27.1,0
		C353.9,235.8,353.9,244.7,353.9,253.8z"/>
	<path class="st0" d="M263.6,412.9c-6.3,0-12.7,0-19,0c-5.7,0-8.3-2.5-8.3-8c-0.1-10.8-0.1-21.6,0-32.4c0-5.3,2.6-7.9,8-7.9
		c13.1-0.1,26.2-0.1,39.3,0c5.3,0,7.9,2.6,7.9,8c0.1,10.8,0.1,21.6,0,32.4c0,5.3-2.6,7.9-8,7.9C276.9,413,270.3,412.9,263.6,412.9z
		 M277.6,378.6c-9.3,0-18.2,0-27.2,0c0,6.9,0,13.5,0,20.2c9.2,0,18.2,0,27.2,0C277.6,392,277.6,385.4,277.6,378.6z"/>
	<path class="st0" d="M298.5,260.7c0-11.3,0-22.5,0-34c-9.3,0-18.2,0-27.5,0c0,4.3,0,8.5,0,13.2c-4.7,0-9,0-13.9,0
		c0-7.2-0.3-14.4,0.1-21.7c0.2-3.5,3.1-5.5,6.7-5.5c13.8-0.1,27.6-0.1,41.4,0c4,0,6.7,2.5,6.8,6.4c0.2,13.8,0.1,27.5,0.1,41.6
		C307.7,260.7,303.4,260.7,298.5,260.7z"/>
	<path class="st0" d="M381.1,330.2c0-9.5,0-18.3,0-27.7c-6.7,0-13.3,0-20.3,0c0-4.7,0-9,0-13.9c1.2,0,2.6,0,4,0c7.5,0,15-0.1,22.4,0
		c5.1,0.1,7.8,2.6,7.9,7.6c0.1,13.4,0.1,26.7,0,40.1c0,4.6-2.6,7.4-7.2,7.4c-8.9,0.1-17.8,0-27,0c0-4.6,0-8.9,0-13.6
		C367.5,330.2,374,330.2,381.1,330.2z"/>
	<path class="st0" d="M188.3,323.3c4.5,0,8.8,0,13.3,0c0,4.4,0,8.7,0,13.3c-4.2,0-8.6,0-13.3,0C188.3,332.4,188.3,328,188.3,323.3z"
		/>
	<path class="st0" d="M111.8,351c0,4.5,0,8.8,0,13.3c-4.4,0-8.8,0-13.4,0c0-4.4,0-8.7,0-13.3C102.8,351,107.1,351,111.8,351z"/>
</g>
</svg>
