<?xml version="1.0" encoding="utf-8"?>
<!-- Generator: Adobe Illustrator 27.9.0, SVG Export Plug-In . SVG Version: 6.00 Build 0)  -->
<svg version="1.1" id="Layer_1" xmlns="http://www.w3.org/2000/svg" xmlns:xlink="http://www.w3.org/1999/xlink" x="0px" y="0px"
	 viewBox="0 0 500 500" style="enable-background:new 0 0 500 500;" xml:space="preserve">
<style type="text/css">
	.st0{fill:#8A1538;}
</style>
<g>
	<path class="st0" d="M452.44,436.15c-0.87,1.55-1.67,3.14-2.61,4.64c-2.71,4.31-6.6,5.52-11.28,3.58c-0.27-0.11-0.55-0.21-1.09-0.4
		c0,1.03,0,1.86,0,2.69c0,11.87,0.01,23.75,0.01,35.62c0,4.96-2.31,7.26-7.31,7.26c-21.72,0.01-43.43,0.02-65.15,0.02
		c-5.41,0-7.65-2.25-7.66-7.69c-0.01-11.64-0.01-23.28-0.01-34.92c0-0.85,0-1.71,0-2.72c-0.4,0.04-0.69,0.01-0.93,0.11
		c-4.03,1.58-7.6,1.22-9.9-1.55c-3.92-4.73-5.12-7.82-3.15-12.33c0.51-1.17,1.5-2.18,2.45-3.09c3.31-3.2,6.77-6.26,10.02-9.53
		c0.81-0.82,1.4-2.22,1.44-3.37c0.16-4.6,0.07-9.22,0.07-13.82c0-7.38,1.68-9.43,8.99-10.7c-0.55-0.99-1.07-1.92-1.53-2.76
		c-3.98,0.9-7.8,1.97-11.69,2.59c-10.1,1.62-19.91,0.41-29.33-3.62c-1.56-0.67-2.46-0.41-3.61,0.76
		c-11.89,11.98-23.87,23.85-35.72,35.86c-2.36,2.4-4.9,3.99-8.27,4.32c-1.86,0.18-3.69,0.6-5.54,0.94c-4,0.73-4,0.73-4.67,4.75
		c-0.34,2-0.67,4-1.01,6c-0.66,3.81-2.39,5.6-6.19,6.3c-2.76,0.51-5.53,1.02-8.31,1.41c-1.45,0.2-2.16,0.79-2.36,2.31
		c-0.39,3.02-0.97,6.01-1.47,9.01c-0.91,5.39-5.91,9.71-11.39,9.84c-5.15,0.12-10.31,0.28-15.46,0.34c-4.82,0.06-7.37-2.53-7.3-7.39
		c0.08-5.55,0.07-11.1,0.46-16.63c0.13-1.78,0.98-3.88,2.2-5.15c6.59-6.88,13.4-13.56,20.15-20.28c2-1.99,4.01-2.13,5.52-0.53
		c1.41,1.5,1.21,3.47-0.68,5.37c-6.34,6.37-12.74,12.67-19.01,19.1c-0.82,0.84-1.42,2.25-1.46,3.42c-0.16,4.91-0.07,9.83-0.07,15.01
		c0.55,0.04,1.21,0.12,1.87,0.12c4.14-0.04,8.28-0.1,12.42-0.17c3.57-0.06,5.55-1.78,6.15-5.31c0.51-3,1.01-6,1.51-9
		c0.69-4.11,2.55-5.95,6.71-6.64c2.62-0.44,5.22-1.01,7.85-1.31c1.51-0.18,2.15-0.73,2.33-2.27c0.34-2.78,0.92-5.54,1.38-8.31
		c0.56-3.38,2.41-5.51,5.84-6.13c3.07-0.56,6.13-1.21,9.22-1.59c1.9-0.24,3.3-1.01,4.64-2.36c11.28-11.36,22.62-22.67,33.97-33.97
		c0.6-0.6,1.4-1.01,2.45-1.76c-7.3-4.7-12.87-10.19-17.3-17.15c-0.76,0.7-1.37,1.23-1.95,1.8c-13.04,13.03-26.07,26.07-39.11,39.1
		c-0.61,0.61-1.21,1.23-1.88,1.75c-1.52,1.18-3.12,1.1-4.45-0.22c-1.33-1.32-1.38-2.93-0.29-4.46c0.49-0.69,1.14-1.28,1.74-1.89
		c13.59-13.59,27.16-27.19,40.8-40.73c1.25-1.24,1.43-2.18,0.78-3.81c-11.44-28.39,1.2-59.37,29.2-71.69
		c25.9-11.4,57.86,0.3,70.35,25.66c5.65,11.47,7.35,23.39,4.9,35.95c-0.22,1.13-0.03,2.53,0.46,3.57
		c5.51,11.74,8.79,23.98,8.72,37.04c-0.01,0.92,0.63,2.06,1.33,2.73c5.35,5.15,10.78,10.2,16.18,15.29c0.62,0.59,1.57,1.2,1.66,1.89
		c0.16,1.33,0.21,2.96-0.42,4.04c-0.8,1.37-2.48,1.56-3.95,0.66c-0.79-0.48-1.49-1.12-2.17-1.76c-6.9-6.46-13.78-12.94-20.68-19.4
		c-2.33-2.18-2.57-2.17-4.96,0.07c-3.46,3.24-6.92,6.5-10.58,9.93c1.12,0.68,2.02,1.23,2.56,1.55c2.12-1.77,3.85-3.75,6.02-4.9
		c5.19-2.75,11.47-0.5,14.15,4.72c2.67,5.2,0.79,11.54-4.28,14.41c-5.08,2.87-11.73,1.35-14.48-3.76c-1.25-2.32-2.78-3.69-5.1-4.64
		c-1.41-0.58-2.63-1.62-3.97-2.47c-0.69,0.6-1.19,1.32-1.87,1.57c-1.24,0.44-2.88,1.19-3.8,0.73c-1.04-0.52-1.84-2.17-2.1-3.46
		c-0.35-1.73-0.14-3.58-0.07-5.37c0.05-1.3-0.44-1.76-1.75-1.83c-5.37-0.31-5.37-0.35-5.36,4.98c0,4.84-0.04,9.69,0.03,14.53
		c0.03,1.94-0.64,3.43-2.06,4.74c-3.97,3.65-7.88,7.36-11.78,11.08c-1.44,1.37-0.34,5.49,1.61,5.89c0.54,0.11,1.34-0.32,1.83-0.73
		c1.32-1.1,2.54-2.31,3.78-3.5c1.24-1.18,2.53-2.15,4.37-1.37c1.9,0.8,2.24,2.4,2.24,4.23c-0.01,14.14,0,28.28,0,42.42
		c0,0.99,0,1.99,0,3.11c6.38,0,12.52,0,19.05,0c0-0.92,0-1.82,0-2.71c0-9.76-0.01-19.53,0.01-29.29c0.01-6.14,2.74-8.87,8.84-8.9
		c4.45-0.02,8.91-0.04,13.36,0c5.66,0.05,8.49,2.9,8.5,8.53c0.02,10.69,0,21.39,0,32.28c5.52,0,10.92,0,16.55,0
		c0-1.01,0-1.92,0-2.84c-0.01-13.75-0.02-27.5-0.04-41.24c0-0.7-0.22-1.52,0.06-2.09c0.6-1.24,1.22-2.88,2.29-3.38
		c0.93-0.44,2.69,0.16,3.73,0.84c1.61,1.06,2.92,2.57,4.33,3.93c1.21,1.17,2.12,0.92,3.04-0.4c2.01-2.92,2-3.32-0.67-5.83
		c-1.76-1.66-3.56-3.28-5.27-5c-1.61-1.62-1.72-3.6-0.43-5.02c1.34-1.47,3.28-1.55,5.01,0c2.56,2.29,5.1,4.61,7.47,7.1
		c1.02,1.08,1.57,2.6,2.34,3.92C452.44,433.65,452.44,434.9,452.44,436.15z M355.87,337.78c-0.52-0.23-0.99-0.46-1.48-0.66
		c-8.89-3.67-14.04-13.28-11.9-22.23c2.38-9.9,10.86-16.06,20.91-15.19c9.8,0.85,17.15,8.77,17.57,18.94
		c0.38,9.18-6.77,17.99-15.96,19.43c-1.61,0.25-2.47,0.82-2.53,2.36c-0.2,5.28-0.76,10.58-0.37,15.82c0.54,7.4,2.83,14.46,5.79,21.3
		c19.5-9.71,31.92-36.05,21.24-60.78c-11.26-26.07-40.91-36.62-66.26-23.94c-23.51,11.76-32.95,42.29-20.38,65.33
		c13.67,25.05,42.48,29.72,59,22.2C356.2,366.65,352.77,352.69,355.87,337.78z M407.15,482.51c0-11.04,0.02-21.87-0.08-32.7
		c0-0.48-1.17-1.33-1.81-1.35c-4.21-0.12-8.43,0.03-12.64-0.1c-1.98-0.06-2.51,0.61-2.5,2.54c0.08,9.83,0.04,19.66,0.04,29.5
		c0,0.68,0.08,1.35,0.13,2.12C395.9,482.51,401.34,482.51,407.15,482.51z M379.18,395.97c3.58-3.36,7.13-6.52,10.48-9.88
		c3.12-3.14,6.52-4.99,11.27-3.32c-0.49-8.67-2.51-16.64-5.79-24.81c-5.41,11.57-13.49,20.07-24.3,26.18
		c2.08,3.14,3.94,6.02,5.87,8.84C377.4,394,378.27,394.88,379.18,395.97z M372.92,324.15c2.48-5.82,0.92-11.83-4.04-15.35
		c-4.25-3.02-8.86-3.34-13.43-0.79c-4.56,2.55-6.82,6.62-6.45,11.81c0.36,5.18,3.13,8.87,7.98,10.84c0.61,0.25,1.87,0.15,2.16-0.26
		C362.47,325.61,367.02,323.53,372.92,324.15z M395.55,410.23c3.01,1.48,5.43,0.06,5.66-3.31
		C399.33,408.02,397.44,409.13,395.55,410.23z"/>
</g>
<path class="st0" d="M100.26,318.41c-5.45-0.01-10.9-0.01-16.35-0.02c-3.51,0-7.02,0-12.24,0c0.78-17.36,0.61-33.76,2.57-49.9
	c1.34-11.08,9.91-18.65,19.74-22.93c12.28-5.35,24.82-10.13,37.4-14.79v-9.27c-9.22,4.36-19.44,7.34-30.58,10.59
	c0-14.23,0.03-27.26-0.01-40.29c-0.11-34.06-0.13-68.13-0.46-102.19c-0.08-8.64,3.08-15.28,10.34-19.51
	c18.06-10.51,36.31-20.69,54.51-30.93c1.17-0.66,2.63-0.78,5.99-1.72c-4.72,10.15-20.13,14.27-9.26,28.62
	c-12.17-1.95-21.24-9.24-30.79-3.32c-0.06,0.91-0.11,1.82-0.17,2.72c2.83,0.2,5.67,0.41,9.34,0.67c0.29,2.02,0.88,4.24,0.88,6.46
	c0.02,8.22,0.03,16.44-0.13,24.66l4.74-2.41c0.14-9.24,0.73-18.61,1.57-28.14c6,2.94,11.68,4.84,16.33,8.17
	c2.93,2.1,5.84,4.24,8.72,6.41l9.95-5.06c-5.35-5.48-10.44-10.69-15.24-15.62c14.79,0,30.45,0,45.92,0l13.55-6.9
	c-22.55-6.54-33.9-6.91-58.87,0.07c10.15-10.74,20.03-21.2,30.27-32.04c9.49,10.14,19.23,20.55,29.49,31.52l6.91-3.52
	c-3.85-4.91-10.14-9.21-13.44-15.62c4.93,2.14,7.5,3.18,10,4.36c4.41,2.08,29.61,11.84,34,13.95l-12.4-9.56
	c-12.83-6.01-24.81-14.84-37.5-21.12c-12.92-6.39-24.98-6.34-37.43,0.78c-22.83,13.05-45.77,25.92-68.74,38.71
	c-11.21,6.24-16.82,15.12-16.64,28.34c0.61,46.03,0.61,92.07,1.18,138.1c0.08,6.11-1.5,9.78-6.96,12.93
	c-12.92,7.46-21.23,18.68-21.85,33.9c-0.67,16.7-0.15,33.45-0.15,50.79c1.67,0.42,2.51,0.81,3.35,0.81
	c10.82,0.03,21.64,0.05,32.46,0.08V318.41z"/>
<path class="st0" d="M128.96,248.3"/>
<path class="st0" d="M281.83,334.3c-13.33-0.02-26.65-0.03-39.98-0.05c-34.69-0.05-69.37-0.08-104.06-0.11c-3.26,0-6.51,0-11.36,0
	c0.73-16.11,0.57-31.32,2.38-46.3c1.24-10.28,9.2-17.3,18.32-21.27c15.73-6.86,31.91-12.7,48.03-18.64
	c1.98-0.73,4.87,0.19,7.08,1.04c5.95,2.27,12.24,4.16,17.55,7.54c15.65,9.97,30.97,9.55,46.4,0.02c13.44-8.3,26.46-8.36,40.39-0.34
	c9.3,5.35,20.06,8.08,29.66,12.99c3.21,1.64,6.03,3.54,8.49,5.66c2.41-1.22,4.85-2.38,7.33-3.48c-1.76-1.67-3.71-3.24-5.89-4.68
	c-4.83-3.2-6.24-6.8-6.26-12.3c-0.11-34.67-0.41-69.35-0.93-104.02c-0.2-13.3-0.71-26.63-1.88-39.87
	c-0.74-8.48-3.87-16.47-12.26-20.52c-21.74-10.48-43.75-20.39-65.37-31.09c-11.99-5.93-23.18-5.88-34.74,0.72
	c-21.19,12.11-42.47,24.05-63.79,35.92c-10.4,5.79-15.6,14.03-15.44,26.3c0.57,42.71,0.57,85.44,1.1,128.15
	c0.07,5.67-1.4,9.08-6.46,12c-11.99,6.92-19.7,17.33-20.27,31.46c-0.62,15.5-0.14,31.04-0.14,47.13c1.55,0.39,2.33,0.75,3.11,0.75
	c51.65,0.14,103.29,0.26,154.94,0.41C279.06,339.21,280.41,336.73,281.83,334.3z M244.9,256.93c-1.17,0.45-2.86,0.5-3.98,0
	c-12.3-5.47-24.54-11.08-36.8-16.65c0.06-1.01,0.13-2.01,0.19-3.02c2.61,0,5.45-0.68,7.79,0.12c8.61,2.97,16.95,6.76,25.62,9.55
	c3.37,1.08,7.57,1.17,10.98,0.22c8.24-2.29,16.17-5.67,24.36-8.15c2.57-0.78,5.58-0.12,8.39-0.12c0.12,1.17,0.23,2.34,0.35,3.51
	C269.5,247.25,257.22,252.16,244.9,256.93z M239.17,129.61c3.43,2.98,4.56,2.46,7.93-0.14c10.69-8.25,21.9-15.85,33.13-23.37
	c2.81-1.88,6.45-2.53,10.67-4.1c0,19.52,1.17,37.84-0.44,55.92c-0.96,10.87-5.59,21.62-9.74,31.96
	c-6.99,17.43-21.2,26.72-38.55,26.34c-18.68-0.41-30.8-10.79-37.19-27.17c-10.94-28.03-11.07-57.39-8.33-88.46
	c5.57,2.73,10.84,4.49,15.16,7.58C221.24,114.92,230.43,122.03,239.17,129.61z M215,94.94c18.13,0,37.66,0,56.33,0
	c-8.79,9.95-17.8,20.16-26.75,30.3C233.73,114.12,223.86,104.02,215,94.94z M270.86,229.27c-0.14,1.51-2.46,3.4-4.19,4.1
	c-16.23,6.51-32.45,5.26-48.4-0.97c-1.94-0.76-3.94-3.67-4.25-5.82c-0.65-4.57-0.2-9.3-0.2-16.22
	c19.56,13.14,37.82,13.21,57.24,1.11C271.06,218.46,271.37,223.9,270.86,229.27z M274.23,74.41c14.04,6.62,27.91,13.64,42.17,19.76
	c8.14,3.5,12.66,9.16,13.04,17.54c1.05,23.26,1.81,46.54,2.3,69.82c0.49,23.3,0.53,46.61,0.73,69.91c0.02,1.85-0.21,3.69-0.37,6.24
	c-16.2-5.52-32.06-10-43.96-22.72c-2.76-2.95-7.14-4.37-11.95-7.19c-0.61-9.77-1.73-20.96,6.23-31.31
	c3.7-4.81,4.61-11.73,6.96-17.62c8.62-21.6,6.16-44.26,6.48-66.65c0.05-3.29,0.01-6.58,0.01-10.33c3.5-0.31,6.32-0.55,9.36-0.82
	c-3.15-5.56-3.15-5.56-27.49-0.31c9.12-14.78-6.91-18.96-12.77-30.36C269.53,72.35,271.91,73.31,274.23,74.41z M243.64,58.88
	c9.07,9.7,18.38,19.64,28.22,30.16c-22.06-6.54-32.53-7.08-56.31-0.43C224.97,78.64,234.13,68.94,243.64,58.88z M162.62,103.75
	c16.76-9.75,33.69-19.19,50.59-28.7c1.08-0.61,2.44-0.72,5.56-1.59c-4.38,9.41-18.68,13.24-8.59,26.56
	c-11.29-1.81-19.71-8.58-28.57-3.08c-0.05,0.84-0.11,1.68-0.16,2.53c2.63,0.19,5.26,0.38,8.66,0.62c0.27,1.87,0.81,3.93,0.82,5.99
	c0.02,9.15,0.05,18.31-0.22,27.45c-0.74,24.99,4.72,48.22,16.7,70.42c3.27,6.05,2.04,15.23,0.82,22.64
	c-0.47,2.83-7.1,4.27-10.23,7.1c-12.13,10.97-27.15,15.31-44.54,20.38c0-13.2,0.03-25.29-0.01-37.39
	c-0.1-31.61-0.12-63.22-0.43-94.82C152.95,113.83,155.88,107.67,162.62,103.75z"/>
</svg>
