<?xml version="1.0" encoding="utf-8"?>
<!-- Generator: Adobe Illustrator 27.9.0, SVG Export Plug-In . SVG Version: 6.00 Build 0)  -->
<svg version="1.1" id="Layer_1" xmlns="http://www.w3.org/2000/svg" xmlns:xlink="http://www.w3.org/1999/xlink" x="0px" y="0px"
	 viewBox="0 0 500 500" style="enable-background:new 0 0 500 500;" xml:space="preserve">
<style type="text/css">
	.st0{fill:#8A1538;}
</style>
<g>
	<path class="st0" d="M452.4,436.1c-0.9,1.5-1.7,3.1-2.6,4.6c-2.7,4.3-6.6,5.5-11.3,3.6c-0.3-0.1-0.5-0.2-1.1-0.4c0,1,0,1.9,0,2.7
		c0,11.9,0,23.8,0,35.6c0,5-2.3,7.3-7.3,7.3c-21.7,0-43.4,0-65.1,0c-5.4,0-7.6-2.2-7.7-7.7c0-11.6,0-23.3,0-34.9c0-0.9,0-1.7,0-2.7
		c-0.4,0-0.7,0-0.9,0.1c-4,1.6-7.6,1.2-9.9-1.5c-3.9-4.7-5.1-7.8-3.1-12.3c0.5-1.2,1.5-2.2,2.5-3.1c3.3-3.2,6.8-6.3,10-9.5
		c0.8-0.8,1.4-2.2,1.4-3.4c0.2-4.6,0.1-9.2,0.1-13.8c0-7.4,1.7-9.4,9-10.7c-0.5-1-1.1-1.9-1.5-2.8c-4,0.9-7.8,2-11.7,2.6
		c-10.1,1.6-19.9,0.4-29.3-3.6c-1.6-0.7-2.5-0.4-3.6,0.8c-11.9,12-23.9,23.9-35.7,35.9c-2.4,2.4-4.9,4-8.3,4.3
		c-1.9,0.2-3.7,0.6-5.5,0.9c-4,0.7-4,0.7-4.7,4.8c-0.3,2-0.7,4-1,6c-0.7,3.8-2.4,5.6-6.2,6.3c-2.8,0.5-5.5,1-8.3,1.4
		c-1.4,0.2-2.2,0.8-2.4,2.3c-0.4,3-1,6-1.5,9c-0.9,5.4-5.9,9.7-11.4,9.8c-5.1,0.1-10.3,0.3-15.5,0.3c-4.8,0.1-7.4-2.5-7.3-7.4
		c0.1-5.5,0.1-11.1,0.5-16.6c0.1-1.8,1-3.9,2.2-5.1c6.6-6.9,13.4-13.6,20.1-20.3c2-2,4-2.1,5.5-0.5c1.4,1.5,1.2,3.5-0.7,5.4
		c-6.3,6.4-12.7,12.7-19,19.1c-0.8,0.8-1.4,2.2-1.5,3.4c-0.2,4.9-0.1,9.8-0.1,15c0.6,0,1.2,0.1,1.9,0.1c4.1,0,8.3-0.1,12.4-0.2
		c3.6-0.1,5.6-1.8,6.1-5.3c0.5-3,1-6,1.5-9c0.7-4.1,2.6-6,6.7-6.6c2.6-0.4,5.2-1,7.9-1.3c1.5-0.2,2.1-0.7,2.3-2.3
		c0.3-2.8,0.9-5.5,1.4-8.3c0.6-3.4,2.4-5.5,5.8-6.1c3.1-0.6,6.1-1.2,9.2-1.6c1.9-0.2,3.3-1,4.6-2.4c11.3-11.4,22.6-22.7,34-34
		c0.6-0.6,1.4-1,2.5-1.8c-7.3-4.7-12.9-10.2-17.3-17.1c-0.8,0.7-1.4,1.2-2,1.8c-13,13-26.1,26.1-39.1,39.1c-0.6,0.6-1.2,1.2-1.9,1.8
		c-1.5,1.2-3.1,1.1-4.4-0.2s-1.4-2.9-0.3-4.5c0.5-0.7,1.1-1.3,1.7-1.9c13.6-13.6,27.2-27.2,40.8-40.7c1.2-1.2,1.4-2.2,0.8-3.8
		c-11.4-28.4,1.2-59.4,29.2-71.7c25.9-11.4,57.9,0.3,70.4,25.7c5.6,11.5,7.4,23.4,4.9,36c-0.2,1.1,0,2.5,0.5,3.6
		c5.5,11.7,8.8,24,8.7,37c0,0.9,0.6,2.1,1.3,2.7c5.4,5.1,10.8,10.2,16.2,15.3c0.6,0.6,1.6,1.2,1.7,1.9c0.2,1.3,0.2,3-0.4,4
		c-0.8,1.4-2.5,1.6-4,0.7c-0.8-0.5-1.5-1.1-2.2-1.8c-6.9-6.5-13.8-12.9-20.7-19.4c-2.3-2.2-2.6-2.2-5,0.1c-3.5,3.2-6.9,6.5-10.6,9.9
		c1.1,0.7,2,1.2,2.6,1.5c2.1-1.8,3.9-3.8,6-4.9c5.2-2.8,11.5-0.5,14.1,4.7c2.7,5.2,0.8,11.5-4.3,14.4c-5.1,2.9-11.7,1.4-14.5-3.8
		c-1.2-2.3-2.8-3.7-5.1-4.6c-1.4-0.6-2.6-1.6-4-2.5c-0.7,0.6-1.2,1.3-1.9,1.6c-1.2,0.4-2.9,1.2-3.8,0.7c-1-0.5-1.8-2.2-2.1-3.5
		c-0.4-1.7-0.1-3.6-0.1-5.4c0-1.3-0.4-1.8-1.8-1.8c-5.4-0.3-5.4-0.4-5.4,5c0,4.8,0,9.7,0,14.5c0,1.9-0.6,3.4-2.1,4.7
		c-4,3.6-7.9,7.4-11.8,11.1c-1.4,1.4-0.3,5.5,1.6,5.9c0.5,0.1,1.3-0.3,1.8-0.7c1.3-1.1,2.5-2.3,3.8-3.5c1.2-1.2,2.5-2.1,4.4-1.4
		c1.9,0.8,2.2,2.4,2.2,4.2c0,14.1,0,28.3,0,42.4c0,1,0,2,0,3.1c6.4,0,12.5,0,19,0c0-0.9,0-1.8,0-2.7c0-9.8,0-19.5,0-29.3
		c0-6.1,2.7-8.9,8.8-8.9c4.5,0,8.9,0,13.4,0c5.7,0,8.5,2.9,8.5,8.5c0,10.7,0,21.4,0,32.3c5.5,0,10.9,0,16.5,0c0-1,0-1.9,0-2.8
		c0-13.8,0-27.5,0-41.2c0-0.7-0.2-1.5,0.1-2.1c0.6-1.2,1.2-2.9,2.3-3.4c0.9-0.4,2.7,0.2,3.7,0.8c1.6,1.1,2.9,2.6,4.3,3.9
		c1.2,1.2,2.1,0.9,3-0.4c2-2.9,2-3.3-0.7-5.8c-1.8-1.7-3.6-3.3-5.3-5c-1.6-1.6-1.7-3.6-0.4-5c1.3-1.5,3.3-1.5,5,0
		c2.6,2.3,5.1,4.6,7.5,7.1c1,1.1,1.6,2.6,2.3,3.9C452.4,433.6,452.4,434.9,452.4,436.1z M355.9,337.8c-0.5-0.2-1-0.5-1.5-0.7
		c-8.9-3.7-14-13.3-11.9-22.2c2.4-9.9,10.9-16.1,20.9-15.2c9.8,0.9,17.1,8.8,17.6,18.9c0.4,9.2-6.8,18-16,19.4
		c-1.6,0.2-2.5,0.8-2.5,2.4c-0.2,5.3-0.8,10.6-0.4,15.8c0.5,7.4,2.8,14.5,5.8,21.3c19.5-9.7,31.9-36,21.2-60.8
		c-11.3-26.1-40.9-36.6-66.3-23.9c-23.5,11.8-33,42.3-20.4,65.3c13.7,25,42.5,29.7,59,22.2C356.2,366.6,352.8,352.7,355.9,337.8z
		 M407.1,482.5c0-11,0-21.9-0.1-32.7c0-0.5-1.2-1.3-1.8-1.4c-4.2-0.1-8.4,0-12.6-0.1c-2-0.1-2.5,0.6-2.5,2.5c0.1,9.8,0,19.7,0,29.5
		c0,0.7,0.1,1.4,0.1,2.1C395.9,482.5,401.3,482.5,407.1,482.5z M379.2,396c3.6-3.4,7.1-6.5,10.5-9.9c3.1-3.1,6.5-5,11.3-3.3
		c-0.5-8.7-2.5-16.6-5.8-24.8c-5.4,11.6-13.5,20.1-24.3,26.2c2.1,3.1,3.9,6,5.9,8.8C377.4,394,378.3,394.9,379.2,396z M372.9,324.1
		c2.5-5.8,0.9-11.8-4-15.4c-4.2-3-8.9-3.3-13.4-0.8c-4.6,2.5-6.8,6.6-6.5,11.8c0.4,5.2,3.1,8.9,8,10.8c0.6,0.2,1.9,0.1,2.2-0.3
		C362.5,325.6,367,323.5,372.9,324.1z M395.5,410.2c3,1.5,5.4,0.1,5.7-3.3C399.3,408,397.4,409.1,395.5,410.2z"/>
</g>
<path class="st0" d="M129,248.3"/>
<g>
	<path class="st0" d="M21.7,217.2c2.9-11.6,10.8-17.5,22-20.5c10.2-2.8,20.1-6.6,30.2-9.9c7.6-2.5,11.6-1.4,16.9,4.7
		c12.5,14.5,24.9,29,37.4,43.5c0.7,0.8,1.5,1.6,2.4,2.7c3.4-3.9,6.7-7.7,10.3-11.9c6.2,5.3,12.3,10.5,18.7,16.1
		c-7.2,8.2-13.9,16.5-21.3,24c-4.8,5-12.6,3.9-17.6-1.8c-11.6-13.3-23-26.7-34.5-40c-2.9-3.4-5.8-6.9-8.9-10.2
		c-0.8-0.8-2.6-1.4-3.7-1c-8.3,2.6-16.6,5.3-24.9,8.2c-1,0.4-2.4,1.9-2.4,3c-0.1,30.6-0.1,61.2,0,91.9c0,0.2,0.1,0.5,0.3,1.1
		c18.2,0,36.4,0,54.9,0c0,8.4,0,16.3,0,24.7c-1.3,0-2.7,0-4,0c-16.5,0-33,0-49.5,0c-14.1,0-21.7-5.5-26.1-19
		c-0.1-0.2-0.3-0.4-0.5-0.5C21.7,287.2,21.7,252.2,21.7,217.2z"/>
	<path class="st0" d="M357.8,83.1c0,40.4-32.7,73.1-73.1,73.1c-40.4,0-73.2-32.8-73.2-73.1c0-40.2,32.8-72.8,73-72.9
		C325,10.1,357.8,42.6,357.8,83.1z M345,83c-0.1-33.5-27-60.1-60.7-59.9c-33.3,0.1-60,26.9-60,60.2c0,33.3,27.3,60.2,60.7,60.1
		C318.3,143.2,345.1,116.2,345,83z"/>
	<path class="st0" d="M195,120.5c0,35.5-28.9,64.3-64.5,64.3c-35.6,0-64.6-29.1-64.5-64.7c0.1-35.4,29.3-64.2,64.7-64.1
		C166.3,56.2,195,85,195,120.5z M182,120.6c0.1-28.5-22.8-51.5-51.3-51.6C102.2,69,79,91.9,79,120.3c-0.1,28.4,22.9,51.5,51.4,51.5
		C158.9,171.9,181.9,149.1,182,120.6z"/>
	<path class="st0" d="M147.3,317.3c0,8.1,0,16,0,24.1c-8,0-15.9,0-24,0c0-8,0-16,0-24.1C131.4,317.3,139.2,317.3,147.3,317.3z"/>
</g>
<path class="st0" d="M272.8,316.9c-26.6,0-53.3,0-80,0c-0.1-1.3-0.2-2.5-0.2-3.7c0-34.9,0-69.7-0.1-104.6c0-2.9,0.9-4.1,3.7-4.8
	c11.5-2.8,23-5.6,34.5-8.7c3.1-0.8,4.1,0.1,5.3,2.7c12.8,27.4,25.7,54.7,38.5,82c2.2,4.6,5.2,8,10.4,8.6c6,0.7,10.5-2.1,13.5-8.4
	c8.8-18.8,17.6-37.5,26.3-56.3c4.1-8.8,8.3-17.6,12.3-26.5c1-2.2,2-3,4.5-2.3c12.2,3.2,24.4,6.3,36.6,9.3c2,0.5,2.9,1.1,2.9,3.4
	c0,20.8-0.1,41.7-0.1,62.5c9,2.9,17.3,7.2,24.7,12.6c0-27.6,0-55.2,0-82.7c-0.2-0.3-0.5-0.6-0.6-0.9c-2.5-10-9-15.8-18.8-18.2
	c-16.5-4.1-32.9-8.3-49.4-12.4c-8.9-2.2-13.5,0-17.4,8.4c-10.3,21.9-20.5,43.9-30.8,65.8c-0.6,1.3-1.3,2.6-2.2,4.3
	c-0.9-1.7-1.5-2.9-2.1-4.1c-10.4-22.1-20.8-44.3-31.2-66.4c-3.8-8-8.5-10.2-16.9-8.1c-16.2,4.1-32.4,8.2-48.6,12.3
	c-12.8,3.3-19.6,12-19.6,25.2c0,40.4,0,80.8,0,121.1c0,10,4.6,14.6,14.7,14.6c27.8,0,55.5,0,83.3,0C267,333,269.3,324.6,272.8,316.9
	z"/>
</svg>
