<?xml version="1.0" encoding="utf-8"?>
<!-- Generator: Adobe Illustrator 27.9.0, SVG Export Plug-In . SVG Version: 6.00 Build 0)  -->
<svg version="1.1" id="Layer_1" xmlns="http://www.w3.org/2000/svg" xmlns:xlink="http://www.w3.org/1999/xlink" x="0px" y="0px"
	 viewBox="0 0 500 500" style="enable-background:new 0 0 500 500;" xml:space="preserve">
<style type="text/css">
	.st0{fill:#8A1538;}
</style>
<g>
	<path class="st0" d="M104.49,252.19c0-65.46,0-130.92,0-196.38c0-12.21,5.2-17.46,17.29-17.46c96.4,0,192.81,0,289.21,0
		c12.12,0,17.32,5.23,17.32,17.42c0,8.78-0.19,17.56,0.13,26.33c0.08,2.19,1.3,4.77,2.82,6.4c4.16,4.45,8.7,8.55,13.19,12.67
		c5.13,4.71,7.64,10.48,7.64,17.41c-0.01,25.89,0,51.77,0,77.66c0,6.75-2.4,12.47-7.39,17.07c-0.55,0.5-1.08,1.02-1.61,1.54
		c-4.88,4.77-11.64,8.75-14.09,14.54c-2.46,5.82-0.69,13.45-0.67,20.29c0.03,6.68-1.54,14.05,0.79,19.84
		c2.26,5.63,8.17,10.12,13.19,14.23c7.96,6.52,10.31,14.29,10.03,24.5c-0.72,26.01-0.29,52.06-0.18,78.1
		c0.02,3.68-0.97,6.48-3.66,9.09c-5.86,5.7-11.37,11.77-17.19,17.52c-2.17,2.14-3.13,4.31-3.07,7.41c0.19,9.96,0.09,19.93,0.07,29.9
		c-0.03,10.59-5.72,16.39-16.17,16.39c-97.15,0.02-194.29,0.01-291.44,0c-10.55,0-16.2-5.69-16.2-16.32
		C104.48,384.3,104.49,318.25,104.49,252.19z M114.12,252.22c0,65.6,0,131.19,0,196.79c0,7.53,0.51,8.03,8.17,8.03
		c95.94,0,191.88,0,287.82,0c8.14,0,8.55-0.42,8.55-8.6c0-72.74,0.02-145.47-0.07-218.21c0-3.73,1-6.48,3.8-8.97
		c5.22-4.65,10.13-9.64,15.26-14.38c3.38-3.12,4.98-6.83,4.97-11.46c-0.06-25.44-0.05-50.87-0.01-76.31
		c0.01-4.44-1.52-8.06-4.77-11.08c-5.44-5.07-10.97-10.06-16.09-15.45c-1.64-1.73-2.88-4.56-2.96-6.93
		c-0.32-9.96-0.13-19.93-0.14-29.89c0-7.21-0.57-7.76-7.97-7.76c-96.24,0-192.48,0-288.71,0c-7.34,0-7.86,0.53-7.86,7.88
		C114.12,121.33,114.12,186.77,114.12,252.22z M428.54,401.2c4.48-4.25,8.84-8.25,12.99-12.45c0.78-0.79,1.03-2.41,1.03-3.65
		c0.06-28.09,0.05-56.18,0-84.27c0-1.25-0.17-2.91-0.95-3.69c-4.22-4.27-8.66-8.32-13.07-12.5
		C428.54,323.36,428.54,362.2,428.54,401.2z"/>
	<path class="st0" d="M47.64,252.21c0-65.73-0.01-131.46,0.01-197.19c0-9.07,3.99-14.75,11.38-16.33c3.2-0.68,6.21-0.4,7.1,3.36
		c0.88,3.72-1.49,5.03-4.74,6.17c-1.75,0.61-3.1,2.95-4.13,4.78c-0.57,1.02-0.12,2.62-0.12,3.96c0,130.42,0.01,260.84-0.04,391.27
		c0,4.58-0.12,8.63,6.06,9.45c1.22,0.16,3.13,3.91,2.68,5.38c-0.48,1.57-3.35,3.35-5.22,3.39c-5.93,0.14-11.58-5.17-12.59-11.26
		c-0.36-2.18-0.38-4.44-0.38-6.66C47.63,383.08,47.64,317.65,47.64,252.21z"/>
	<path class="st0" d="M76.2,252.43c0-65.73,0-131.46,0.01-197.19c0-9.06,3.59-14.47,10.74-16.37c3.28-0.87,6.54-0.99,7.67,2.96
		c1.12,3.93-1.4,5.34-4.9,6.4c-1.63,0.49-2.95,2.79-3.89,4.54c-0.56,1.04-0.12,2.62-0.12,3.96c0,130.42,0.01,260.84-0.05,391.26
		c0,4.83,0.08,8.84,6.28,9.75c1.17,0.17,3.04,3.82,2.55,5.08c-0.65,1.67-3.24,3.53-5.08,3.63c-5.84,0.32-11.7-5.01-12.76-11.06
		c-0.41-2.32-0.42-4.73-0.42-7.1C76.2,383,76.2,317.72,76.2,252.43z"/>
	<path class="st0" d="M409.21,252.53c0,59.06,0.01,118.12-0.04,177.18c0,2.8-0.07,5.73-0.89,8.37c-1.88,6.09-7.2,9.46-14.58,9.52
		c-11.6,0.09-23.21,0.03-34.81,0.03c-72.45,0-144.89,0.03-217.34-0.1c-3.72-0.01-7.7-0.84-11.1-2.34c-3.97-1.75-6.12-5.51-6.64-9.95
		c-0.19-1.62-0.24-3.26-0.25-4.9c-0.01-118.56-0.01-237.13-0.01-355.69c0-1.34-0.01-2.68,0.11-4.01
		c0.66-7.43,6.17-12.87,13.65-13.43c1.92-0.14,3.87-0.06,5.8-0.06c82.71,0,165.42,0,248.13,0c12.77,0,17.95,5.1,17.95,17.76
		C409.21,134.12,409.21,193.32,409.21,252.53z M399.77,252.31c0-59.06,0-118.12,0-177.18c0-7.55-0.81-8.35-8.5-8.35
		c-83.31,0-166.62,0-249.93,0c-7.37,0-8.3,0.91-8.3,8.1c0,118.27,0,236.54,0,354.81c0,7.4,1.04,8.42,8.53,8.42
		c83.31,0,166.62,0,249.93,0c7.28,0,8.27-0.97,8.27-8.17C399.77,370.73,399.77,311.52,399.77,252.31z"/>
	<path class="st0" d="M213.66,156.86c7.32-7.55,14.58-15.15,21.97-22.62c7.12-7.19,12.8-7.2,19.91-0.18
		c28.13,27.82,56.25,55.65,84.37,83.48c0.74,0.73,1.85,1.35,2.14,2.23c0.88,2.66,2.32,5.58,1.9,8.12c-0.56,3.33-3.78,4.77-7.2,4.79
		c-7.41,0.05-14.82,0.02-22.56,0.02c0,19.32,0,38.28,0,57.62c1.36,0.16,3.09-0.11,4.13,0.61c1.53,1.05,3.66,2.92,3.54,4.26
		c-0.15,1.67-2.12,3.44-3.71,4.62c-0.88,0.66-2.59,0.24-3.93,0.24c-46.11,0.01-92.22,0.01-138.33,0c-1.19,0-2.72,0.42-3.5-0.16
		c-1.71-1.26-4.22-3.04-4.2-4.58c0.02-1.54,2.52-3.36,4.31-4.47c1.09-0.68,2.87-0.25,4.69-0.33c0-19.19,0-38.26,0-57.8
		c-6.33,0-12.54-0.02-18.75,0.01c-4.35,0.02-8.96,0.45-11.13-4.51c-2.31-5.3,1.63-8.22,4.79-11.35c7.5-7.43,14.92-14.96,22.57-22.23
		c2.39-2.27,3.18-4.61,3.14-7.81c-0.16-12.05-0.08-24.09-0.06-36.14c0.01-6.11,1.26-7.4,7.25-7.44c6.54-0.04,13.09-0.03,19.63,0
		c6.67,0.02,7.69,1.08,7.71,7.83c0,1.63,0,3.26,0,4.89C212.79,156.25,213.22,156.56,213.66,156.86z M304.02,290.51
		c0.11-1.07,0.26-1.79,0.26-2.5c0.01-18.44,0.08-36.89-0.1-55.33c-0.02-1.76-1.22-3.92-2.54-5.2
		c-17.73-17.18-35.59-34.23-53.42-51.31c-0.82-0.78-1.71-1.49-2.59-2.25c-0.7,0.57-1.18,0.9-1.61,1.31
		c-18.25,17.5-36.53,34.97-54.65,52.6c-1.36,1.32-2.17,3.85-2.19,5.82c-0.17,17.4-0.1,34.8-0.09,52.21c0,1.44,0.13,2.89,0.21,4.4
		c20.31,0,40.26,0,60.52,0c0-2.03,0-3.66,0-5.28c0-12.79-0.06-25.58,0.03-38.37c0.05-7.3,3.75-10.9,11.07-10.97
		c6.99-0.06,13.98-0.03,20.97-0.01c8.8,0.02,12.23,3.35,12.26,12.07c0.05,12.64,0,25.29,0.02,37.93c0,1.58,0.16,3.16,0.25,4.88
		C296.45,290.51,299.99,290.51,304.02,290.51z M331.99,223.09c-29.3-29-57.67-57.07-86.6-85.69c-28.26,29.15-56.01,57.78-83.08,85.7
		c3.44,0,8.61-0.16,13.77,0.06c3.05,0.13,5.24-0.79,7.45-2.94c18.79-18.22,37.69-36.31,56.57-54.43c4.97-4.77,6.14-4.75,11.03-0.05
		c19,18.21,37.98,36.44,57.02,54.6c1.21,1.16,2.83,2.56,4.33,2.63C318.52,223.26,324.59,223.09,331.99,223.09z M257.42,290.4
		c8.67,0,16.77,0,25.1,0c0-15.04,0-29.79,0-44.77c-8.45,0-16.67,0-24.99,0c0,5.93,0,11.61,0,17.24c3.78,0.84,9.1-1.23,9.45,4.59
		c0.41,6.85-6.02,4.29-9.56,5.78C257.42,278.94,257.42,284.52,257.42,290.4z M201.89,152.92c-4.43,0-9.23,0-14.27,0
		c0,9.4,0,18.61,0,28.52C195.92,173.25,207.07,167.38,201.89,152.92z"/>
	<path class="st0" d="M266.42,109.63c-27.52,0-55.04,0-82.56,0c-9.39,0-12.6-3.21-12.63-12.53c-0.03-14.41,1.6-16.03,16.16-16.03
		c53.85,0,107.69,0,161.54,0c9.62,0,12.59,2.94,12.61,12.43c0.03,14.36-1.74,16.14-16.15,16.14
		C319.08,109.63,292.75,109.63,266.42,109.63z"/>
	<path class="st0" d="M294.89,390.5c0.43-6.8,0.06-13.15,1.36-19.13c4.73-21.7,25.83-36.16,47.25-32.93
		c22.74,3.43,38.59,22.98,36.93,45.57c-1.65,22.39-20.2,39.93-42.66,39.74c-15.52-0.13-27.8-6.97-36.1-20.15
		c-1.9-3.01-3.85-3.98-7.11-3.73c-2.81,0.22-5.65,0.05-8.47,0.03c-3.15-0.02-5.23-1.43-5.21-4.75c0.02-3.37,2.24-4.61,5.32-4.64
		C289.28,390.48,292.36,390.5,294.89,390.5z M310.9,399.92c0.64,1.18,0.8,1.61,1.06,1.95c9.99,12.89,29.18,16.17,43.39,7.43
		c14.31-8.81,19.77-27.26,12.58-42.55c-7.21-15.34-24.73-22.8-40.81-17.38c-15.9,5.36-25.51,22.12-22.03,38.13
		c0.54,2.48,1.71,3.05,3.96,3.03c6.68-0.09,13.37-0.03,20.06-0.03c4.31,0,8.62-0.03,12.93,0.04c3.11,0.05,5.21,1.48,5.11,4.83
		c-0.09,3.06-2.04,4.44-4.98,4.53c-1.48,0.05-2.97,0.03-4.46,0.03C329.01,399.92,320.28,399.92,310.9,399.92z"/>
	<path class="st0" d="M266.36,314.34c35.09,0,70.18,0,105.27,0c1.34,0,2.68-0.06,4.01,0.04c2.9,0.23,4.86,1.69,4.87,4.73
		c0.01,3-1.82,4.58-4.78,4.79c-1.04,0.08-2.08,0.03-3.12,0.03c-70.78,0-141.55,0-212.33,0c-1.34,0-3.04,0.45-3.93-0.2
		c-1.62-1.16-3.78-2.98-3.8-4.54c-0.02-1.56,2.09-3.48,3.72-4.59c1.03-0.71,2.88-0.26,4.37-0.26
		C195.88,314.33,231.12,314.34,266.36,314.34z"/>
	<path class="st0" d="M370.87,261.95c-1.72,0-3.3,0-4.88,0c-10.55,0-21.1,0.01-31.65-0.02c-3.35-0.01-6.06-1.14-5.87-5.05
		c0.18-3.6,2.77-4.46,5.97-4.45c12.04,0.05,24.07-0.04,36.11,0.05c6.05,0.04,9.87,3.52,10.03,9.59c0.24,9.5,0.25,19.02-0.01,28.52
		c-0.16,5.88-3.85,9.33-9.73,9.4c-12.33,0.14-24.67,0.06-37,0.05c-3.08,0-5.34-1.23-5.38-4.58c-0.04-3.61,2.34-4.78,5.61-4.78
		c10.55,0.02,21.1,0,31.65,0c1.61,0,3.22,0,5.15,0C370.87,281.04,370.87,271.79,370.87,261.95z"/>
	<path class="st0" d="M322.98,138.26c-16.35,0-32.7,0-49.05-0.01c-1.33,0-3.06,0.37-3.91-0.3c-1.46-1.16-3.16-2.94-3.28-4.58
		c-0.1-1.36,1.68-3.18,3.06-4.23c0.9-0.68,2.57-0.46,3.89-0.46c33.29-0.02,66.58-0.02,99.87-0.01c1.04,0,2.43-0.29,3.04,0.25
		c1.51,1.34,3.69,3.11,3.66,4.67c-0.03,1.56-2.26,3.28-3.85,4.5c-0.77,0.58-2.3,0.17-3.49,0.17
		C356.27,138.27,339.63,138.26,322.98,138.26z"/>
	<path class="st0" d="M197.2,352.5c-12.79,0-25.58,0.06-38.37-0.07c-1.79-0.02-4.03-0.51-5.22-1.66c-0.98-0.95-1.43-3.57-0.81-4.76
		c0.73-1.41,2.82-2.82,4.42-2.94c5.03-0.38,10.1-0.16,15.16-0.16c20.52,0,41.04,0,61.57,0c1.19,0,2.38-0.04,3.57,0.04
		c2.9,0.2,4.97,1.67,5.01,4.63c0.04,3.16-2,4.87-5.16,4.9c-6.69,0.06-13.38,0.02-20.08,0.02C210.58,352.5,203.89,352.5,197.2,352.5z
		"/>
	<path class="st0" d="M340.02,152.55c11.28,0,22.56,0.04,33.83-0.03c3.44-0.02,6.57,0.51,6.62,4.68c0.05,4.16-3.05,4.88-6.5,4.87
		c-22.56-0.02-45.11-0.01-67.67-0.01c-3.44,0-6.51-0.76-6.4-4.95c0.1-3.86,2.96-4.61,6.28-4.59
		C317.46,152.58,328.74,152.55,340.02,152.55z"/>
	<path class="st0" d="M192.59,414.2c8.03,0,16.06,0.03,24.09-0.01c3.43-0.02,6.59,0.61,6.66,4.75c0.07,4.13-2.99,4.92-6.48,4.92
		c-16.21-0.03-32.41-0.04-48.62,0c-3.54,0.01-6.57-0.96-6.47-4.96c0.1-4.02,3.28-4.74,6.73-4.71
		C176.53,414.25,184.56,414.2,192.59,414.2z"/>
	<path class="st0" d="M352.1,185.79c-7.41,0-14.83-0.03-22.24,0.01c-3.32,0.02-6.13-0.75-6.13-4.69c-0.01-3.95,2.79-4.71,6.12-4.7
		c14.83,0.03,29.65,0.04,44.48,0c3.34-0.01,6.14,0.78,6.14,4.69c0,3.91-2.79,4.73-6.13,4.71
		C366.93,185.76,359.51,185.79,352.1,185.79z"/>
	<path class="st0" d="M173.11,399.91c-5.06,0-10.12-0.02-15.17,0.01c-3.3,0.02-5.64-1.22-5.61-4.82c0.03-3.36,2.3-4.59,5.38-4.59
		c10.56-0.01,21.13-0.01,31.69,0c3.08,0,5.35,1.24,5.39,4.59c0.04,3.59-2.31,4.84-5.61,4.82
		C183.82,399.89,178.46,399.91,173.11,399.91z"/>
	<path class="st0" d="M361.9,209.67c-4.44,0-8.89-0.02-13.33,0.01c-3.2,0.02-5.72-1.07-5.83-4.61c-0.11-3.86,2.58-4.97,5.93-4.98
		c8.74-0.02,17.48-0.02,26.22,0.01c3.23,0.01,5.65,1.32,5.61,4.86c-0.04,3.52-2.45,4.75-5.71,4.73
		C370.49,209.65,366.19,209.67,361.9,209.67z"/>
	<path class="st0" d="M366.07,233.33c-2.96,0-5.92,0.12-8.87-0.03c-3.08-0.16-5.09-1.73-4.9-5.04c0.18-3.05,2.15-4.36,5.08-4.37
		c6.06,0,12.13-0.02,18.19,0.01c2.98,0.02,4.83,1.53,4.92,4.54c0.09,3.03-1.76,4.67-4.67,4.82c-3.24,0.17-6.5,0.04-9.76,0.04
		C366.07,233.31,366.07,233.32,366.07,233.33z"/>
	<path class="st0" d="M197.9,257.82c0-5.35,0.06-10.71-0.02-16.06c-0.06-4.03,1.68-6.14,5.81-6.14c9.22,0.02,18.44,0.02,27.66,0
		c4.07-0.01,5.99,2,5.98,6.04c-0.02,10.86-0.01,21.71-0.01,32.57c0,4.08-2.09,5.94-6.1,5.93c-9.07-0.03-18.14,0.04-27.22-0.03
		c-4.55-0.04-6.04-1.6-6.1-6.25C197.85,268.53,197.9,263.18,197.9,257.82z M227.37,270.3c0-8.57,0-16.64,0-24.75
		c-6.77,0-13.23,0-19.87,0c0,8.36,0,16.43,0,24.75C214.23,270.3,220.68,270.3,227.37,270.3z"/>
</g>
</svg>
