<svg width="73" height="74" viewBox="0 0 73 74" fill="none" xmlns="http://www.w3.org/2000/svg">
<g clip-path="url(#clip0_4709_1483)">
<path d="M35.7871 0.966797C36.2624 0.966797 36.7376 0.966797 37.2129 0.966797C37.9904 1.40214 38.806 1.78424 39.5417 2.28422C44.7828 5.84677 50.0069 9.43214 55.2348 13.0118C57.3696 14.4737 59.5159 15.9185 61.6337 17.4013C63.3408 18.5971 63.7648 20.7547 62.6698 22.4277C61.5862 24.0816 59.4912 24.5454 57.7137 23.5284C57.5597 23.439 57.3944 23.3725 57.2233 23.2888V30.125C57.5255 30.0242 57.7746 29.952 58.0141 29.8626C61.6964 28.4749 65.3768 27.0833 69.0573 25.6917C71.0229 24.9484 71.9696 25.2773 72.9981 27.0605V58.7128C72.5989 59.6501 72.021 60.4485 70.9317 60.5416C69.0535 60.7013 67.4185 60.6348 66.1658 58.1729C65.5441 56.9525 64.8674 55.7605 64.1887 54.5039C61.5862 55.5894 59.0369 56.6521 56.4933 57.711C57.7708 61.3838 54.8032 65.0319 50.716 64.0053C50.6875 64.0415 50.6476 64.0719 50.6343 64.1137C49.8681 66.5546 48.699 67.4804 46.1345 67.7333C45.9501 67.7523 45.6972 68.0279 45.6364 68.2314C45.2505 69.5317 44.4635 70.4765 43.1689 70.8681C42.4902 71.0734 41.7412 71.0487 40.9427 71.1361C40.5682 72.5505 39.4865 73.4288 38.0665 73.9668H36.213C34.7434 72.9954 33.272 72.0239 31.7911 71.0449C29.6715 73.3927 26.5347 72.6228 25.3751 70.0583C22.7327 70.4195 21.5939 69.8529 20.1168 67.4424C17.3964 67.9101 16.1341 67.3493 14.7103 65.0319C11.0755 65.9596 8.79043 62.975 9.6573 59.9675C8.98433 59.6558 8.30566 59.3421 7.60037 59.0151C7.20306 59.7793 6.85897 60.5093 6.45405 61.2013C5.52444 62.7887 4.03022 63.108 2.34019 63.0054C1.10261 62.9293 0.43915 62.1822 -0.00189209 61.1329V27.1993C0.901103 25.3229 1.95238 24.9218 3.90475 25.7051C7.59847 27.1879 11.2941 28.6726 14.9897 30.1516C15.2426 30.2523 15.5068 30.3265 15.7825 30.4196V23.3497C15.7235 23.3326 15.695 23.3135 15.6798 23.3211C15.4916 23.4219 15.3091 23.5322 15.1209 23.6291C13.9898 24.2051 12.8415 24.2508 11.7028 23.6747C9.16493 22.3877 9.00905 19.0172 11.4291 17.3557C18.2557 12.6696 25.0862 7.99115 31.9337 3.33169C33.1808 2.48763 34.502 1.75383 35.7871 0.966797ZM55.1739 37.885C54.7215 37.0391 54.3033 36.2939 53.9212 35.5334C53.2501 34.2008 53.4554 32.8188 54.4154 31.6857C54.6055 31.4614 54.7348 31.1097 54.7367 30.817C54.7595 27.9179 54.7424 25.0188 54.7614 22.1197C54.7633 21.6939 54.6398 21.4372 54.2824 21.1939C48.5146 17.2606 42.7525 13.3179 37.0019 9.3599C36.6255 9.10135 36.3783 9.10706 36.0076 9.3618C30.2551 13.3179 24.493 17.2606 18.7253 21.192C18.3679 21.4353 18.2405 21.6901 18.2424 22.1178C18.2614 25.1347 18.2424 28.1536 18.2652 31.1705C18.2671 31.4671 18.3945 31.8169 18.577 32.0526C19.5465 33.3016 19.7005 34.6323 19.0789 36.0657C18.9021 36.4726 18.6968 36.868 18.4591 37.3622C20.4324 38.0998 22.284 38.9458 24.4227 38.5143C25.8865 38.2177 27.3655 37.9972 28.8369 37.7424C28.951 37.7234 29.1354 37.7215 29.1658 37.6569C29.5517 36.809 30.4015 36.1855 30.4034 35.1551C30.4091 32.8035 30.4015 30.4501 30.4072 28.0985C30.411 26.2602 31.3406 25.321 33.1599 25.3153C35.3689 25.3096 37.5798 25.3096 39.7888 25.3153C41.6632 25.3191 42.589 26.243 42.5947 28.1194C42.6005 29.9957 42.5814 31.8739 42.6119 33.7503C42.6176 34.0354 42.7601 34.4194 42.9731 34.581C44.7676 35.9498 46.5869 37.2824 48.41 38.6131C49.2104 39.1986 50.1438 39.5161 51.1 39.2576C52.465 38.8888 53.7862 38.3622 55.1758 37.8869L55.1739 37.885ZM32.985 68.623C34.0857 69.4708 35.137 70.3206 36.2301 71.1114C36.9106 71.6038 37.7642 71.446 38.2794 70.8244C38.787 70.2122 38.7622 69.4613 38.1824 68.8245C37.7984 68.4025 37.3764 68.0184 36.981 67.6078C36.3612 66.9653 36.3061 66.2429 36.8251 65.7239C37.3441 65.2068 38.0741 65.26 38.709 65.8836C39.4371 66.5984 40.1405 67.3417 40.8781 68.0489C41.5321 68.6762 42.3457 68.68 42.9084 68.0964C43.4445 67.5394 43.4122 66.7695 42.7944 66.1269C42.1195 65.4254 41.4199 64.7467 40.7317 64.0567C39.8249 63.148 38.9048 62.2545 38.0208 61.3249C37.5228 60.8021 37.5456 60.1424 38.0018 59.6577C38.4657 59.1634 39.1691 59.1406 39.7299 59.6082C39.8744 59.7299 40.0036 59.8725 40.1367 60.0075C41.6309 61.5017 43.1289 62.9959 44.6213 64.492C45.2296 65.1022 45.9558 65.3076 46.7732 65.0585C47.5127 64.8342 47.9785 64.2981 48.142 63.5491C48.334 62.6689 47.9671 61.9883 47.3074 61.4142C45.4976 59.8402 43.6917 58.2604 41.8971 56.6673C41.1119 55.9696 41.2146 54.9526 42.0853 54.5724C42.6879 54.3081 43.1746 54.5306 43.6403 54.9412C45.9558 56.9848 48.2751 59.0227 50.6095 61.0435C51.6627 61.9541 53.0809 61.8572 53.9212 60.8629C54.6569 59.9922 54.482 58.6159 53.501 57.7433C48.4595 53.2607 43.416 48.7818 38.3706 44.3048C38.2528 44.2003 38.1197 44.1166 37.9714 44.0083C37.6254 44.3904 37.306 44.7421 36.9905 45.0938C35.6883 46.5424 34.4184 48.0214 33.0762 49.432C30.7456 51.8786 26.6963 50.9072 25.7534 47.7058C25.4378 46.6317 25.5633 45.5957 26.0177 44.5843C26.6412 43.1908 27.259 41.7936 27.8807 40.3982C27.8579 40.3279 27.837 40.2556 27.8141 40.1853C24.2231 41.5312 20.748 41.2252 17.3869 39.4876C14.4574 45.3238 11.585 51.044 8.69157 56.8061C9.35884 57.1255 9.99188 57.4277 10.701 57.768C11.2333 56.2681 12.045 55.0723 13.6305 54.6693C15.195 54.2701 16.5258 54.734 17.6417 55.9126C18.9306 54.7378 20.3963 54.3557 22.0198 54.8898C23.6737 55.4354 24.5653 56.692 24.9075 58.3364C27.5917 58.2034 28.854 59.0759 29.9338 61.7678C29.9984 61.7773 30.0669 61.7963 30.1353 61.7944C33.1447 61.7545 34.8689 64.3494 33.6599 67.1002C33.4412 67.5964 33.2207 68.0907 32.985 68.6249V68.623ZM63.0252 52.3957C60.8999 48.4681 58.822 44.6299 56.7461 40.7917C56.6891 40.6872 56.6244 40.5864 56.5807 40.4761C56.4381 40.113 56.2081 40.1454 55.8963 40.267C54.9686 40.6301 54.0238 40.9476 53.0961 41.3107C50.7787 42.2194 48.6515 41.9114 46.6535 40.421C44.3513 38.7025 42.0244 37.0163 39.6919 35.3395C37.7319 33.9309 35.3575 34.0867 33.6541 35.7863C32.9203 36.5182 32.1713 37.3128 31.7113 38.2234C30.4357 40.7385 29.2856 43.3163 28.1335 45.8922C27.7742 46.6945 28.1335 47.6583 28.8065 48.105C29.5289 48.5841 30.5612 48.5537 31.1752 47.8978C32.8443 46.1146 34.4621 44.2858 36.0989 42.476C36.0266 42.3696 36 42.2935 35.9487 42.2593C35.1655 41.7441 35.2301 40.7765 35.654 40.3355C36.2091 39.7595 36.8422 39.8032 37.6501 40.5104C39.5094 42.1377 41.3648 43.7668 43.2221 45.396C46.9728 48.6848 50.7179 51.9774 54.4801 55.2529C54.6778 55.4259 55.0561 55.6122 55.25 55.5362C57.8316 54.5248 60.3942 53.4698 63.0271 52.3976L63.0252 52.3957ZM2.46186 60.5397C3.94847 60.6367 4.09485 60.5569 4.71079 59.3269C8.71058 51.3539 12.7123 43.3828 16.7102 35.4099C17.2919 34.2502 17.0771 33.6799 15.8794 33.1933C13.024 32.0298 10.1687 30.8702 7.31141 29.7105C5.71264 29.0623 4.11386 28.4159 2.45996 27.7468V60.5397H2.46186ZM70.5496 27.6878C70.2777 27.781 70.0971 27.8361 69.9241 27.9027C65.6544 29.5452 61.3827 31.1877 57.113 32.834C55.9115 33.2978 55.75 33.7446 56.364 34.8833C60.3695 42.2916 64.375 49.7 68.3824 57.1084C68.9052 58.0741 69.4051 58.2889 70.5477 58.0361V27.6897L70.5496 27.6878ZM13.562 21.6577C13.7826 21.538 14.1495 21.3802 14.4726 21.1597C21.4305 16.4071 28.3845 11.6468 35.3404 6.88854C36.405 6.16044 36.6065 6.16044 37.692 6.90185C43.8837 11.1374 50.0734 15.3729 56.2651 19.6084C57.1472 20.211 58.0179 20.8327 58.9171 21.4068C59.668 21.8859 60.5216 21.5836 60.7611 20.7928C60.9797 20.0742 60.5995 19.6255 60.0482 19.2491C52.522 14.1049 44.9996 8.95688 37.4752 3.81266C36.6312 3.23474 36.3555 3.24805 35.483 3.84307C28.6848 8.49302 21.8867 13.1449 15.0886 17.7948C14.2863 18.3442 13.4746 18.8822 12.6876 19.4544C12.2199 19.7947 12.0545 20.2795 12.2522 20.8403C12.4385 21.3688 12.8377 21.6235 13.562 21.6577ZM40.1272 27.8H32.9013V33.1476C35.2472 31.6591 37.6273 31.5165 40.1272 32.6134V27.8ZM20.6643 57.1141C19.9876 57.1046 19.4268 57.3859 19.134 57.9752C18.3565 59.5436 17.6018 61.1272 16.9117 62.7354C16.5372 63.608 17.0143 64.6308 17.8394 65.0186C18.634 65.3912 19.7271 65.1308 20.1453 64.3228C20.959 62.7468 21.7384 61.1481 22.4133 59.5094C22.8924 58.344 21.9266 57.1122 20.6662 57.116L20.6643 57.1141ZM22.3563 65.6041C22.3391 66.6193 22.9171 67.4082 23.725 67.642C24.5044 67.8683 25.3941 67.4785 25.8009 66.6573C26.3256 65.5965 26.8123 64.5167 27.2876 63.4331C27.7514 62.3742 27.394 61.3534 26.4397 60.9104C25.4911 60.4713 24.493 60.8724 23.974 61.9275C23.4931 62.9046 23.0311 63.8913 22.5806 64.8817C22.4551 65.1574 22.3981 65.4634 22.3563 65.6022V65.6041ZM13.3814 62.8704C13.7502 62.6157 14.2597 62.4408 14.4631 62.0891C15.0563 61.0682 15.5657 59.9922 16.0353 58.9067C16.3357 58.2129 15.9593 57.4239 15.2977 57.1122C14.638 56.8023 13.8434 56.9848 13.4993 57.6369C12.9385 58.7033 12.4043 59.7926 11.9595 60.9123C11.6097 61.7963 12.3283 62.7107 13.3795 62.8685L13.3814 62.8704ZM30.3482 64.108C29.9984 64.3475 29.5061 64.5072 29.3255 64.8399C28.7266 65.9425 28.2096 67.0926 27.7248 68.2504C27.4663 68.8663 27.8674 69.5887 28.5175 69.8872C29.008 70.1115 29.6848 69.891 29.9661 69.3226C30.5326 68.1762 31.0858 67.0166 31.5687 65.8341C31.8862 65.0585 31.295 64.2924 30.3463 64.1099L30.3482 64.108Z" fill="#8A1538"/>
<path d="M41.3552 18.0229C41.3457 20.6957 39.1614 22.8724 36.4923 22.8686C33.7929 22.8629 31.6238 20.6577 31.6447 17.9392C31.6637 15.2778 33.8898 13.0897 36.5418 13.1277C39.2241 13.1638 41.3647 15.3405 41.3552 18.0248V18.0229ZM38.9257 18.021C38.9352 16.6731 37.8459 15.5686 36.5037 15.5648C35.1882 15.561 34.0989 16.6275 34.0742 17.9411C34.0476 19.3004 35.1046 20.403 36.4581 20.4277C37.806 20.4524 38.9143 19.3707 38.9257 18.0229V18.021Z" fill="#8A1538"/>
</g>
<defs>
<clipPath id="clip0_4709_1483">
<rect width="73" height="73" fill="white" transform="translate(-6.10352e-05 0.966797)"/>
</clipPath>
</defs>
</svg>
