<svg width="13" height="13" viewBox="0 0 13 13" fill="none" xmlns="http://www.w3.org/2000/svg">
<path d="M12.1183 12.5515C10.6416 12.5515 9.18265 12.2383 7.74142 11.6118C6.3002 10.9854 4.98893 10.0975 3.8076 8.94804C2.62627 7.79861 1.71369 6.52275 1.06986 5.12045C0.426038 3.71815 0.104126 2.29861 0.104126 0.861833C0.104126 0.654937 0.175006 0.482523 0.316765 0.344592C0.458525 0.206661 0.635724 0.137695 0.848364 0.137695H3.719C3.88438 0.137695 4.03205 0.192293 4.16199 0.301488C4.29194 0.410684 4.36873 0.539994 4.39235 0.689419L4.85307 3.10321C4.8767 3.28712 4.87079 3.44229 4.83535 3.56873C4.79991 3.69517 4.73494 3.80436 4.64043 3.89632L2.9216 5.58597C3.15786 6.01126 3.43843 6.42218 3.7633 6.81873C4.08816 7.21528 4.44551 7.59747 4.83535 7.96528C5.20156 8.3216 5.5855 8.65206 5.98715 8.95666C6.3888 9.26126 6.81408 9.53999 7.26299 9.79287L8.92866 8.17218C9.03498 8.06873 9.17379 7.99114 9.34508 7.93942C9.51637 7.88769 9.68471 7.87333 9.8501 7.89632L12.2955 8.37907C12.4608 8.42505 12.5967 8.50838 12.703 8.62907C12.8093 8.74976 12.8625 8.88482 12.8625 9.03425V11.8274C12.8625 12.0342 12.7916 12.2067 12.6499 12.3446C12.5081 12.4825 12.3309 12.5515 12.1183 12.5515ZM2.24824 4.27563L3.41776 3.1377L3.11652 1.51701H1.53944C1.59851 1.98827 1.6812 2.45379 1.78752 2.91356C1.89384 3.37333 2.04741 3.82735 2.24824 4.27563ZM8.59198 10.448C9.0527 10.6434 9.52228 10.7986 10.0007 10.9136C10.4792 11.0285 10.9605 11.1032 11.4449 11.1377V9.62045L9.77922 9.29287L8.59198 10.448Z" fill="#A29475"/>
</svg>
