<svg width="24" height="24" viewBox="0 0 24 24" fill="none" xmlns="http://www.w3.org/2000/svg">
<mask id="mask0_4682_1447" style="mask-type:alpha" maskUnits="userSpaceOnUse" x="0" y="0" width="24" height="24">
<rect x="0.353027" width="22.9177" height="24" fill="#D9D9D9"/>
</mask>
<g mask="url(#mask0_4682_1447)">
<path d="M11.8118 12C12.337 12 12.7866 11.8042 13.1606 11.4125C13.5346 11.0208 13.7216 10.55 13.7216 10C13.7216 9.45 13.5346 8.97917 13.1606 8.5875C12.7866 8.19583 12.337 8 11.8118 8C11.2866 8 10.837 8.19583 10.463 8.5875C10.089 8.97917 9.90203 9.45 9.90203 10C9.90203 10.55 10.089 11.0208 10.463 11.4125C10.837 11.8042 11.2866 12 11.8118 12ZM11.8118 19.35C13.7535 17.4833 15.1938 15.7875 16.1328 14.2625C17.0718 12.7375 17.5413 11.3833 17.5413 10.2C17.5413 8.38333 16.9882 6.89583 15.8821 5.7375C14.776 4.57917 13.4193 4 11.8118 4C10.2044 4 8.84766 4.57917 7.74156 5.7375C6.63546 6.89583 6.08242 8.38333 6.08242 10.2C6.08242 11.3833 6.55191 12.7375 7.4909 14.2625C8.42989 15.7875 9.8702 17.4833 11.8118 19.35ZM11.8118 22C9.24951 19.7167 7.33573 17.5958 6.07048 15.6375C4.80523 13.6792 4.17261 11.8667 4.17261 10.2C4.17261 7.7 4.94051 5.70833 6.47631 4.225C8.01212 2.74167 9.79063 2 11.8118 2C13.8331 2 15.6116 2.74167 17.1474 4.225C18.6832 5.70833 19.4511 7.7 19.4511 10.2C19.4511 11.8667 18.8184 13.6792 17.5532 15.6375C16.288 17.5958 14.3742 19.7167 11.8118 22Z" fill="#A29475"/>
</g>
</svg>
