<svg width="15" height="12" viewBox="0 0 15 12" fill="none" xmlns="http://www.w3.org/2000/svg">
<path d="M1.81292 11.6895C1.42308 11.6895 1.08936 11.5545 0.811744 11.2843C0.534131 11.0142 0.395325 10.6895 0.395325 10.3102V2.03434C0.395325 1.65503 0.534131 1.33032 0.811744 1.0602C1.08936 0.790087 1.42308 0.655029 1.81292 0.655029H13.1537C13.5435 0.655029 13.8773 0.790087 14.1549 1.0602C14.4325 1.33032 14.5713 1.65503 14.5713 2.03434V10.3102C14.5713 10.6895 14.4325 11.0142 14.1549 11.2843C13.8773 11.5545 13.5435 11.6895 13.1537 11.6895H1.81292ZM7.4833 6.86193L1.81292 3.41365V10.3102H13.1537V3.41365L7.4833 6.86193ZM7.4833 5.48262L13.1537 2.03434H1.81292L7.4833 5.48262ZM1.81292 3.41365V2.03434V10.3102V3.41365Z" fill="#A29475"/>
</svg>
