<svg width="144" height="127" viewBox="0 0 144 127" fill="none" xmlns="http://www.w3.org/2000/svg">
<g clip-path="url(#clip0_4682_1438)">
<path d="M37.0852 76.7647C41.156 76.7647 45.0918 76.356 48.9135 76.8802C52.6845 77.3955 56.3415 78.8482 60.2265 79.941C60.2265 79.3413 60.2265 78.7504 60.2265 78.1552C60.2265 71.767 60.1716 65.3788 60.2392 58.9951C60.349 49.3017 69.4873 43.3489 77.3587 47.8535C81.5352 50.2435 83.4735 54.1395 83.4861 59.0928C83.5072 67.5334 83.4904 75.9784 83.4946 84.419C83.4946 85.0809 83.4946 85.7428 83.4946 86.5424C84.7192 86.8267 85.8974 87.0622 87.0502 87.3776C92.1937 88.777 96.4672 91.4824 99.3008 96.3868C99.4908 96.7155 100.162 97.0221 100.5 96.9199C102.269 96.3868 103.988 95.6538 105.762 95.1207C106.809 94.8053 106.627 94.0323 106.627 93.2816C106.627 82.06 106.627 70.843 106.627 59.6214C106.627 59.0661 106.602 58.5064 106.657 57.9555C106.792 56.6139 107.518 55.8276 108.794 55.7121C110.082 55.5966 110.926 56.2808 111.268 57.5557C111.42 58.1288 111.395 58.7641 111.395 59.3727C111.404 69.9278 111.399 80.4785 111.399 91.0337C111.399 91.6423 111.399 92.2465 111.399 93.0728C112.924 92.5619 114.305 92.1088 115.677 91.6334C121.129 89.7365 126.559 87.7596 132.049 85.9827C133.341 85.5651 134.891 85.4807 136.204 85.7961C140.022 86.7201 143.151 91.0381 143.426 95.3517C143.709 99.8563 141.61 103.361 137.471 105.094C122.049 111.549 106.598 117.928 91.1929 124.427C85.8678 126.675 80.509 126.306 75.184 124.88C68.7525 123.157 62.3802 121.184 56.0248 119.176C50.3788 117.39 44.737 116.4 38.9053 118.07C38.0945 118.301 37.2457 118.417 36.4053 118.488C33.2804 118.759 30.5482 120.003 27.9385 121.806C26.0171 123.139 23.9267 124.272 21.79 125.169C18.8424 126.404 15.9582 125.862 13.3991 123.885C12.3856 123.103 11.4017 122.211 10.6162 121.189C6.89166 116.329 3.71184 111.082 1.42727 105.325C-1.1149 98.9101 0.333542 94.4188 5.87817 90.6072C13.7707 85.1786 22.0011 80.4919 31.2576 78.1418C32.2542 77.8886 32.3176 77.3244 32.3176 76.4759C32.3007 70.7541 32.3049 65.0323 32.3176 59.3149C32.3176 58.7108 32.3176 58.0755 32.4738 57.5024C32.8201 56.2052 33.7069 55.5877 34.978 55.721C36.1773 55.8454 36.8867 56.5917 37.0387 57.8578C37.1063 58.4042 37.0852 58.9684 37.0852 59.5193C37.0852 64.628 37.0852 69.7412 37.0852 74.85C37.0852 75.4497 37.0852 76.045 37.0852 76.7602V76.7647ZM17.8289 89.0035C22.1658 96.5112 26.3802 103.81 30.5946 111.109C32.3851 114.205 32.4189 114.365 35.8268 113.508C43.428 111.593 50.8095 112.135 58.2587 114.596C64.5803 116.684 71.0455 118.354 77.5192 119.852C81.7421 120.829 86.0916 121.153 90.3018 119.394C103.329 113.952 116.361 108.523 129.389 103.086C131.741 102.104 134.118 101.189 136.416 100.083C138.59 99.0345 139.283 96.489 138.261 93.9568C137.188 91.2914 135.145 90.0741 132.911 90.856C122.615 94.4632 112.333 98.1016 102.029 101.695C101.248 101.966 100.994 102.331 100.956 103.201C100.703 108.892 96.7417 112.339 91.5223 110.891C86.1888 109.412 80.8088 109.239 75.3867 109.039C72.0633 108.919 68.7399 108.781 65.4249 108.568C63.6091 108.452 62.8067 107.502 62.9123 105.867C63.0136 104.285 63.9807 103.517 65.805 103.583C66.8058 103.619 67.8108 103.659 68.8116 103.73C76.9956 104.312 85.2893 103.655 93.317 106.111C94.757 106.551 95.648 105.849 95.9309 104.272C96.4968 101.1 95.3693 98.4881 93.2916 96.2846C91.0577 93.9213 88.258 92.593 85.1922 92.0688C74.9601 90.314 65.0406 87.3243 55.2858 83.7171C49.3695 81.5314 43.3899 80.9583 37.2161 82.0645C30.4595 83.2728 24.0914 85.6273 17.8373 89.0035H17.8289ZM78.4694 85.6051C78.596 85.223 78.6932 85.072 78.6932 84.9209C78.7016 76.0317 78.7945 67.1424 78.6552 58.2576C78.5918 54.1306 75.5429 51.3452 71.717 51.3985C68.0009 51.4474 65.1293 54.295 65.066 58.3865C64.9477 65.8275 65.0026 73.273 65.0575 80.714C65.0575 81.1804 65.5896 81.9001 66.0203 82.06C67.8573 82.7442 69.7365 83.3039 71.6199 83.8281C73.8918 84.4634 76.1848 85.0142 78.4694 85.6006V85.6051ZM13.6483 91.4202C11.4608 92.8817 9.3916 94.2011 7.38996 95.6227C5.32075 97.0931 4.55642 99.1366 5.32076 101.7C5.62058 102.704 5.84861 103.77 6.35114 104.654C8.71594 108.843 11.1145 113.01 13.6145 117.111C14.2521 118.155 15.1896 119.136 16.2031 119.745C17.187 120.336 18.665 120.971 19.5561 120.602C22.4361 119.403 25.1429 117.75 27.9722 116.244C23.0822 107.768 18.437 99.7142 13.6483 91.4157V91.4202Z" fill="black"/>
<path d="M71.869 20.3195C65.5263 25.6149 59.2891 30.8214 53.0477 36.0234C47.1357 40.9545 41.2786 45.9611 35.2821 50.7811C30.5778 54.5616 24.4546 52.3404 23.2005 46.4809C22.3728 42.6204 23.7452 39.5507 26.6674 37.1252C33.4198 31.5233 40.1426 25.877 46.8781 20.2485C54.4413 13.9314 62.0044 7.6187 69.5676 1.30159C71.6326 -0.42206 72.0802 -0.435387 74.0987 1.24829C88.2327 13.0562 102.358 24.873 116.505 36.6587C118.692 38.4801 120.436 40.528 120.681 43.6022C120.96 47.1472 119.731 49.9459 116.771 51.7051C113.866 53.4332 111.024 52.8824 108.486 50.83C103.971 47.1739 99.5331 43.4067 95.0695 39.684C87.3797 33.2691 79.694 26.8499 71.8775 20.3195H71.869ZM30.941 47.6625C31.5364 47.2627 32.5541 46.703 33.4367 45.9655C45.5226 35.9124 57.5873 25.837 69.6605 15.7705C71.5017 14.2379 72.2364 14.2334 74.1072 15.7883C81.9659 22.3364 89.8163 28.8934 97.6708 35.4459C102.177 39.2042 106.666 42.9847 111.197 46.7119C112.831 48.0579 114.216 47.9202 115.377 46.4809C116.513 45.0682 116.425 43.4778 115.094 42.0118C114.693 41.572 114.241 41.1811 113.79 40.8035C100.196 29.4487 86.59 18.1072 73.0261 6.71689C72.0591 5.90393 71.5143 6.05497 70.6402 6.78797C57.0637 18.165 43.4576 29.502 29.8768 40.879C29.1082 41.5231 28.3439 42.2961 27.8709 43.1802C26.887 45.0193 28.4199 47.5915 30.9452 47.6714L30.941 47.6625Z" fill="black"/>
</g>
<defs>
<clipPath id="clip0_4682_1438">
<rect width="143.236" height="126.035" fill="white" transform="translate(0.215332)"/>
</clipPath>
</defs>
</svg>
