<?xml version="1.0" encoding="UTF-8"?>
<!DOCTYPE svg PUBLIC "-//W3C//DTD SVG 1.1//EN" "http://www.w3.org/Graphics/SVG/1.1/DTD/svg11.dtd">
<svg xmlns="http://www.w3.org/2000/svg" version="1.1" width="150px" height="150px" style="shape-rendering:geometricPrecision; text-rendering:geometricPrecision; image-rendering:optimizeQuality; fill-rule:evenodd; clip-rule:evenodd" xmlns:xlink="http://www.w3.org/1999/xlink">
<g><path style="opacity:0.915" fill="#8a1537" d="M 149.5,102.5 C 149.5,104.5 149.5,106.5 149.5,108.5C 148.883,108.611 148.383,108.944 148,109.5C 147.823,122.409 147.323,135.242 146.5,148C 97.5011,148.5 48.5011,148.667 -0.5,148.5C -0.5,145.833 -0.5,143.167 -0.5,140.5C 3.85727,138.317 5.85727,134.817 5.5,130C 5.35512,126.672 4.35512,123.672 2.5,121C 3.47726,119.503 4.47726,118.003 5.5,116.5C 4.47726,114.997 3.47726,113.497 2.5,112C 3.5,110.333 4.5,108.667 5.5,107C 1.5,104 1.5,101 5.5,98C 4.07948,96.5809 3.07948,94.9142 2.5,93C 3.5,91.3333 4.5,89.6667 5.5,88C 3.92523,86.8805 2.92523,85.3805 2.5,83.5C 3.52274,81.997 4.52274,80.497 5.5,79C 4.52274,77.503 3.52274,76.003 2.5,74.5C 3.18592,72.653 4.18592,70.9863 5.5,69.5C 4.18592,68.0137 3.18592,66.347 2.5,64.5C 3.52274,62.997 4.52274,61.497 5.5,60C 4.52274,58.503 3.52274,57.003 2.5,55.5C 2.4528,53.9996 3.11947,52.9996 4.5,52.5C 5.31844,49.8929 5.81844,47.2263 6,44.5C 6.83333,43.6667 7.66667,42.8333 8.5,42C 14.4908,41.5005 20.4908,41.3338 26.5,41.5C 26.189,34.9102 26.5223,28.4102 27.5,22C 43.5,21.3333 59.5,21.3333 75.5,22C 76,22.5 76.5,23 77,23.5C 77.499,27.8206 77.6657,32.1539 77.5,36.5C 75.5328,36.7394 73.6995,36.4061 72,35.5C 71.502,32.5184 71.3354,29.5184 71.5,26.5C 58.1667,26.5 44.8333,26.5 31.5,26.5C 31.5,65.5 31.5,104.5 31.5,143.5C 40.8333,143.5 50.1667,143.5 59.5,143.5C 59.5,140.167 59.5,136.833 59.5,133.5C 54.3099,134.158 51.9766,131.825 52.5,126.5C 51.9766,121.175 54.3099,118.842 59.5,119.5C 59.5,118.5 59.5,117.5 59.5,116.5C 52.8906,115.742 50.7239,112.075 53,105.5C 53.3742,104.584 53.8742,103.75 54.5,103C 57.8333,102.667 61.1667,102.333 64.5,102C 66.3501,99.9824 68.3501,98.1491 70.5,96.5C 71.333,78.8428 71.833,61.1761 72,43.5C 73.4007,41.8078 75.2341,41.1412 77.5,41.5C 77.3334,57.5035 77.5001,73.5035 78,89.5C 79.8962,87.4701 82.0629,85.8034 84.5,84.5C 85.4973,77.1968 85.8306,69.8635 85.5,62.5C 81.491,62.9864 79.6577,61.3197 80,57.5C 84.7121,52.4566 89.0454,47.1233 93,41.5C 95.0639,40.4086 97.2305,40.2419 99.5,41C 103.667,45.8333 107.833,50.6667 112,55.5C 114.942,60.7594 113.442,63.0928 107.5,62.5C 107.5,69.8333 107.5,77.1667 107.5,84.5C 110.5,84.5 113.5,84.5 116.5,84.5C 116.833,71.15 116.499,57.8167 115.5,44.5C 111.835,43.9765 110.335,41.9765 111,38.5C 115.658,33.3382 120.158,28.0049 124.5,22.5C 126.421,21.359 128.421,21.1923 130.5,22C 135.13,27.4477 139.63,32.9477 144,38.5C 144.499,42.5056 142.665,44.5056 138.5,44.5C 138.666,53.1731 138.5,61.8397 138,70.5C 136.062,71.8602 134.396,71.5268 133,69.5C 132.333,60.5 132.333,51.5 133,42.5C 133.273,40.6711 134.107,39.1711 135.5,38C 133.009,34.5097 130.175,31.343 127,28.5C 124.5,31.6667 122,34.8333 119.5,38C 120.333,38.8333 121.167,39.6667 122,40.5C 122.5,55.1629 122.667,69.8295 122.5,84.5C 126.426,84.0466 129.592,85.3799 132,88.5C 132.333,85.1667 132.667,81.8333 133,78.5C 133.612,75.9683 135.112,75.1349 137.5,76C 138.312,82.0851 138.812,88.2518 139,94.5C 142.252,97.5369 145.752,100.204 149.5,102.5 Z M 42.5,38.5 C 43.5,38.5 44.5,38.5 45.5,38.5C 45.5,39.5 45.5,40.5 45.5,41.5C 44.5,41.5 43.5,41.5 42.5,41.5C 42.5,40.5 42.5,39.5 42.5,38.5 Z M 59.5,38.5 C 61.4646,38.9483 61.7979,39.9483 60.5,41.5C 59.6143,40.675 59.281,39.675 59.5,38.5 Z M 11.5,47.5 C 16.5,47.5 21.5,47.5 26.5,47.5C 26.5,49.1667 26.5,50.8333 26.5,52.5C 21.5,52.5 16.5,52.5 11.5,52.5C 11.5,50.8333 11.5,49.1667 11.5,47.5 Z M 95.5,47.5 C 96.2389,47.369 96.9056,47.5357 97.5,48C 99.8242,51.323 102.491,54.323 105.5,57C 104.584,57.3742 103.75,57.8742 103,58.5C 102.5,67.1603 102.334,75.8269 102.5,84.5C 98.8333,84.5 95.1667,84.5 91.5,84.5C 91.6664,75.8269 91.4998,67.1603 91,58.5C 90.2496,57.8742 89.4162,57.3742 88.5,57C 91.0755,53.9372 93.4088,50.7705 95.5,47.5 Z M 42.5,55.5 C 43.5,55.5 44.5,55.5 45.5,55.5C 45.5,56.5 45.5,57.5 45.5,58.5C 44.5,58.5 43.5,58.5 42.5,58.5C 42.5,57.5 42.5,56.5 42.5,55.5 Z M 59.5,55.5 C 61.4646,55.9483 61.7979,56.9483 60.5,58.5C 59.6143,57.675 59.281,56.675 59.5,55.5 Z M 11.5,57.5 C 16.5,57.5 21.5,57.5 26.5,57.5C 26.5,59.1667 26.5,60.8333 26.5,62.5C 21.5,62.5 16.5,62.5 11.5,62.5C 11.5,60.8333 11.5,59.1667 11.5,57.5 Z M 11.5,67.5 C 16.5,67.5 21.5,67.5 26.5,67.5C 26.5,68.8333 26.5,70.1667 26.5,71.5C 21.5,71.5 16.5,71.5 11.5,71.5C 11.5,70.1667 11.5,68.8333 11.5,67.5 Z M 42.5,73.5 C 43.675,73.281 44.675,73.6143 45.5,74.5C 43.9483,75.7979 42.9483,75.4646 42.5,73.5 Z M 59.5,73.5 C 61.337,73.6395 61.6704,74.3061 60.5,75.5C 59.7025,75.0431 59.3691,74.3764 59.5,73.5 Z M 11.5,76.5 C 16.5,76.5 21.5,76.5 26.5,76.5C 26.5,78.1667 26.5,79.8333 26.5,81.5C 21.5,81.5 16.5,81.5 11.5,81.5C 11.5,79.8333 11.5,78.1667 11.5,76.5 Z M 11.5,86.5 C 16.5,86.5 21.5,86.5 26.5,86.5C 26.5,87.8333 26.5,89.1667 26.5,90.5C 21.5,90.5 16.5,90.5 11.5,90.5C 11.5,89.1667 11.5,87.8333 11.5,86.5 Z M 42.5,90.5 C 43.5,90.5 44.5,90.5 45.5,90.5C 45.5,91.5 45.5,92.5 45.5,93.5C 44.5,93.5 43.5,93.5 42.5,93.5C 42.5,92.5 42.5,91.5 42.5,90.5 Z M 59.5,90.5 C 61.4646,90.9483 61.7979,91.9483 60.5,93.5C 59.6143,92.675 59.281,91.675 59.5,90.5 Z M 93.5,91.5 C 104.326,90.341 115.326,90.1743 126.5,91C 130.533,95.3679 134.866,99.3679 139.5,103C 128.833,103.667 118.167,103.667 107.5,103C 103.275,98.6065 98.6085,94.7732 93.5,91.5 Z M 84.5,91.5 C 91.7571,96.5845 98.5905,102.251 105,108.5C 105.5,120.162 105.667,131.829 105.5,143.5C 102.833,143.5 100.167,143.5 97.5,143.5C 98.0373,138.753 97.0373,134.42 94.5,130.5C 97.2021,126.572 98.0355,122.238 97,117.5C 96.5348,116.069 95.7014,114.903 94.5,114C 88.5,113.333 82.5,113.333 76.5,114C 75.6667,114.833 74.8333,115.667 74,116.5C 73.5002,125.494 73.3336,134.494 73.5,143.5C 70.8333,143.5 68.1667,143.5 65.5,143.5C 65.3335,131.829 65.5001,120.162 66,108.5C 72.3628,102.967 78.5295,97.3007 84.5,91.5 Z M 11.5,95.5 C 16.5,95.5 21.5,95.5 26.5,95.5C 26.5,96.8333 26.5,98.1667 26.5,99.5C 21.5,99.5 16.5,99.5 11.5,99.5C 11.5,98.1667 11.5,96.8333 11.5,95.5 Z M 18.5,104.5 C 21.1667,104.5 23.8333,104.5 26.5,104.5C 26.5,106.167 26.5,107.833 26.5,109.5C 21.5,109.5 16.5,109.5 11.5,109.5C 11.5,108.167 11.5,106.833 11.5,105.5C 14.0593,105.802 16.3926,105.468 18.5,104.5 Z M 42.5,107.5 C 43.5,107.5 44.5,107.5 45.5,107.5C 45.5,108.5 45.5,109.5 45.5,110.5C 44.5,110.5 43.5,110.5 42.5,110.5C 42.5,109.5 42.5,108.5 42.5,107.5 Z M 110.5,110.5 C 120.833,110.5 131.167,110.5 141.5,110.5C 141.5,112.5 141.5,114.5 141.5,116.5C 133.826,116.334 126.159,116.5 118.5,117C 118,117.5 117.5,118 117,118.5C 116.333,123.167 116.333,127.833 117,132.5C 117.5,133 118,133.5 118.5,134C 126.159,134.5 133.826,134.666 141.5,134.5C 141.5,137.5 141.5,140.5 141.5,143.5C 131.167,143.5 120.833,143.5 110.5,143.5C 110.5,132.5 110.5,121.5 110.5,110.5 Z M 11.5,114.5 C 16.5,114.5 21.5,114.5 26.5,114.5C 26.5,115.833 26.5,117.167 26.5,118.5C 21.5,118.5 16.5,118.5 11.5,118.5C 11.5,117.167 11.5,115.833 11.5,114.5 Z M 79.5,119.5 C 83.5,119.5 87.5,119.5 91.5,119.5C 91.112,123.425 91.7787,127.092 93.5,130.5C 91.7208,134.585 91.0542,138.918 91.5,143.5C 87.5,143.5 83.5,143.5 79.5,143.5C 79.5,135.5 79.5,127.5 79.5,119.5 Z M 122.5,121.5 C 123.5,121.5 124.5,121.5 125.5,121.5C 125.5,124.167 125.5,126.833 125.5,129.5C 124.5,129.5 123.5,129.5 122.5,129.5C 122.5,126.833 122.5,124.167 122.5,121.5 Z M 131.5,121.5 C 134.833,121.5 138.167,121.5 141.5,121.5C 141.5,124.167 141.5,126.833 141.5,129.5C 138.167,129.5 134.833,129.5 131.5,129.5C 131.5,126.833 131.5,124.167 131.5,121.5 Z M 17.5,123.5 C 20.5719,123.183 23.5719,123.516 26.5,124.5C 21.0138,126.15 16.8471,129.483 14,134.5C 11.7518,131.649 10.9185,128.315 11.5,124.5C 13.7354,124.795 15.7354,124.461 17.5,123.5 Z M 42.5,125.5 C 43.675,125.281 44.675,125.614 45.5,126.5C 43.9483,127.798 42.9483,127.465 42.5,125.5 Z M 23.5,131.5 C 24.5,131.5 25.5,131.5 26.5,131.5C 26.5,135.5 26.5,139.5 26.5,143.5C 19.4921,143.666 12.4921,143.5 5.5,143C 9.27915,140.172 13.6125,138.672 18.5,138.5C 19.4658,135.531 21.1325,133.198 23.5,131.5 Z"/></g>
<g><path style="opacity:0.894" fill="#89133b" d="M 55.5,32.5 C 67.0639,30.564 70.7306,35.064 66.5,46C 62.2452,46.7961 58.0785,46.6295 54,45.5C 51.6385,40.7295 52.1385,36.3962 55.5,32.5 Z M 59.5,38.5 C 59.281,39.675 59.6143,40.675 60.5,41.5C 61.7979,39.9483 61.4646,38.9483 59.5,38.5 Z"/></g>
<g><path style="opacity:0.94" fill="#891437" d="M 39.5,32.5 C 42.909,32.2493 46.2423,32.5827 49.5,33.5C 53.8333,45.8333 49.8333,49.8333 37.5,45.5C 36.4068,41.8922 36.2401,38.2255 37,34.5C 37.9947,33.9341 38.828,33.2674 39.5,32.5 Z M 42.5,38.5 C 42.5,39.5 42.5,40.5 42.5,41.5C 43.5,41.5 44.5,41.5 45.5,41.5C 45.5,40.5 45.5,39.5 45.5,38.5C 44.5,38.5 43.5,38.5 42.5,38.5 Z"/></g>
<g><path style="opacity:0.903" fill="#8a1439" d="M 37.5,50.5 C 41.5138,50.3345 45.5138,50.5012 49.5,51C 50.4637,55.0659 50.797,59.2325 50.5,63.5C 37.8289,67.3454 33.4956,63.0121 37.5,50.5 Z M 42.5,55.5 C 42.5,56.5 42.5,57.5 42.5,58.5C 43.5,58.5 44.5,58.5 45.5,58.5C 45.5,57.5 45.5,56.5 45.5,55.5C 44.5,55.5 43.5,55.5 42.5,55.5 Z"/></g>
<g><path style="opacity:0.862" fill="#891439" d="M 54.5,50.5 C 58.5138,50.3345 62.5138,50.5012 66.5,51C 70.7323,62.0984 67.0657,66.4317 55.5,64C 51.836,59.8297 51.5027,55.3297 54.5,50.5 Z M 59.5,55.5 C 59.281,56.675 59.6143,57.675 60.5,58.5C 61.7979,56.9483 61.4646,55.9483 59.5,55.5 Z"/></g>
<g><path style="opacity:0.924" fill="#8a1439" d="M 54.5,67.5 C 66.9861,65.1391 70.6527,69.6391 65.5,81C 53.2218,83.6246 49.5551,79.1246 54.5,67.5 Z M 59.5,73.5 C 59.3691,74.3764 59.7025,75.0431 60.5,75.5C 61.6704,74.3061 61.337,73.6395 59.5,73.5 Z"/></g>
<g><path style="opacity:0.895" fill="#891538" d="M 38.5,67.5 C 42.4367,67.2065 46.27,67.5399 50,68.5C 50.7961,72.7548 50.6295,76.9215 49.5,81C 36.7556,83.7608 33.089,79.2608 38.5,67.5 Z M 42.5,73.5 C 42.9483,75.4646 43.9483,75.7979 45.5,74.5C 44.675,73.6143 43.675,73.281 42.5,73.5 Z"/></g>
<g><path style="opacity:0.916" fill="#8a1437" d="M 39.5,84.5 C 42.909,84.2493 46.2423,84.5827 49.5,85.5C 53.8333,97.8333 49.8333,101.833 37.5,97.5C 36.4068,93.8922 36.2401,90.2255 37,86.5C 37.9947,85.9341 38.828,85.2674 39.5,84.5 Z M 42.5,90.5 C 42.5,91.5 42.5,92.5 42.5,93.5C 43.5,93.5 44.5,93.5 45.5,93.5C 45.5,92.5 45.5,91.5 45.5,90.5C 44.5,90.5 43.5,90.5 42.5,90.5 Z"/></g>
<g><path style="opacity:0.948" fill="#8a1437" d="M 54.5,84.5 C 58.7675,84.203 62.9341,84.5363 67,85.5C 67.7961,89.7548 67.6295,93.9215 66.5,98C 61.9132,98.7991 57.4132,98.6324 53,97.5C 51.9784,92.8711 52.4784,88.5377 54.5,84.5 Z M 59.5,90.5 C 59.281,91.675 59.6143,92.675 60.5,93.5C 61.7979,91.9483 61.4646,90.9483 59.5,90.5 Z"/></g>
<g><path style="opacity:0.908" fill="#891438" d="M 37.5,102.5 C 41.5138,102.334 45.5138,102.501 49.5,103C 50.4637,107.066 50.797,111.233 50.5,115.5C 37.8289,119.345 33.4956,115.012 37.5,102.5 Z M 42.5,107.5 C 42.5,108.5 42.5,109.5 42.5,110.5C 43.5,110.5 44.5,110.5 45.5,110.5C 45.5,109.5 45.5,108.5 45.5,107.5C 44.5,107.5 43.5,107.5 42.5,107.5 Z"/></g>
<g><path style="opacity:0.893" fill="#891437" d="M 38.5,119.5 C 42.4367,119.207 46.27,119.54 50,120.5C 50.7961,124.755 50.6295,128.921 49.5,133C 36.819,135.82 33.1524,131.32 38.5,119.5 Z M 42.5,125.5 C 42.9483,127.465 43.9483,127.798 45.5,126.5C 44.675,125.614 43.675,125.281 42.5,125.5 Z"/></g>
</svg>
