<?xml version="1.0" encoding="utf-8"?>
<!-- Generator: Adobe Illustrator 27.9.0, SVG Export Plug-In . SVG Version: 6.00 Build 0)  -->
<svg version="1.1" id="Layer_1" xmlns="http://www.w3.org/2000/svg" xmlns:xlink="http://www.w3.org/1999/xlink" x="0px" y="0px"
	 viewBox="0 0 256 256" style="enable-background:new 0 0 256 256;" xml:space="preserve">
<style type="text/css">
	.st0{fill:#8A1538;}
</style>
<g transform="translate(0.000000,256.000000) scale(0.100000,-0.100000)">
	<path class="st0" d="M510,2173c-36-13-40-35-40-195v-158H312c-191,0-192,0-192-104c0-62-2-67-26-76c-34-13-31-63,4-68
		c19-3,22-10,22-43s-4-41-26-49c-34-13-31-63,4-68c19-3,22-10,22-43s-4-41-25-49c-35-13-35-57,0-70c21-8,25-16,25-49s-3-40-22-43
		c-35-5-38-55-4-68c22-8,26-16,26-49s-3-40-23-43c-34-5-37-55-3-68c22-8,26-16,26-49s-3-40-22-43c-35-5-38-55-4-68c22-8,26-16,26-49
		s-3-40-22-43c-35-5-38-55-4-68c22-8,26-16,26-49s-4-40-25-45c-35-9-35-53,0-66c24-9,25-12,25-111V238l-50-45c-33-30-54-58-62-85
		C-3,69-3,66,24,44l27-24h1210c1196,0,1209,0,1229,20c19,19,20,33,20,330v311l27,23c40,34,26,60-81,151l-94,80l-4,150l-3,150h-30
		h-30l-3-112c-1-62-5-113-8-113s-27,18-53,40c-38,32-59,42-99,47l-52,6v376c0,392-1,401-42,401c-10,0-18,3-18,6c0,6,116,149,155,192
		c9,10,28-6,91-83c43-53,81-100,82-106c2-5-6-9-17-9c-38,0-41-29-39-282l3-243h30h30l3,228l2,227h26c41,0,64,18,64,49
		c0,21-27,62-110,162c-123,150-138,163-167,152c-12-5-73-71-137-148c-86-103-116-146-116-167c0-30,23-48,64-48h26v-355v-355h-85h-85
		v195v195h29c29,0,61,29,61,56c0,16-227,291-250,304c-10,5-26,7-35,4c-27-11-255-287-255-310c0-28,30-54,63-54h27v-193
		c0-191,0-194-22-204c-13-6-48-32-78-58l-55-48l-5,419c-3,230-8.3,394.5-7,396.2c1.5,1.9-12.1,27.7-30,25.8l-1.5-0.2
		c-15.1-1.6-26.6-14.3-26.7-29.5L1252,1370l-3-455l-73-62l-73-63h-76c-92,0-97-6-97-109c0-85,12-101,76-101h44v-40c0-40,0-40-38-40
		c-21,0-48-7-60-16c-20-13-22-24-22-94s2-81,22-94c12-9,40-16,61-16h38l-3-93l-3-92l-252-3l-253-2v1005v1005h355h354l3-77
		c3-74,4-78,27-81c34-5,41,12,41,109c0,133,32,124-419,126C694,2178,518,2176,510,2173z M1750,1665c77-94,81-100,59-105
		c-43-10-49-40-49-263v-208l-102,3l-103,3l-3,219c-2,225-6,246-43,246c-11,0-19,3-19,6c0,10,165,203,172,201
		C1665,1766,1705,1720,1750,1665z M470,1695v-55H330H190v55v55h140h140V1695z M470,1525v-45H330H190v45v45h140h140V1525z M470,1365
		v-45H330H190v45v45h140h140V1365z M470,1205v-45H330H190v45v45h140h140V1205z M470,1045v-45H330H190v45v45h140h140V1045z M2296,899
		c76-67,141-126,142-130c2-5-128-9-288-9h-292l-121,107c-67,58-133,117-147,130l-25,23h296h296L2296,899z M1653,847l157-138V399V90
		h-80h-80v74c0,90-5,106-35,106s-35-16-35-106V90h-115h-115v215v215h115h115v-54c0-69,7-86,35-86c29,0,35,16,35,99
		c0,110-2,111-184,111c-135,0-155-2-169-18s-17-52-19-248l-3-229l-77-3l-78-3v313l1,313l171,148c147,128,173,146,187,135
		C1488,991,1566,923,1653,847z M470,885v-45H330H190v45v45h140h140V885z M470,725v-45H330H190v45v45h140h140V725z M1048,688
		c-2-25-8-34-25-36c-20-3-23,1-23,32c0,32,3,36,26,36S1051,717,1048,688z M2438,623l3-63h-188c-247,0-233,9-233-156
		c0-124,0-124,26-134c14-6,108-10,210-10h184v-85V90h-167c-93,0-219,3-280,7l-113,6v287c0,158,3,290,7,293c4,4,128,6,277,5l271-3
		L2438,623z M470,565v-45H330H190v45v45h140h140V565z M2168,408l-3-73l-37-3l-38-3v75v76h40h41L2168,408z M2440,405v-76l-102,3
		l-103,3l-3,59c-2,32-1,65,2,72c4,11,30,14,106,14h100V405z M470,426c0-25-6-29-66-41c-38-7-109-66-130-106c-12-24-21-29-49-29h-35
		v100v100h140h140V426z M1045,390c0-28-4-35-20-35c-13,0-21,8-23,23c-5,34,5,54,25,50C1040,426,1045,415,1045,390z M468,208l-3-113
		l-192-3c-113-1-193,1-193,7c0,15,69,70,96,77c14,4,48,4,75,1l50-6l18,42c28,64,77,104,129,106C470,320,471,319,468,208z"/>
	<path class="st0" d="M666,1964c-20-19-23-163-4-182c7-7,43-12,93-12s86,5,93,12s12,43,12,93s-5,86-12,93
		C829,1987,685,1984,666,1964z M790,1875c0-33-2-35-35-35s-35,2-35,35s2,35,35,35S790,1908,790,1875z"/>
	<path class="st0" d="M946,1964c-12-11-16-35-16-85c0-104,4-109,103-109c51,0,88,5,95,12c16,16,16,170,0,186
		C1109,1987,965,1984,946,1964z M1070,1875c0-33-2-35-35-35s-35,2-35,35s2,35,35,35S1070,1908,1070,1875z"/>
	<path class="st0" d="M662,1668c-7-7-12-43-12-89c0-100,8-109,101-109c104,0,109,4,109,103c0,51-5,88-12,95s-43,12-93,12
		S669,1675,662,1668z M786,1606c1,0,4-16,7-33l7-33h-45h-45v40v41l38-7C768,1610,785,1607,786,1606z"/>
	<path class="st0" d="M940,1661c-17-32-13-157,6-175c19-20,163-23,182-4c7,7,12,43,12,93s-5,86-12,93s-44,12-95,12
		C962,1680,949,1677,940,1661z M1070,1575c0-33-2-35-35-35s-35,2-35,35s2,35,35,35S1070,1608,1070,1575z"/>
	<path class="st0" d="M672,1374c-20-13-22-24-22-94c0-97,12-110,105-110s105,13,105,110c0,101-8,110-98,110
		C717,1390,687,1385,672,1374z M790,1280c0-39-1-40-35-40s-35,1-35,40s1,40,35,40S790,1319,790,1280z"/>
	<path class="st0" d="M952,1374c-20-13-22-24-22-94c0-98,12-110,108-110c98,0,102,4,102,110c0,78-2,91-19,100
		C1090,1396,978,1392,952,1374z M1070,1279c0-39-1-40-32-37c-30,3-33,6-36,41c-3,36-3,37,32,37S1070,1319,1070,1279z"/>
	<path class="st0" d="M666,1074c-20-19-23-163-4-182c7-7,43-12,93-12s86,5,93,12s12,43,12,93s-5,86-12,93
		C829,1097,685,1094,666,1074z M790,985c0-33-2-35-35-35s-35,2-35,35s2,35,35,35S790,1018,790,985z"/>
	<path class="st0" d="M942,1078c-7-7-12-44-12-94c0-103,11-114,112-114c94,0,108,15,108,114s-7,106-114,106
		C986,1090,949,1085,942,1078z M1070,985c0-33-2-35-35-35s-35,2-35,35s2,35,35,35S1070,1018,1070,985z"/>
	<path class="st0" d="M662,778c-7-7-12-43-12-89c0-100,8-109,101-109c104,0,109,4,109,103c0,51-5,88-12,95s-43,12-93,12
		S669,785,662,778z M790,685c0-33-2-35-35-35s-35,2-35,35s2,35,35,35S790,718,790,685z"/>
	<path class="st0" d="M673,485c-21-14-23-25-23-95c0-99,12-110,112-110c90,0,98,9,98,108c0,42-5,84-10,92C836,502,702,506,673,485z
		 M790,390c0-39-1-40-35-40s-35,1-35,40s1,40,35,40S790,429,790,390z"/>
</g>
</svg>
