<?xml version="1.0" encoding="UTF-8"?>
<!DOCTYPE svg PUBLIC "-//W3C//DTD SVG 1.1//EN" "http://www.w3.org/Graphics/SVG/1.1/DTD/svg11.dtd">
<svg xmlns="http://www.w3.org/2000/svg" version="1.1" width="150px" height="150px" style="shape-rendering:geometricPrecision; text-rendering:geometricPrecision; image-rendering:optimizeQuality; fill-rule:evenodd; clip-rule:evenodd"
  xmlns:xlink="http://www.w3.org/1999/xlink">
  <g>
    <path fill="#8A1538" d="M 24.5,-0.5 C 30.8333,-0.5 37.1667,-0.5 43.5,-0.5C 56.1504,3.31807 64.3171,11.6514 68,24.5C 71.5,21 75,17.5 78.5,14C 83.91,11.6345 88.91,12.3012 93.5,16C 98.164,21.4972 103.164,26.6639 108.5,31.5C 109.214,28.9728 109.88,26.4728 110.5,24C 117.5,23.3333 124.5,23.3333 131.5,24C 132.321,34.4234 132.821,44.9234 133,55.5C 138.369,61.0363 143.869,66.3697 149.5,71.5C 149.5,73.5 149.5,75.5 149.5,77.5C 145.869,80.6293 142.369,83.9626 139,87.5C 138.5,102.163 138.333,116.83 138.5,131.5C 141.365,131.055 143.865,131.722 146,133.5C 146.733,138.885 146.567,144.218 145.5,149.5C 104.833,149.5 64.1667,149.5 23.5,149.5C 23.3339,143.824 23.5006,138.157 24,132.5C 26.3806,131.565 28.8806,131.232 31.5,131.5C 31.6666,117.163 31.4999,102.829 31,88.5C 26.3727,84.5505 22.206,80.2171 18.5,75.5C 19.8974,72.5935 21.8974,70.0935 24.5,68C 11.6253,64.2906 3.29195,56.1239 -0.5,43.5C -0.5,37.1667 -0.5,30.8333 -0.5,24.5C -0.209685,21.4721 1.45698,19.4721 4.5,18.5C 8.52106,20.2024 9.3544,22.869 7,26.5C 5.16667,51.3333 16.6667,62.8333 41.5,61C 57.3286,54.897 63.8286,43.397 61,26.5C 53.5202,9.27601 40.6869,3.27601 22.5,8.5C 18.5242,6.92237 17.8575,4.58904 20.5,1.5C 22.0255,1.00569 23.3588,0.339027 24.5,-0.5 Z M 68.5,43.5 C 68.767,39.2538 69.767,35.2538 71.5,31.5C 75.6516,27.8489 79.6516,24.0156 83.5,20C 84.5,19.3333 85.5,19.3333 86.5,20C 104.833,38.3333 123.167,56.6667 141.5,75C 140,76.5 138.5,78 137,79.5C 119.972,62.1378 102.638,45.1378 85,28.5C 79.0053,32.9966 73.5053,37.9966 68.5,43.5 Z M 21.5,25.5 C 26.984,25.4382 28.8174,28.1048 27,33.5C 26,34.8333 25,36.1667 24,37.5C 19.7361,34.044 18.9027,30.044 21.5,25.5 Z M 42.5,25.5 C 44.6648,25.1159 46.3315,25.7826 47.5,27.5C 45.9547,28.4519 44.288,28.7852 42.5,28.5C 42.5,27.5 42.5,26.5 42.5,25.5 Z M 116.5,30.5 C 119.5,30.5 122.5,30.5 125.5,30.5C 125.666,36.5092 125.499,42.5092 125,48.5C 122.732,45.6426 120.232,42.9759 117.5,40.5C 116.513,37.2317 116.18,33.8984 116.5,30.5 Z M 84.5,38.5 C 99.7985,53.2982 114.965,68.2982 130,83.5C 130.5,99.4965 130.667,115.497 130.5,131.5C 121.167,131.5 111.833,131.5 102.5,131.5C 102.814,118.45 102.481,105.45 101.5,92.5C 90.1862,91.5012 78.8529,91.1678 67.5,91.5C 67.5,104.833 67.5,118.167 67.5,131.5C 57.8333,131.5 48.1667,131.5 38.5,131.5C 38.3334,115.83 38.5001,100.163 39,84.5C 54.0071,68.993 69.1737,53.6597 84.5,38.5 Z M 83.5,65.5 C 89.8948,66.8732 91.5615,70.3732 88.5,76C 81.6907,78.1959 78.8574,75.6959 80,68.5C 81.1451,67.3636 82.3117,66.3636 83.5,65.5 Z M 43.5,68.5 C 40.2039,72.2976 36.7039,75.9643 33,79.5C 31.1667,78.3333 29.6667,76.8333 28.5,75C 32.264,70.1817 37.264,68.015 43.5,68.5 Z M 74.5,97.5 C 81.5,97.5 88.5,97.5 95.5,97.5C 95.5,108.833 95.5,120.167 95.5,131.5C 88.5,131.5 81.5,131.5 74.5,131.5C 74.5,120.167 74.5,108.833 74.5,97.5 Z M 30.5,138.5 C 66.8333,138.5 103.167,138.5 139.5,138.5C 139.5,140.167 139.5,141.833 139.5,143.5C 103.167,143.5 66.8333,143.5 30.5,143.5C 30.5,141.833 30.5,140.167 30.5,138.5 Z"/>
  </g>
  <g>
    <path fill="#8A1538" d="M 10.5,7.5 C 15.3323,8.64804 16.3323,11.148 13.5,15C 7.43815,14.4509 6.43815,11.9509 10.5,7.5 Z"/>
  </g>
  <g>
    <path fill="#8A1538" d="M 21.5,19.5 C 32.039,19.2199 35.8723,24.2199 33,34.5C 32.028,36.3049 30.8613,37.9716 29.5,39.5C 33.4677,41.2345 34.301,43.9012 32,47.5C 25.9794,44.7206 20.3128,41.3873 15,37.5C 12.5354,31.4573 13.3687,25.9573 17.5,21C 19.0581,20.79 20.3915,20.29 21.5,19.5 Z M 21.5,25.5 C 18.9027,30.044 19.7361,34.044 24,37.5C 25,36.1667 26,34.8333 27,33.5C 28.8174,28.1048 26.984,25.4382 21.5,25.5 Z"/>
  </g>
  <g>
    <path fill="#8A1538" d="M 35.5,20.5 C 40.5111,20.3341 45.5111,20.5007 50.5,21C 54.4227,25.2606 54.4227,29.594 50.5,34C 51.9284,36.1847 53.5951,38.1847 55.5,40C 53.6354,41.3014 51.6354,41.6347 49.5,41C 46.7808,39.4033 44.6141,37.2366 43,34.5C 42.5045,36.4727 42.3379,38.4727 42.5,40.5C 40.1667,40.5 37.8333,40.5 35.5,40.5C 35.5,33.8333 35.5,27.1667 35.5,20.5 Z M 42.5,25.5 C 42.5,26.5 42.5,27.5 42.5,28.5C 44.288,28.7852 45.9547,28.4519 47.5,27.5C 46.3315,25.7826 44.6648,25.1159 42.5,25.5 Z"/>
  </g>
  <g>
    <path fill="#8A1538" d="M 80.5,58.5 C 93.1421,57.9749 98.6421,63.9749 97,76.5C 93.307,83.7588 87.4736,86.2588 79.5,84C 71.5446,79.524 69.3779,73.024 73,64.5C 75.1337,61.8474 77.6337,59.8474 80.5,58.5 Z M 83.5,65.5 C 82.3117,66.3636 81.1451,67.3636 80,68.5C 78.8574,75.6959 81.6907,78.1959 88.5,76C 91.5615,70.3732 89.8948,66.8732 83.5,65.5 Z"/>
  </g>
</svg>
