<?xml version="1.0" encoding="utf-8"?>
<!-- Generator: Adobe Illustrator 27.9.0, SVG Export Plug-In . SVG Version: 6.00 Build 0)  -->
<svg version="1.1" id="Layer_1" xmlns="http://www.w3.org/2000/svg" xmlns:xlink="http://www.w3.org/1999/xlink" x="0px" y="0px"
	 viewBox="0 0 256 256" style="enable-background:new 0 0 256 256;" xml:space="preserve">
<style type="text/css">
	.st0{fill:#8A1538;}
	.st1{enable-background:new    ;}
</style>
<g transform="translate(0.000000,256.000000) scale(0.100000,-0.100000)">
	<g>
		<path class="st0" d="M480,2549c-84-14-125-38-125-73c0-46,22-53,107-33c181,43,348-2,472-127c194-194,194-498,1-691
			s-497-193-690,0c-126,126-171,292-128,473c20,85,13,107-33,107c-37,0-59-41-75-145c-18-115,5-262,56-360c29-55,107-149,157-188
			c56-43,154-95,202-106l28-7l-56-59c-31-32-56-64-56-71s47-60,105-118l105-105V673V300h-54c-78,0-86-15-86-150c0-79,4-111,16-128
			l15-22h1009c904,0,1010,2,1024,16c13,12,16,40,16,134c0,142-5,150-86,150h-54v374v373l105,103c63,63,105,112,105,124
			s-58,78-150,171l-150,151v255c0,235-1,257-18,272c-16,14-43,17-168,17c-189,0-194-3-194-98v-66l-163,161c-163,162-205,193-266,193
			c-54,0-85-20-187-121l-101-100l-20,60c-12,33-42,92-68,131C948,2491,716,2588,480,2549z M1962,1753l478-478l-50-50l-50-50
			l-433,433c-276,275-440,432-452,432s-78-58-167-147c-82-81-148-143-148-137s6,29,14,51s17,71,21,109l7,69l121,123
			c102,102,127,122,152,122C1481,2230,1545,2170,1962,1753z M2160,1868v-173l-90,90l-90,90v82v83h90h90V1868z M2250,713V300h-255
			h-255v329c0,286-2,332-16,345c-13,14-52,16-274,16c-256,0-259,0-274-22c-14-19-16-69-16-345V300H905H650v407v408l402,402l403,403
			l397-397l398-398V713z M690,1295l-125-125l-50,50l-50,50l54,54c52,53,55,54,125,61c39,4,87,13,106,20s42,13,50,14
			C808,1419,759,1364,690,1295z M1640,595V300h-190h-190v295v295h190h190V595z M2390,150v-50h-940H510v50v50h940h940V150z"/>
		<path class="st0" d="M1365,1521c-128-58-164-223-72-328c95-108,266-92,338,31c26,45,30,59,27,116c-3,51-10,74-32,107
			C1571,1529,1454,1562,1365,1521z M1503,1429c39-20,57-51,57-99c0-69-43-110-115-110c-55,0-105,53-105,110
			C1340,1411,1431,1466,1503,1429z"/>
		<path class="st0" d="M176,2384c-21-21-20-47,3-68c41-37,97,14,66,60C227,2404,199,2407,176,2384z"/>
	</g>
</g>
<g class="st1">
	<path class="st0" d="M33.9,71.9c-7.1-1.9-11.3-7.5-11.3-16.3c0-10.3,6.3-17.6,17.2-17.6C50.7,38,57,44.6,57,55.3
		c0,8.3-4.1,14.9-12.6,16.4c3.6,2.6,7.9,4.8,11.7,4.8c1.1,0,2.9-0.4,4-1l1,5.2c-1.9,1.2-4.2,1.6-6.5,1.6
		C47.1,82.4,40,75.1,33.9,71.9z M39.7,66.7c3,0,6.2-1.2,7.6-2.4c1.4-2.2,2-6,2-8.8c0-6.2-3.1-11.7-9.7-11.7c-2.8,0-5.9,1.1-7.4,2.4
		c-1.4,2.1-2.1,6.1-2.1,9C30.2,61.2,33.1,66.7,39.7,66.7z"/>
	<path class="st0" d="M62.4,38.7h13.2c11,0,14.3,4,14.3,10.4c0,5.1-2.8,8.4-7.1,9.9l8.4,13h-9l-7-11.7h-5.2V72h-7.5V38.7z
		 M75.6,54.6c2.8,0,4.4-0.4,5.6-0.8c0.8-1.2,1.2-2.6,1.2-4.4c0-2.9-1.5-4.9-6.8-4.9h-5.7v10.2H75.6z"/>
</g>
</svg>
