<?xml version="1.0" encoding="utf-8"?>
<!-- Generator: Adobe Illustrator 27.9.0, SVG Export Plug-In . SVG Version: 6.00 Build 0)  -->
<svg version="1.1" id="Layer_1" xmlns="http://www.w3.org/2000/svg" xmlns:xlink="http://www.w3.org/1999/xlink" x="0px" y="0px"
	 viewBox="0 0 256 256" style="enable-background:new 0 0 256 256;" xml:space="preserve">
<style type="text/css">
	.st0{fill:#8A1538;}
	.st1{enable-background:new    ;}
</style>
<g transform="translate(0.000000,256.000000) scale(0.100000,-0.100000)">
	<path class="st0" d="M1485.9,2176.3c-26.5-4.9-52.6-21.8-60.5-47.5l-0.4-9.1c-3-2.6,0,0-0.1-4L1422,1906l-2.8-202
		c-0.1-7.8-6.4-14-14.2-14h-161c-198,0-217,5-229,67c-13,72-61,113-132,113c-69,0-133-62-133-129c0-11-14-27-36-40
		c-47-28-79-98-70-153c6-36,3-44-29-79c-20-22-38-53-42-70c-8-41-27-31-34,20c-11,79-72,135-149,135c-79,0-138-55-147-138
		c-4-28-11-46-19-46c-18,0-73-48-88-79c-20-40-27-93-16-129c8-31,6-36-27-65c-20-17-42-46-49-64c-29-68-9-168,43-215
		c27-25,104-58,136-58c16,0,27-4,25-8c-1-4-36-64-75-134c-81-140-89-173-48-214l19.8-19.8c2.7-2.7,6.3-4.2,10.1-4.2l824.1,2
		c719.4-7.5,827.2-23,855.2-2c41,31,694.8,1185,695.8,1226c0,18-9,42-19,55c-17,22-29,24-128,29l-94.8,4.4
		c-7.4,0.3-13.4,6.4-13.5,13.8L2270,1913l-4.9,212.7c-0.1,4-10.3,26.6-13.4,29.2l8.4-18.7c-4.5,20-20.4,35.4-40.5,39.2l14.3-5
		c-2.6,2.2-26.9,9.7-30.2,9.7H1850h-354.5c-3.5,0-29.1-8.4-31.7-10.7L1485.9,2176.3z M2210,2101c16-30,14-572-2-594
		c-11-14-36-17-158-19l-131.4-2.7c-7.6-0.2-13.7-6.3-13.9-13.9L1902,1328l-2.7-144.1c-0.1-7.7-6.5-13.9-14.2-13.9H1850h-35.1
		c-7.7,0-14,6.2-14.2,13.9L1798,1328l-2.7,143.4c-0.1,7.6-6.3,13.8-13.9,13.9L1651,1488c-86,1-150,7-158,14c-18,15-19,588-1,606
		c9,9,103,12,360,12C2185,2120,2200,2119,2210,2101z M914,1809c29-14,46-51,43-98c-2-30,2-35,27-42c68-19,98-80,71-145
		c-16-38-16-39,6-54c59-41,79-68,79-109c0-100-142-154-214-82l-10.6,11.1c-5.3,5.5-5.2,14.2,0.1,19.7L943,1338c20,21,37,46,37,55
		c0,22-27,34-43,18c-21-21-27-11-27,54c0,60,3,68,35,104c19,21,35,45,35,54c0,22-25,28-49,11c-20-15-21-14-21,30c0,42-2,46-24,46
		c-29,0-36-20-36-118c0-70-1-72-21-62c-15,9-24,8-35-1c-20-17-18-25,21-68c33-36,35-42,35-109c0-63-3-73-22-86c-50-32-122-24-164,18
		c-27,27-34,42-34,74c0,45,28,88,67,103c26,10,27,14,7,92c-11,45,13,86,65,111c44,20,46,23,43,58c-4,44,11,76,41,88
		S885,1822,914,1809z M1422,1558c5-65,9-75,37-100c31-28,33-28,161-28h115.8c7.8,0,14.2-6.4,14.2-14.2V1300v-115.8
		c0-7.8-6.4-14.2-14.2-14.2H1723c-37,0-56-13-51-36c3-18,16-19,176-22c153-2,173-1,179,14c8,21-21,44-54,44c-23,0-23,1-23,129v115.2
		c0,7.7,6.1,14,13.8,14.2l122.2,3.6c135,3,136,3,160,31c20,24,24,39,24,98v54.8c0,7.8,6.4,14.2,14.2,14.2h84.8
		c46.3,0,74.4-1.7,89.6-5.2c8.8-2.1,13.4-11.7,9.5-19.9C2409.4,1483.3,1846,500.8,1812,463l-15.8-18.1c-2.7-3.1-6.6-4.9-10.7-4.9
		H977c-670,0-816,2-820,13c-6,16,172,329,191,335c9,3,12-19,12-87c0-85-1-91-20-91c-25,0-36-25-20-45c17-21,123-21,140,0
		c16,20,5,45-20,45c-19,0-20,6-20,91c0,83,2,90,17,84c51-22,115-29,161-17c161,43,210,223,90,332c-26,24-29,32-23,63l4.5,22.6
		c1.4,7.1,7.9,12,15.1,11.4l45.4-3.9c32-3,72-1,89,5l12.1,4.3c9.2,3.3,18.9-3.6,18.9-13.4v-45c0-56-3-69-22-84s-20-20-9-34
		c16-19,111-22,129-4c14,14-2,48-23,48c-12,0-15,15-15,71c0,64,2,70,18,64c33-14,120-17,155-6c20,7,51,30,71,51c61,68,61,153-2,219
		c-35,37-37,41-34,100l2.3,47.5c0.4,7.6,6.6,13.5,14.2,13.5H1269h134.8c7.5,0,13.6-5.8,14.2-13.2L1422,1558z M450,1474
		c27-24,31-33,30-73c-3-68-3-67,38-79c78-24,115-108,77-178c-15-27-16-36-5-49c7-8,18-15,25-15c18,0,73-65,81-96
		c11-42-13-101-52-131c-49-37-134-43-182-13c-50,31-50,46-3,94c46,47,55,86,19,86c-12,0-30-7-40-17c-17-15-18-13-18,73v84
		c0,3.8,1.5,7.5,4.3,10.2L460,1205c22,21,40,47,40,57c0,29-28,33-56,8l0,0c-9-8.6-24-2.3-24,10.2v23.8c0,60-16,80-45,56
		c-12-10-15-38-15-128v-81.8c0-12.5-15-18.9-24-10.2l0,0c-28,25-56,21-56-8c0-10,18-36,40-57l35.7-34.8c2.7-2.7,4.3-6.3,4.3-10.2
		v-80v-77.7c0-5.1-2.8-9.8-7.2-12.4L321,842C205,777,58,870,90,989c10,37,19,48,90,100l15.3,12.1c5.1,4,6.8,11,4.1,16.9l-13.4,30
		c-34,75-1,148,79,176c40,13,40,13,37,60C295,1482,379,1533,450,1474z"/>
</g>
<path class="st0" d="M176.3,49.4c-20,5.4-26.6,30.6-11.9,45.3c15.6,15.7,41.7,7.3,45.8-14.6c2.5-13.5-6.3-27.1-19.9-30.7
	C185.1,48,181.5,48,176.3,49.4z M193.7,53.4c5.1,2.4,9.6,6.8,12,12c1.6,3.4,1.9,5,1.9,10.1c0,7.3-2,12.5-6.8,17.3s-9.9,6.8-17.3,6.8
	c-5.1,0-6.8-0.3-10.1-1.9c-20.2-9.4-18.3-38.9,2.9-45.6C181.1,50.6,188.7,51.2,193.7,53.4z"/>
<g class="st1">
	<path class="st0" d="M170.8,83.6c-4.1-1.1-6.4-4.3-6.4-9.3c0-5.9,3.6-10.1,9.9-10.1c6.2,0,9.8,3.8,9.8,9.9c0,4.7-2.4,8.5-7.2,9.4
		c2.1,1.5,4.5,2.7,6.7,2.7c0.6,0,1.6-0.2,2.3-0.5l0.5,3c-1.1,0.7-2.4,0.9-3.7,0.9C178.4,89.6,174.3,85.5,170.8,83.6z M174.2,80.7
		c1.7,0,3.5-0.7,4.4-1.4c0.8-1.2,1.1-3.4,1.1-5c0-3.5-1.8-6.7-5.5-6.7c-1.6,0-3.4,0.6-4.2,1.4c-0.8,1.2-1.2,3.5-1.2,5.2
		C168.7,77.5,170.4,80.7,174.2,80.7z"/>
	<path class="st0" d="M187.2,64.7h7.5c6.3,0,8.2,2.3,8.2,6c0,2.9-1.6,4.8-4.1,5.7l4.8,7.4h-5.2l-4-6.7h-3v6.7h-4.3V64.7z
		 M194.7,73.7c1.6,0,2.5-0.2,3.2-0.5c0.5-0.7,0.7-1.5,0.7-2.5c0-1.7-0.9-2.8-3.9-2.8h-3.3v5.8H194.7z"/>
</g>
</svg>
