<?xml version="1.0" encoding="UTF-8"?>
<!DOCTYPE svg PUBLIC "-//W3C//DTD SVG 1.1//EN" "http://www.w3.org/Graphics/SVG/1.1/DTD/svg11.dtd">
<svg xmlns="http://www.w3.org/2000/svg" version="1.1" width="150px" height="153px" style="shape-rendering:geometricPrecision; text-rendering:geometricPrecision; image-rendering:optimizeQuality; fill-rule:evenodd; clip-rule:evenodd" xmlns:xlink="http://www.w3.org/1999/xlink">
<g><path style="opacity:0.885" fill="#8a1537" d="M 149.5,52.5 C 149.5,54.8333 149.5,57.1667 149.5,59.5C 136.441,81.273 123.608,103.273 111,125.5C 109.048,127.894 106.548,129.394 103.5,130C 71.5,130.667 39.5,130.667 7.5,130C 5.1975,128.865 3.86416,127.032 3.5,124.5C 5.62124,118.924 8.28791,113.591 11.5,108.5C 6.32807,106.929 2.32807,103.929 -0.5,99.5C -0.5,96.5 -0.5,93.5 -0.5,90.5C 1.26589,88.2294 3.26589,86.0627 5.5,84C 3.48561,77.5265 5.48561,72.6931 11.5,69.5C 14.2999,58.0116 20.4666,55.6783 30,62.5C 30.8624,64.087 31.5291,65.7536 32,67.5C 32.9533,65.5448 34.2866,63.8782 36,62.5C 36.2463,59.1103 36.7463,55.777 37.5,52.5C 41.0911,50.8266 43.0911,47.9933 43.5,44C 47.0592,39.2549 51.3925,38.4216 56.5,41.5C 58.2392,44.3641 59.9059,47.1974 61.5,50C 68.4921,50.4996 75.4921,50.6663 82.5,50.5C 82.3336,41.8269 82.5002,33.1603 83,24.5C 83.8333,23.6667 84.6667,22.8333 85.5,22C 100.5,21.3333 115.5,21.3333 130.5,22C 132.32,22.9794 133.487,24.4794 134,26.5C 134.5,34.4931 134.666,42.4931 134.5,50.5C 139.692,50.0912 144.692,50.7579 149.5,52.5 Z M 87.5,26.5 C 101.412,26.1767 115.246,26.5101 129,27.5C 129.667,38.8333 129.667,50.1667 129,61.5C 122.924,62.4764 116.758,62.8097 110.5,62.5C 110.5,68.8333 110.5,75.1667 110.5,81.5C 109.167,81.5 107.833,81.5 106.5,81.5C 106.666,75.4908 106.499,69.4908 106,63.5C 99.9242,62.5236 93.7576,62.1903 87.5,62.5C 87.5,50.5 87.5,38.5 87.5,26.5 Z M 98.5,50.5 C 101.871,51.5757 105.204,52.5757 108.5,53.5C 108.672,51.5082 108.005,49.8415 106.5,48.5C 110.599,40.319 108.266,36.319 99.5,36.5C 100.981,35.5197 102.315,34.353 103.5,33C 109.005,31.0534 113.671,32.3867 117.5,37C 114.854,37.4974 112.187,37.6641 109.5,37.5C 109.5,41.8333 109.5,46.1667 109.5,50.5C 110.833,50.5 112.167,50.5 113.5,50.5C 113.343,49.1266 113.51,47.7932 114,46.5C 114.833,48.6667 116.333,50.1667 118.5,51C 114.518,56.3283 109.518,57.9949 103.5,56C 100.921,54.9243 99.2543,53.091 98.5,50.5 Z M 101.5,40.5 C 104.839,42.1474 105.173,44.1474 102.5,46.5C 101.28,46.1131 100.613,45.2798 100.5,44C 100.989,42.8615 101.322,41.6948 101.5,40.5 Z M 50.5,44.5 C 53.6537,45.4739 54.6537,47.4739 53.5,50.5C 51.9291,49.6906 50.2624,49.3573 48.5,49.5C 48.6653,53.1817 48.4986,56.8484 48,60.5C 45.875,59.1485 44.7083,59.8152 44.5,62.5C 45.0476,64.556 46.2142,66.2226 48,67.5C 50.0184,73.7877 47.8517,76.9543 41.5,77C 34.7607,72.6608 34.9273,68.4941 42,64.5C 41.4351,61.4815 41.6018,58.4815 42.5,55.5C 43.8498,54.0499 45.5165,53.3832 47.5,53.5C 47.3367,51.1432 47.5034,48.8098 48,46.5C 48.9947,45.9341 49.828,45.2674 50.5,44.5 Z M 119.5,44.5 C 120.773,45.0768 120.773,45.7435 119.5,46.5C 118.537,46.0302 118.537,45.3635 119.5,44.5 Z M 57.5,53.5 C 59.5338,54.5478 60.8671,56.2145 61.5,58.5C 58.3625,62.5888 59.1959,65.5888 64,67.5C 66.1919,73.6114 64.0252,76.7781 57.5,77C 56.1667,76.3333 54.8333,75.6667 53.5,75C 57.0767,73.1482 58.0767,70.4815 56.5,67C 55.552,66.5172 54.552,66.3505 53.5,66.5C 52.7886,62.7193 53.9553,59.7193 57,57.5C 57.49,56.2068 57.6567,54.8734 57.5,53.5 Z M 66.5,55.5 C 71.8333,55.5 77.1667,55.5 82.5,55.5C 82.3354,58.5184 82.502,61.5184 83,64.5C 83.8333,65.3333 84.6667,66.1667 85.5,67C 90.8229,67.4994 96.1563,67.666 101.5,67.5C 101.5,72.1667 101.5,76.8333 101.5,81.5C 97.6893,81.1806 96.3559,82.6806 97.5,86C 104.856,86.8313 112.189,86.6646 119.5,85.5C 120.101,82.7573 118.767,81.4239 115.5,81.5C 115.5,76.8333 115.5,72.1667 115.5,67.5C 121.29,67.9038 126.956,67.4038 132.5,66C 134.263,62.7568 134.929,59.2568 134.5,55.5C 137.898,55.1796 141.232,55.513 144.5,56.5C 131.833,78.5 119.167,100.5 106.5,122.5C 105.335,123.584 104.002,124.417 102.5,125C 71.5,125.667 40.5,125.667 9.5,125C 9.16667,124.667 8.83333,124.333 8.5,124C 11.8742,118.084 15.3742,112.25 19,106.5C 19.1667,107.833 19.3333,109.167 19.5,110.5C 18.5293,113.281 17.696,115.948 17,118.5C 20.0731,119.617 23.2397,119.784 26.5,119C 26.9574,118.586 27.2907,118.086 27.5,117.5C 24.7582,114.202 24.0916,110.535 25.5,106.5C 31.915,108.665 37.415,107.331 42,102.5C 45.9368,95.7303 44.9368,89.7303 39,84.5C 38.2506,83.365 38.4173,82.365 39.5,81.5C 42.1667,82.8333 44.8333,82.8333 47.5,81.5C 47.8333,82.5 48.1667,83.5 48.5,84.5C 47.3364,87.0672 46.6697,89.7338 46.5,92.5C 49.5,92.5 52.5,92.5 55.5,92.5C 55.3303,89.7338 54.6636,87.0672 53.5,84.5C 53.8333,83.5 54.1667,82.5 54.5,81.5C 65.8865,83.6108 71.0532,78.9441 70,67.5C 69.1544,65.1532 67.6544,63.3199 65.5,62C 66.4231,59.9592 66.7564,57.7925 66.5,55.5 Z M 28.5,74.5 C 27.1667,74.5 25.8333,74.5 24.5,74.5C 24.8092,70.6572 23.3092,69.3239 20,70.5C 19.6667,74.8333 19.3333,79.1667 19,83.5C 17.1555,81.0997 15.6555,81.4331 14.5,84.5C 15.389,86.8983 16.889,88.8983 19,90.5C 21.0532,100.956 17.2199,104.29 7.5,100.5C 3.70486,97.0154 3.53819,93.3488 7,89.5C 11.9022,87.6842 12.7356,84.6842 9.5,80.5C 10.5346,76.3141 13.2013,73.9808 17.5,73.5C 17.3359,70.8127 17.5026,68.146 18,65.5C 21.0509,62.6261 23.7175,62.9594 26,66.5C 26.1173,69.5044 26.9507,72.171 28.5,74.5 Z M 28.5,74.5 C 30.143,74.4802 31.4763,75.1468 32.5,76.5C 33.2875,80.1453 33.4541,83.812 33,87.5C 40.4794,90.9004 41.3127,95.4004 35.5,101C 31.308,103.295 27.6414,102.628 24.5,99C 27.7118,96.9806 29.3784,94.1473 29.5,90.5C 27.8333,90.5 26.1667,90.5 24.5,90.5C 24.3359,87.8127 24.5026,85.146 25,82.5C 28.493,80.5981 29.6597,77.9315 28.5,74.5 Z"/></g>
<g><path style="opacity:0.857" fill="#891438" d="M 102.5,27.5 C 120.689,26.5155 127.856,34.8488 124,52.5C 117.975,61.4849 109.809,63.9849 99.5,60C 91.6826,54.237 89.1826,46.737 92,37.5C 94.7379,33.2595 98.2379,29.9262 102.5,27.5 Z M 98.5,50.5 C 99.2543,53.091 100.921,54.9243 103.5,56C 109.518,57.9949 114.518,56.3283 118.5,51C 116.333,50.1667 114.833,48.6667 114,46.5C 113.51,47.7932 113.343,49.1266 113.5,50.5C 112.167,50.5 110.833,50.5 109.5,50.5C 109.5,46.1667 109.5,41.8333 109.5,37.5C 112.187,37.6641 114.854,37.4974 117.5,37C 113.671,32.3867 109.005,31.0534 103.5,33C 102.315,34.353 100.981,35.5197 99.5,36.5C 108.266,36.319 110.599,40.319 106.5,48.5C 108.005,49.8415 108.672,51.5082 108.5,53.5C 105.204,52.5757 101.871,51.5757 98.5,50.5 Z M 101.5,40.5 C 101.322,41.6948 100.989,42.8615 100.5,44C 100.613,45.2798 101.28,46.1131 102.5,46.5C 105.173,44.1474 104.839,42.1474 101.5,40.5 Z M 119.5,44.5 C 118.537,45.3635 118.537,46.0302 119.5,46.5C 120.773,45.7435 120.773,45.0768 119.5,44.5 Z"/></g>
</svg>
