<?xml version="1.0" encoding="UTF-8"?>
<!DOCTYPE svg PUBLIC "-//W3C//DTD SVG 1.1//EN" "http://www.w3.org/Graphics/SVG/1.1/DTD/svg11.dtd">
<svg xmlns="http://www.w3.org/2000/svg" version="1.1" width="150px" height="153px" style="shape-rendering:geometricPrecision; text-rendering:geometricPrecision; image-rendering:optimizeQuality; fill-rule:evenodd; clip-rule:evenodd"
  xmlns:xlink="http://www.w3.org/1999/xlink">
  <g>
    <path fill="#8A1538" d="M 31.5,1.5 C 59.7406,1.17152 87.9073,1.50485 116,2.5C 116.684,3.78387 116.517,4.95054 115.5,6C 88.8354,6.49997 62.1687,6.66664 35.5,6.5C 35.6665,17.1719 35.4998,27.8385 35,38.5C 32.7328,39.9348 30.7328,39.6015 29,37.5C 28.3333,27.1667 28.3333,16.8333 29,6.5C 29.8466,4.80678 30.6799,3.14011 31.5,1.5 Z"/>
  </g>
  <g>
    <path fill="#8A1538" d="M 149.5,44.5 C 149.5,49.5 149.5,54.5 149.5,59.5C 148.132,61.4181 147.132,63.5848 146.5,66C 144.888,66.7203 143.388,66.5536 142,65.5C 142.052,60.2871 143.219,55.2871 145.5,50.5C 145,49.5 144.5,48.5 144,47.5C 140.361,58.0504 137.028,68.717 134,79.5C 133.807,88.8807 133.307,98.214 132.5,107.5C 136.492,110.659 139.992,114.326 143,118.5C 148.279,134.897 143.112,146.23 127.5,152.5C 123.833,152.5 120.167,152.5 116.5,152.5C 113.211,150.842 109.877,149.175 106.5,147.5C 106.5,146.833 106.167,146.5 105.5,146.5C 105.5,145.833 105.167,145.5 104.5,145.5C 104.5,144.833 104.167,144.5 103.5,144.5C 96.674,134.073 96.8407,123.74 104,113.5C 111.243,107.191 119.743,104.691 129.5,106C 128.584,105.626 127.75,105.126 127,104.5C 126.827,100.459 126.327,96.4592 125.5,92.5C 124.594,94.3864 123.594,96.2197 122.5,98C 120.866,98.4935 119.199,98.6602 117.5,98.5C 117.292,96.0799 117.626,93.7466 118.5,91.5C 116.534,88.451 116.034,85.1177 117,81.5C 120.287,71.9249 123.287,62.2582 126,52.5C 126.5,37.1703 126.667,21.837 126.5,6.5C 124.801,6.66018 123.134,6.49351 121.5,6C 120.167,4.66667 120.167,3.33333 121.5,2C 124.5,1.33333 127.5,1.33333 130.5,2C 131.701,2.90252 132.535,4.06919 133,5.5C 133.168,14.5184 133.668,23.5184 134.5,32.5C 142.932,30.4277 147.098,33.761 147,42.5C 147.708,43.3805 148.542,44.0472 149.5,44.5 Z M 137.5,37.5 C 138.756,37.4614 139.756,37.9614 140.5,39C 137.746,47.1738 134.913,55.3405 132,63.5C 131.25,62.8742 130.416,62.3742 129.5,62C 132.27,53.8583 134.936,45.6916 137.5,37.5 Z M 127.5,68.5 C 128.995,68.4148 129.995,69.0815 130.5,70.5C 129.949,73.0561 128.949,75.3894 127.5,77.5C 126.119,77.0004 125.453,76.0004 125.5,74.5C 126.178,72.484 126.844,70.484 127.5,68.5 Z M 122.5,82.5 C 127.536,83.505 127.536,84.8384 122.5,86.5C 122.5,85.1667 122.5,83.8333 122.5,82.5 Z M 115.5,110.5 C 132.983,108.461 141.483,116.127 141,133.5C 134.386,148.593 123.886,152.093 109.5,144C 100.613,134.668 100.28,125.001 108.5,115C 110.76,113.212 113.093,111.712 115.5,110.5 Z M 113.5,123.5 C 118.543,126.333 118.709,129.333 114,132.5C 110.872,129.683 110.705,126.683 113.5,123.5 Z M 128.5,124.5 C 129.978,124.238 131.311,124.571 132.5,125.5C 131.833,125.833 131.167,126.167 130.5,126.5C 129.287,126.253 128.62,125.586 128.5,124.5 Z"/>
  </g>
  <g>
    <path fill="#8A1538" d="M 49.5,18.5 C 70.5026,18.3334 91.5026,18.5 112.5,19C 113,19.5 113.5,20 114,20.5C 114.667,25.8333 114.667,31.1667 114,36.5C 113.5,37 113,37.5 112.5,38C 91.5,38.6667 70.5,38.6667 49.5,38C 49,37.5 48.5,37 48,36.5C 46.9807,30.2597 47.4807,24.2597 49.5,18.5 Z M 53.5,24.5 C 72.1667,24.5 90.8333,24.5 109.5,24.5C 109.5,27.1667 109.5,29.8333 109.5,32.5C 90.8333,32.5 72.1667,32.5 53.5,32.5C 53.5,29.8333 53.5,27.1667 53.5,24.5 Z"/>
  </g>
  <g>
    <path fill="#8A1538" d="M 103.5,144.5 C 104.167,144.5 104.5,144.833 104.5,145.5C 105.167,145.5 105.5,145.833 105.5,146.5C 106.167,146.5 106.5,146.833 106.5,147.5C 106.5,148.5 106.5,149.5 106.5,150.5C 81.8311,150.667 57.1644,150.5 32.5,150C 30.741,148.992 29.5743,147.492 29,145.5C 28.5026,142.854 28.3359,140.187 28.5,137.5C 20.8261,137.666 13.1594,137.5 5.5,137C 4.66667,136.167 3.83333,135.333 3,134.5C 2.50025,125.84 2.33358,117.173 2.5,108.5C 1.5,108.5 0.5,108.5 -0.5,108.5C -0.5,105.833 -0.5,103.167 -0.5,100.5C 9.14002,92.1944 18.4734,83.5277 27.5,74.5C 28.3321,64.8505 28.8321,55.1838 29,45.5C 31.084,42.967 33.084,42.967 35,45.5C 35.3333,57.5 35.6667,69.5 36,81.5C 43.3371,88.504 50.3371,95.8373 57,103.5C 57.5003,106.838 56.0003,108.505 52.5,108.5C 52.9172,117.915 52.4172,127.248 51,136.5C 45.9283,137.471 40.7616,137.805 35.5,137.5C 35.5,139.833 35.5,142.167 35.5,144.5C 58.1667,144.5 80.8333,144.5 103.5,144.5 Z M 26.5,82.5 C 33.4262,88.9836 40.4262,95.4836 47.5,102C 34.1667,102.667 20.8333,102.667 7.5,102C 14.0635,95.6048 20.3968,89.1048 26.5,82.5 Z M 8.5,108.5 C 21.1667,108.5 33.8333,108.5 46.5,108.5C 46.5,116.5 46.5,124.5 46.5,132.5C 43.5,132.5 40.5,132.5 37.5,132.5C 37.6661,126.824 37.4994,121.157 37,115.5C 34.276,114.224 31.276,113.558 28,113.5C 25.1667,113.667 22.3333,113.833 19.5,114C 19,114.5 18.5,115 18,115.5C 17.5006,121.157 17.3339,126.824 17.5,132.5C 14.5525,132.777 11.7191,132.444 9,131.5C 8.50031,123.841 8.33365,116.174 8.5,108.5 Z M 23.5,119.5 C 26.1667,119.5 28.8333,119.5 31.5,119.5C 31.5,123.833 31.5,128.167 31.5,132.5C 28.8333,132.5 26.1667,132.5 23.5,132.5C 23.5,128.167 23.5,123.833 23.5,119.5 Z"/>
  </g>
  <g>
    <path fill="#8A1538" d="M 49.5,49.5 C 69.5028,49.3334 89.5028,49.5 109.5,50C 111.602,51.7328 111.935,53.7328 110.5,56C 89.8333,56.6667 69.1667,56.6667 48.5,56C 47.1443,53.5859 47.4776,51.4193 49.5,49.5 Z"/>
  </g>
  <g>
    <path fill="#8A1538" d="M 48.5,63.5 C 69.1694,63.3334 89.836,63.5 110.5,64C 111.833,65.6667 111.833,67.3333 110.5,69C 89.8333,69.6667 69.1667,69.6667 48.5,69C 47.2475,67.1722 47.2475,65.3388 48.5,63.5 Z"/>
  </g>
  <g>
    <path fill="#8A1538" d="M 48.5,75.5 C 60.5046,75.3335 72.5046,75.5001 84.5,76C 85.8333,77.6667 85.8333,79.3333 84.5,81C 72.8333,81.6667 61.1667,81.6667 49.5,81C 47.1904,79.5415 46.8571,77.7081 48.5,75.5 Z"/>
  </g>
  <g>
    <path fill="#8A1538" d="M 74.5,96.5 C 75.9305,96.4208 77.2638,96.7542 78.5,97.5C 79.1235,99.9661 79.9568,102.299 81,104.5C 82.7651,102.226 84.9318,100.559 87.5,99.5C 90.4579,101.286 93.2912,103.286 96,105.5C 98.8689,103.483 102.036,102.15 105.5,101.5C 108.148,101.967 110.481,103.134 112.5,105C 110.636,107.616 108.303,108.45 105.5,107.5C 99.5,112.833 93.5,112.833 87.5,107.5C 85.4936,110.006 83.1603,112.173 80.5,114C 77.7019,114.561 75.8686,113.394 75,110.5C 74.6713,114.04 72.838,115.206 69.5,114C 68.9415,113.275 68.6082,112.442 68.5,111.5C 70.1239,106.284 72.1239,101.284 74.5,96.5 Z"/>
  </g>
  <g>
    <path fill="#8A1538" d="M 109.5,119.5 C 121.11,117.71 124.944,122.376 121,133.5C 117.667,134.5 117.667,135.5 121,136.5C 121.798,138.259 121.631,139.926 120.5,141.5C 115.58,139.478 111.08,136.812 107,133.5C 105.718,128.295 106.551,123.628 109.5,119.5 Z M 113.5,123.5 C 110.705,126.683 110.872,129.683 114,132.5C 118.709,129.333 118.543,126.333 113.5,123.5 Z"/>
  </g>
  <g>
    <path fill="#8A1538" d="M 123.5,119.5 C 127.884,119.174 132.217,119.508 136.5,120.5C 138.874,123.933 138.874,127.433 136.5,131C 137.609,133.047 138.276,135.213 138.5,137.5C 136.801,137.66 135.134,137.494 133.5,137C 132.378,134.876 130.878,133.043 129,131.5C 128.506,133.134 128.34,134.801 128.5,136.5C 126.833,136.5 125.167,136.5 123.5,136.5C 123.5,130.833 123.5,125.167 123.5,119.5 Z M 128.5,124.5 C 128.62,125.586 129.287,126.253 130.5,126.5C 131.167,126.167 131.833,125.833 132.5,125.5C 131.311,124.571 129.978,124.238 128.5,124.5 Z"/>
  </g>
</svg>
