<?xml version="1.0" encoding="utf-8"?>
<!-- Generator: Adobe Illustrator 27.9.0, SVG Export Plug-In . SVG Version: 6.00 Build 0)  -->
<svg version="1.1" id="Layer_1" xmlns="http://www.w3.org/2000/svg" xmlns:xlink="http://www.w3.org/1999/xlink" x="0px" y="0px"
	 viewBox="0 0 256 256" style="enable-background:new 0 0 256 256;" xml:space="preserve">
<style type="text/css">
	.st0{fill:#8A1538;}
	.st1{enable-background:new    ;}
</style>
<g transform="translate(0.000000,256.000000) scale(0.100000,-0.100000)">
	<path class="st0" d="M584,2516c-51-23-55-45-52-336l2.7-242c0.1-12.8,10.5-23,23.3-23h7h7.1c12.7,0,23.1,10.2,23.3,22.9L600,2180
		l4.6,242.3c0.2,12.6,10.5,22.8,23.1,22.9l655.3,4.8c588,4,679,7,687,20c14,22,12,27-12,44c-20,14-101,16-683,16
		C746,2529,609,2527,584,2516z"/>
	<path class="st0" d="M2092,2514c-12-8-22-19-22-24c0-21,34-40,71-40h39v-368v-367l-90-287c-49-158-90-300-90-316s9-41,21-56
		c19-25,20-30,8-77s-12-52,5-65c27-19,50-3,65,45c9,33,18,42,44,49l32,8l3-108l3-108l32-8l32-8l5,200l5,201l47,148
		c27,81,68,212,93,292c47,149,62,168,83,106c7-21,2-51-25-140c-36-120-34-145,11-139c17,2,28,24,58,113c20,61,37,123,37,138
		c1,35-32,101-61,122c-19,13-23,25-23,69c0,66-25,98-88,116c-50,13-92,2-119-33c-17-21-18-11-18,231c0,162-4,261-11,274
		c-12,22-66,48-101,48C2125,2530,2104,2523,2092,2514z M2394,1925c13-13,13-21,1-58c-8-23-39-122-70-220c-45-142-60-177-72-173
		c-8,3-26,9-39,12s-24,8-24,11c0,8,132,427,137,436C2335,1946,2378,1941,2394,1925z M2221,1407l26-12l-25-79l-24-78l-31,6
		c-17,4-35,10-40,15s0,41,13,85C2164,1425,2171,1430,2221,1407z M2146,1174c27-7,29-17,13-63c-12-34-41-41-73-18c-16,12-16,18-6,56
		c8,32,15,41,27,37C2115,1183,2133,1177,2146,1174z"/>
	<path class="st0" d="M861,2204c-18-23-21-41-21-131c0-97,2-106,25-128l24-25h504h504l21,23c20,21,22,34,22,135c0,99-2,114-20,132
		c-19,19-33,20-529,20H881L861,2204z M1870,2075v-85h-480H910v85v85h480h480V2075z"/>
	<path class="st0" d="M542,1798c-9-9-12-79-12-275v-263l-25,12c-23,10-36-1-260-217C113,927,7,816,4,803c-8-30,20-63,52-63h23l3-220
		l3-220l1.7-7c5.3-22.3,22.4-39.8,44.5-45.6l8.9-2.3l195-3l195-3v-65c0-79,18-118,61-133c35-12,1209-16,1209-4c0,3-11,21-25,39
		l-26,34l-572,2l-572,3l-3,63l-3,62h101c109,0,161,14,179,48c7,13,11,101,11,236v216h24c30,0,56,24,56,53c0,15-58,80-185,207
		l-185,185l-2,310c-3,302-4,310-23,313C564,1809,549,1805,542,1798z M860,818c0-4-170-8-377-8H105l189,189l189,189l189-181
		C775,908,860,823,860,818z M818,533l-3-208l-82-3l-83-3v136c0,179,4,175-162,175c-164,0-158,7-158-172V320h-85h-85v210v210h330h330
		L818,533z M570,440V320h-85h-85v120v120h85h85V440z"/>
	<path class="st0" d="M850,1685c-6-8-10-22-8-32c3-17,31-18,523-18s520,1,523,18c9,47,12,47-523,47C938,1700,861,1698,850,1685z"/>
	<path class="st0" d="M852,1468c-18-18-14-46,7-58c27-14,985-14,1012,0c21,12,25,40,7,58C1861,1485,869,1485,852,1468z"/>
	<path class="st0" d="M849,1254c-9-11-10-20-2-32c9-15,41-17,304-17h294v30v30l-291,3C897,1270,861,1268,849,1254z"/>
	<path class="st0" d="M1282,907c-6-7-29-63-51-124c-33-92-38-114-27-128c14-20,45-17,57,5c5,8,15,31,22,50l14,35l12-40
		c13-39,35-65,55-65c6,0,38,30,72,67l62,67l38-33c80-71,132-74,211-14c31,23,52,33,67,29c26-6,72,26,61,44c-4,6-22,18-41,26
		c-39,17-68,8-124-36c-21-17-47-30-58-30c-22,0-72,37-110,83c-13,15-32,27-42,27s-43-28-73-62l-54-61l-17,73
		C1335,915,1311,943,1282,907z"/>
	<path class="st0" d="M1980,744c-278-75-370-425-165-629c217-218,580-102,637,203c35,188-88,377-277,427C2103,763,2052,763,1980,744
		z M2222,688c71-33,133-94,167-167c22-47,26-70,26-141c0-102-28-173-95-240s-138-95-240-95c-71,0-94,4-141,26
		c-280,131-254,540,40,634C2047,727,2153,719,2222,688z"/>
</g>
<g class="st1">
	<path class="st0" d="M190.4,229.2c-5.6-1.5-8.9-5.9-8.9-13c0-8.2,5-14,13.7-14c8.6,0,13.6,5.3,13.6,13.7c0,6.6-3.3,11.8-10,13.1
		c2.9,2.1,6.3,3.8,9.3,3.8c0.9,0,2.3-0.3,3.2-0.8l0.8,4.2c-1.5,0.9-3.4,1.3-5.2,1.3C200.9,237.5,195.3,231.7,190.4,229.2z
		 M195.1,225.1c2.4,0,4.9-0.9,6-1.9c1.1-1.7,1.6-4.7,1.6-7c0-4.9-2.5-9.3-7.7-9.3c-2.2,0-4.7,0.8-5.8,1.9c-1.1,1.7-1.7,4.8-1.7,7.2
		C187.5,220.7,189.8,225.1,195.1,225.1z"/>
	<path class="st0" d="M213.1,202.8h10.5c8.7,0,11.3,3.2,11.3,8.3c0,4.1-2.2,6.7-5.7,7.9l6.7,10.3h-7.2l-5.6-9.3H219v9.3h-5.9V202.8z
		 M223.6,215.4c2.2,0,3.5-0.3,4.4-0.7c0.7-0.9,1-2.1,1-3.5c0-2.3-1.2-3.9-5.4-3.9H219v8.1H223.6z"/>
</g>
</svg>
