<?xml version="1.0" encoding="UTF-8"?>
<!DOCTYPE svg PUBLIC "-//W3C//DTD SVG 1.1//EN" "http://www.w3.org/Graphics/SVG/1.1/DTD/svg11.dtd">
<svg xmlns="http://www.w3.org/2000/svg" version="1.1" width="150px" height="150px" style="shape-rendering:geometricPrecision; text-rendering:geometricPrecision; image-rendering:optimizeQuality; fill-rule:evenodd; clip-rule:evenodd" xmlns:xlink="http://www.w3.org/1999/xlink">
<g><path style="opacity:0.977" fill="#891438" d="M 3.5,1.5 C 11.1739,1.33365 18.8406,1.50031 26.5,2C 27.8333,10 27.8333,18 26.5,26C 18.8406,26.4997 11.1739,26.6664 3.5,26.5C 3.5,18.1667 3.5,9.83333 3.5,1.5 Z M 8.5,7.5 C 12.8333,7.5 17.1667,7.5 21.5,7.5C 21.5,11.8333 21.5,16.1667 21.5,20.5C 17.1667,20.5 12.8333,20.5 8.5,20.5C 8.5,16.1667 8.5,11.8333 8.5,7.5 Z"/></g>
<g><path style="opacity:0.978" fill="#891438" d="M 123.5,1.5 C 131.42,1.18496 139.253,1.51829 147,2.5C 147.814,10.4128 147.647,18.2462 146.5,26C 138.587,26.8141 130.754,26.6474 123,25.5C 122.2,17.4211 122.367,9.42105 123.5,1.5 Z M 128.5,7.5 C 132.833,7.5 137.167,7.5 141.5,7.5C 141.5,11.8333 141.5,16.1667 141.5,20.5C 137.167,20.5 132.833,20.5 128.5,20.5C 128.5,16.1667 128.5,11.8333 128.5,7.5 Z"/></g>
<g><path style="opacity:0.896" fill="#951734" d="M 31.5,11.5 C 36.2137,11.1734 40.8804,11.5067 45.5,12.5C 46.9327,14.8088 46.266,16.3088 43.5,17C 39.0998,17.9777 34.9331,17.4777 31,15.5C 30.4209,14.0715 30.5876,12.7382 31.5,11.5 Z"/></g>
<g><path style="opacity:0.874" fill="#931335" d="M 49.5,11.5 C 54.1785,11.3342 58.8452,11.5008 63.5,12C 65.013,14.4541 64.3463,16.1207 61.5,17C 58.1667,17.6667 54.8333,17.6667 51.5,17C 48.4188,16.009 47.7521,14.1757 49.5,11.5 Z"/></g>
<g><path style="opacity:0.881" fill="#901333" d="M 67.5,11.5 C 72.5,11.5 77.5,11.5 82.5,11.5C 82.8588,13.7659 82.1922,15.5993 80.5,17C 76.1294,17.6292 71.796,17.4625 67.5,16.5C 67.5,14.8333 67.5,13.1667 67.5,11.5 Z"/></g>
<g><path style="opacity:0.875" fill="#961434" d="M 86.5,11.5 C 91.1785,11.3342 95.8452,11.5008 100.5,12C 102.013,14.4541 101.346,16.1207 98.5,17C 94.0998,17.9777 89.9331,17.4777 86,15.5C 85.4209,14.0715 85.5876,12.7382 86.5,11.5 Z"/></g>
<g><path style="opacity:0.895" fill="#911334" d="M 104.5,11.5 C 109.179,11.3342 113.845,11.5008 118.5,12C 120.013,14.4541 119.346,16.1207 116.5,17C 113.167,17.6667 109.833,17.6667 106.5,17C 103.419,16.009 102.752,14.1757 104.5,11.5 Z"/></g>
<g><path style="opacity:0.944" fill="#951332" d="M 14.5,29.5 C 15.5832,29.5394 16.5832,29.8728 17.5,30.5C 18.6609,34.7953 18.8275,39.1287 18,43.5C 15.4781,46.3264 13.4781,45.9931 12,42.5C 11.3333,39.1667 11.3333,35.8333 12,32.5C 12.6979,31.3094 13.5313,30.3094 14.5,29.5 Z"/></g>
<g><path style="opacity:0.919" fill="#8c1241" d="M 133.5,29.5 C 137.658,30.4624 139.324,33.1291 138.5,37.5C 139.076,41.0711 137.91,43.7378 135,45.5C 134.228,45.3552 133.561,45.0219 133,44.5C 132.222,39.4158 132.389,34.4158 133.5,29.5 Z"/></g>
<g><path style="opacity:0.912" fill="#8a1537" d="M 35.5,33.5 C 40.8591,33.6697 46.1924,34.1697 51.5,35C 53.2112,36.1332 53.7112,37.6332 53,39.5C 50.9307,40.2638 48.764,40.7638 46.5,41C 55.973,50.473 65.473,59.973 75,69.5C 84.527,59.973 94.027,50.473 103.5,41C 101.236,40.7638 99.0693,40.2638 97,39.5C 96.2888,37.6332 96.7888,36.1332 98.5,35C 104.052,33.7773 109.552,33.6106 115,34.5C 115.53,40.204 115.197,45.8706 114,51.5C 112.612,52.5536 111.112,52.7203 109.5,52C 108.736,49.9307 108.236,47.764 108,45.5C 98.2852,54.713 89.1185,64.3797 80.5,74.5C 89.1185,84.6203 98.2852,94.287 108,103.5C 108.333,101.5 108.667,99.5 109,97.5C 110.667,96.1667 112.333,96.1667 114,97.5C 115.409,103.372 115.576,109.206 114.5,115C 109.146,115.332 103.813,114.999 98.5,114C 96.4746,112.806 96.1413,111.306 97.5,109.5C 99.4233,108.692 101.423,108.192 103.5,108C 94,98.5 84.5,89 75,79.5C 65.5,89 56,98.5 46.5,108C 48.764,108.236 50.9307,108.736 53,109.5C 53.7112,111.367 53.2112,112.867 51.5,114C 45.948,115.223 40.448,115.389 35,114.5C 34.4698,108.796 34.8032,103.129 36,97.5C 37.3876,96.4464 38.8876,96.2797 40.5,97C 41.2638,99.0693 41.7638,101.236 42,103.5C 51.7148,94.287 60.8815,84.6203 69.5,74.5C 60.9093,64.4061 51.7426,54.7394 42,45.5C 41.6667,47.5 41.3333,49.5 41,51.5C 39.3333,52.8333 37.6667,52.8333 36,51.5C 34.5576,45.4618 34.3909,39.4618 35.5,33.5 Z"/></g>
<g><path style="opacity:0.91" fill="#931334" d="M 13.5,48.5 C 15.1439,48.2865 16.6439,48.6198 18,49.5C 18.6667,53.8333 18.6667,58.1667 18,62.5C 15.2242,64.1397 13.2242,63.473 12,60.5C 11.0805,56.2686 11.5805,52.2686 13.5,48.5 Z"/></g>
<g><path style="opacity:0.908" fill="#8b133d" d="M 132.5,48.5 C 137.655,48.2657 139.655,50.7657 138.5,56C 139.562,61.0951 137.562,63.5951 132.5,63.5C 132.5,58.5 132.5,53.5 132.5,48.5 Z"/></g>
<g><path style="opacity:0.922" fill="#8f1433" d="M 14.5,66.5 C 16.0174,66.5106 17.1841,67.1772 18,68.5C 18.6667,72.5 18.6667,76.5 18,80.5C 16.2252,83.0443 14.3918,83.0443 12.5,80.5C 11.4068,76.8922 11.2401,73.2255 12,69.5C 12.6979,68.3094 13.5313,67.3094 14.5,66.5 Z"/></g>
<g><path style="opacity:0.917" fill="#8d1240" d="M 134.5,66.5 C 137.882,68.0193 139.216,70.686 138.5,74.5C 139.068,78.0035 137.901,80.6702 135,82.5C 134.586,82.0426 134.086,81.7093 133.5,81.5C 131.977,76.2325 132.31,71.2325 134.5,66.5 Z"/></g>
<g><path style="opacity:0.936" fill="#931334" d="M 13.5,85.5 C 15.1439,85.2865 16.6439,85.6198 18,86.5C 18.6667,90.8333 18.6667,95.1667 18,99.5C 15.2242,101.14 13.2242,100.473 12,97.5C 11.0805,93.2686 11.5805,89.2686 13.5,85.5 Z"/></g>
<g><path style="opacity:0.896" fill="#8c123d" d="M 132.5,85.5 C 137.655,85.2657 139.655,87.7657 138.5,93C 139.562,98.0951 137.562,100.595 132.5,100.5C 132.5,95.5 132.5,90.5 132.5,85.5 Z"/></g>
<g><path style="opacity:0.932" fill="#931332" d="M 13.5,103.5 C 15.3904,103.297 16.8904,103.963 18,105.5C 18.8275,109.871 18.6609,114.205 17.5,118.5C 15.0914,119.722 13.258,119.055 12,116.5C 11.0551,111.939 11.5551,107.606 13.5,103.5 Z"/></g>
<g><path style="opacity:0.914" fill="#8a133e" d="M 133.5,103.5 C 134.822,103.33 135.989,103.663 137,104.5C 138.534,108.711 138.867,113.044 138,117.5C 136.445,119.146 134.779,119.479 133,118.5C 132.222,113.416 132.389,108.416 133.5,103.5 Z"/></g>
<g><path style="opacity:0.912" fill="#891438" d="M 3.5,122.5 C 11.1739,122.334 18.8406,122.5 26.5,123C 27.8333,131 27.8333,139 26.5,147C 18.8406,147.5 11.1739,147.666 3.5,147.5C 3.5,139.167 3.5,130.833 3.5,122.5 Z M 8.5,128.5 C 12.8333,128.5 17.1667,128.5 21.5,128.5C 21.5,132.833 21.5,137.167 21.5,141.5C 17.1667,141.5 12.8333,141.5 8.5,141.5C 8.5,137.167 8.5,132.833 8.5,128.5 Z"/></g>
<g><path style="opacity:0.917" fill="#891438" d="M 123.5,122.5 C 131.42,122.185 139.253,122.518 147,123.5C 147.814,131.413 147.647,139.246 146.5,147C 138.587,147.814 130.754,147.647 123,146.5C 122.2,138.421 122.367,130.421 123.5,122.5 Z M 128.5,128.5 C 132.833,128.5 137.167,128.5 141.5,128.5C 141.5,132.833 141.5,137.167 141.5,141.5C 137.167,141.5 132.833,141.5 128.5,141.5C 128.5,137.167 128.5,132.833 128.5,128.5 Z"/></g>
<g><path style="opacity:0.929" fill="#891436" d="M 33.5,131.5 C 36.4692,132.825 39.4692,132.825 42.5,131.5C 45.7734,132.062 46.7734,133.729 45.5,136.5C 40.8687,137.662 36.202,137.828 31.5,137C 30.0804,134.426 30.747,132.593 33.5,131.5 Z"/></g>
<g><path style="opacity:0.928" fill="#8a1436" d="M 51.5,131.5 C 54.7023,132.7 57.8689,132.7 61,131.5C 64.1838,132.406 65.0172,134.239 63.5,137C 58.798,137.828 54.1313,137.662 49.5,136.5C 48.2182,134.101 48.8848,132.434 51.5,131.5 Z"/></g>
<g><path style="opacity:0.919" fill="#891434" d="M 70.5,131.5 C 73.4692,132.825 76.4692,132.825 79.5,131.5C 81.9231,132.712 82.9231,134.712 82.5,137.5C 77.5,137.5 72.5,137.5 67.5,137.5C 67.5,135.833 67.5,134.167 67.5,132.5C 68.791,132.737 69.791,132.404 70.5,131.5 Z"/></g>
<g><path style="opacity:0.915" fill="#861435" d="M 88.5,131.5 C 91.7023,132.7 94.8689,132.7 98,131.5C 101.184,132.406 102.017,134.239 100.5,137C 95.8333,137.667 91.1667,137.667 86.5,137C 85.0804,134.426 85.747,132.593 88.5,131.5 Z"/></g>
<g><path style="opacity:0.959" fill="#891536" d="M 106.5,131.5 C 109.702,132.7 112.869,132.7 116,131.5C 119.184,132.406 120.017,134.239 118.5,137C 113.798,137.828 109.131,137.662 104.5,136.5C 103.693,134.422 104.359,132.755 106.5,131.5 Z"/></g>
</svg>
