<?xml version="1.0" encoding="utf-8"?>
<!-- Generator: Adobe Illustrator 27.9.0, SVG Export Plug-In . SVG Version: 6.00 Build 0)  -->
<svg version="1.1" id="Layer_1" xmlns="http://www.w3.org/2000/svg" xmlns:xlink="http://www.w3.org/1999/xlink" x="0px" y="0px"
	 viewBox="0 0 256 256" style="enable-background:new 0 0 256 256;" xml:space="preserve">
<style type="text/css">
	.st0{fill:#8A1538;}
</style>
<g transform="translate(0.000000,256.000000) scale(0.100000,-0.100000)">
	<path class="st0" d="M82,2498c-17-17-17-359,0-376c8-8,65-12,190-12c165,0,178,1,188,19c13,26,13,336,0,362c-10,18-23,19-188,19
		C147,2510,90,2506,82,2498z M390,2305v-126l-121,3l-120,3l-2,123l-2,122h123h122V2305z"/>
	<path class="st0" d="M2120,2491c-6-11-10-89-10-181s4-170,10-181c10-18,23-19,188-19c125,0,182,4,190,12c17,17,17,359,0,376
		c-8,8-65,12-190,12C2143,2510,2130,2509,2120,2491z M2433,2308l-2-123l-120-3l-121-3v126v125h123h122L2433,2308z"/>
	<path class="st0" d="M562,2338c-17-17-15-55,4-62c29-11,189-7,202,6c18,18,14,46-7,58C733,2354,577,2353,562,2338z"/>
	<path class="st0" d="M878,2339c-10-5-18-18-18-28c0-34,24-42,120-39c76,2,95,6,104,21c8,12,8,22,0,35c-9,14-28,17-100,19
		C935,2349,887,2345,878,2339z"/>
	<path class="st0" d="M1186,2334c-9-8-16-19-16-24s7-16,16-24c12-12,37-16,104-16s92,4,104,16c20,19,20,29,0,48c-12,12-37,16-104,16
		S1198,2346,1186,2334z"/>
	<path class="st0" d="M1502,2338c-7-7-12-19-12-28c0-32,23-40,115-40c57,0,95,4,103,12c18,18,14,46-7,58
		C1673,2354,1517,2353,1502,2338z"/>
	<path class="st0" d="M1818,2339c-21-12-23-40-6-57c13-13,173-17,202-6c19,7,21,45,4,62C2003,2353,1843,2354,1818,2339z"/>
	<path class="st0" d="M242,2018c-19-19-16-193,4-212c20-20,27-20,47,2c13,14,17,38,17,101c0,45-5,91-10,102
		C288,2032,260,2036,242,2018z"/>
	<path class="st0" d="M2280,2011c-5-11-10-58-10-104c0-69,3-87,18-100c23-21,27-21,46-1c20,19,23,193,4,212
		C2320,2036,2292,2032,2280,2011z"/>
	<path class="st0" d="M620,1955c-11-13-11-38-1-133c14-128,22-152,51-152s38,28,31,93c-4,31-4,57-1,57c4,0,125-121,269-270l263-270
		l-263-270C825,862,704,740,700,740c-3,0-3,26,1,58c7,64-2,92-31,92s-37-24-51-153c-16-158-22-153,141-133c68,9,128,20,133,25
		s7,19,5,32c-3,23-6,24-78,21l-75-2l273,272l272,273l273-273l272-272l-75,2c-72,3-75,2-78-21c-2-13,0-27,5-32c12-12,247-41,267-33
		c19,7,20,32,5,162c-13,109-21,132-49,132c-29,0-38-28-31-92c4-32,4-58,1-58c-4,0-125,121-269,270l-263,270l263,270
		c144,149,265,270,269,270c3,0,3-26-1-57c-7-65,2-93,31-93c28,0,36,23,49,132c15,130,14,155-5,162c-20,8-255-21-267-33
		c-5-5-7-19-5-32c3-23,6-24,78-21l75,2l-272-272l-273-273l-272,273l-273,272l75-2c72-3,75-2,78,21c2,13,0,27-5,32
		c-7,7-215,39-254,39C635,1970,627,1963,620,1955z"/>
	<path class="st0" d="M236,1694c-11-29-7-189,6-202c18-18,46-14,58,7c14,28,13,184-2,199C281,1715,243,1713,236,1694z"/>
	<path class="st0" d="M2282,1698c-15-15-16-171-2-199c12-21,40-25,58-7c13,13,17,173,6,202C2337,1713,2299,1715,2282,1698z"/>
	<path class="st0" d="M242,1388c-16-16-16-200,0-216s33-15,52,4c23,22,23,186,0,208C275,1403,258,1404,242,1388z"/>
	<path class="st0" d="M2286,1384c-12-12-16-37-16-104c0-89,11-120,44-120c28,0,36,25,36,120s-8,120-36,120
		C2307,1400,2294,1393,2286,1384z"/>
	<path class="st0" d="M242,1068c-13-13-17-173-6-202c7-19,45-21,62-4c15,15,16,171,2,199C288,1082,260,1086,242,1068z"/>
	<path class="st0" d="M2280,1061c-14-28-13-184,2-199c17-17,55-15,62,4c11,29,7,189-6,202C2320,1086,2292,1082,2280,1061z"/>
	<path class="st0" d="M246,754c-12-12-16-37-16-108c0-95,8-116,42-116c28,0,38,33,38,123c0,69-3,87-18,100C269,774,265,774,246,754z
		"/>
	<path class="st0" d="M2287,752c-13-14-17-38-17-101c0-88,10-121,38-121c34,0,42,21,42,116c0,71-4,96-16,108
		C2314,774,2307,774,2287,752z"/>
	<path class="st0" d="M82,438C65,421,65,79,82,62c8-8,65-12,190-12c165,0,178,1,188,19c13,26,13,336,0,362c-10,18-23,19-188,19
		C147,450,90,446,82,438z M390,255V130H268H145l2,122c1,68,2,124,3,126c0,1,54,2,120,2h120V255z"/>
	<path class="st0" d="M2120,431c-6-11-10-89-10-181s4-170,10-181c10-18,23-19,188-19c125,0,182,4,190,12c17,17,17,359,0,376
		c-8,8-65,12-190,12C2143,450,2130,449,2120,431z M2433,252l2-122h-122h-123v125v126l121-3l120-3L2433,252z"/>
	<path class="st0" d="M563,283c-16-6-17-45-1-61c15-15,171-16,199-2c21,12,25,40,7,58C756,290,589,294,563,283z"/>
	<path class="st0" d="M872,278c-18-18-15-46,8-58c11-6,58-10,107-8c69,2,88,6,97,21c8,12,8,22,0,35c-9,14-28,18-105,20
		C914,290,881,287,872,278z"/>
	<path class="st0" d="M1186,274c-9-8-16-19-16-24s7-16,16-24c22-23,186-23,208,0c20,19,20,29,0,48c-12,12-37,16-104,16
		S1198,286,1186,274z"/>
	<path class="st0" d="M1502,278c-7-7-12-19-12-28c0-32,23-40,108-40c46,0,92,5,103,10c21,12,25,40,7,58C1692,294,1518,294,1502,278z
		"/>
	<path class="st0" d="M1812,278c-18-18-14-46,7-58c28-14,184-13,199,2c17,17,15,55-4,62C1985,295,1825,291,1812,278z"/>
</g>
</svg>
