<?xml version="1.0" encoding="UTF-8"?>
<!DOCTYPE svg PUBLIC "-//W3C//DTD SVG 1.1//EN" "http://www.w3.org/Graphics/SVG/1.1/DTD/svg11.dtd">
<svg xmlns="http://www.w3.org/2000/svg" version="1.1" width="182px" height="168px" style="shape-rendering:geometricPrecision; text-rendering:geometricPrecision; image-rendering:optimizeQuality; fill-ru8A1538:evenodd; clip-rule:evenodd"
  xmlns:xlink="http://www.w3.org/1999/xlink">
  <g>
    <path fill="#8A1538" d="M 129.5,26.5 C 102.833,26.5 76.1667,26.5 49.5,26.5C 72.3297,25.6679 95.3297,25.1679 118.5,25C 117.833,24.3333 117.167,23.6667 116.5,23C 89.4938,22.1668 62.4938,22.3335 35.5,23.5C 34.3399,60.4584 34.1733,97.4584 35,134.5C 35.7096,135.973 36.8762,136.64 38.5,136.5C 38.5,139.5 38.5,142.5 38.5,145.5C 32.2958,145.478 28.1291,142.478 26,136.5C 25.3333,98.8333 25.3333,61.1667 26,23.5C 27.0095,19.1571 29.5095,15.9904 33.5,14C 62.1667,13.3333 90.8333,13.3333 119.5,14C 124.506,16.1756 126.84,20.009 126.5,25.5C 127.791,25.2627 128.791,25.596 129.5,26.5 Z"/>
  </g>
  <g>
    <path fill="#8A1538" d="M 49.5,26.5 C 76.1667,26.5 102.833,26.5 129.5,26.5C 134.84,26.665 138.34,29.3317 140,34.5C 140.667,45.5 140.667,56.5 140,67.5C 137.333,70.1667 134.667,70.1667 132,67.5C 131.821,56.9234 131.321,46.4234 130.5,36C 103.261,35.1721 76.0946,35.3387 49,36.5C 48.1706,74.0713 48.3372,111.571 49.5,149C 76.5,149.667 103.5,149.667 130.5,149C 131.32,139.244 131.82,129.41 132,119.5C 134.667,116.833 137.333,116.833 140,119.5C 140.667,129.833 140.667,140.167 140,150.5C 139.117,153.102 137.617,155.269 135.5,157C 120.423,158.152 105.256,158.652 90,158.5C 75.5,158.333 61,158.167 46.5,158C 43.2716,156.437 41.1049,153.937 40,150.5C 39.3333,111.833 39.3333,73.1667 40,34.5C 41.5034,29.828 44.6701,27.1613 49.5,26.5 Z M 104.5,48.5 C 105.693,48.9704 106.36,49.9704 106.5,51.5C 106.333,52.5 106.167,53.5 106,54.5C 104.681,52.7505 104.181,50.7505 104.5,48.5 Z"/>
  </g>
  <g>
    <path fill="#8A1538" d="M 88.5,41.5 C 92.8859,42.366 96.3859,44.6994 99,48.5C 99.2734,46.8988 99.7734,45.3988 100.5,44C 104.091,43.2114 107.591,43.3781 111,44.5C 111.333,49.5 111.667,54.5 112,59.5C 114.027,60.6933 115.527,62.36 116.5,64.5C 115.332,66.2174 113.665,66.8841 111.5,66.5C 111.5,75.5 111.5,84.5 111.5,93.5C 97.1667,93.5 82.8333,93.5 68.5,93.5C 68.5,84.5 68.5,75.5 68.5,66.5C 67.1667,66.5 65.8333,66.5 64.5,66.5C 64.3433,65.1266 64.51,63.7932 65,62.5C 72.7299,55.2637 80.5632,48.2637 88.5,41.5 Z M 89.5,47.5 C 95.1274,51.9562 100.627,56.6229 106,61.5C 106.5,70.4938 106.666,79.4938 106.5,88.5C 95.5,88.5 84.5,88.5 73.5,88.5C 73.3336,79.4938 73.5002,70.4938 74,61.5C 79.3618,56.9676 84.5284,52.301 89.5,47.5 Z M 104.5,48.5 C 104.181,50.7505 104.681,52.7505 106,54.5C 106.167,53.5 106.333,52.5 106.5,51.5C 106.36,49.9704 105.693,48.9704 104.5,48.5 Z"/>
  </g>
  <g>
    <path fill="#8A1538" d="M 149.5,61.5 C 158.34,62.0059 163.34,66.6726 164.5,75.5C 164.373,78.3873 163.373,80.8873 161.5,83C 163.922,85.0027 164.755,87.5027 164,90.5C 160.5,94.6667 157,98.8333 153.5,103C 152.207,103.49 150.873,103.657 149.5,103.5C 150.074,98.4008 152.574,94.4008 157,91.5C 157.465,90.0692 158.299,88.9025 159.5,88C 159.167,87.8333 158.833,87.6667 158.5,87.5C 149.529,97.4743 140.529,107.474 131.5,117.5C 125.208,121.076 118.542,122.41 111.5,121.5C 111.264,113.598 112.764,105.931 116,98.5C 127.032,85.9714 138.199,73.6381 149.5,61.5 Z M 149.5,67.5 C 157.29,68.1094 160.123,72.1094 158,79.5C 147.833,91 137.667,102.5 127.5,114C 124.312,114.755 121.145,115.589 118,116.5C 117.5,116.167 117,115.833 116.5,115.5C 117.478,111.109 118.644,106.776 120,102.5C 130.443,91.2342 140.276,79.5675 149.5,67.5 Z"/>
  </g>
  <g>
    <path fill="#8A1538" d="M 61.5,101.5 C 77.1702,101.333 92.8369,101.5 108.5,102C 109.833,103.333 109.833,104.667 108.5,106C 92.8333,106.667 77.1667,106.667 61.5,106C 60.2721,104.51 60.2721,103.01 61.5,101.5 Z"/>
  </g>
  <g>
    <path fill="#8A1538" d="M 61.5,116.5 C 75.504,116.333 89.504,116.5 103.5,117C 104.833,118.333 104.833,119.667 103.5,121C 89.5,121.667 75.5,121.667 61.5,121C 60.2721,119.51 60.2721,118.01 61.5,116.5 Z"/>
  </g>
  <g>
    <path fill="#8A1538" d="M 61.5,131.5 C 78.8365,131.333 96.1699,131.5 113.5,132C 114.833,133.333 114.833,134.667 113.5,136C 96.5,136.667 79.5,136.667 62.5,136C 60.2177,134.916 59.8843,133.416 61.5,131.5 Z"/>
  </g>
</svg>
