<?xml version="1.0" encoding="utf-8"?>
<!-- Generator: Adobe Illustrator 27.9.0, SVG Export Plug-In . SVG Version: 6.00 Build 0)  -->
<svg version="1.1" id="Layer_1" xmlns="http://www.w3.org/2000/svg" xmlns:xlink="http://www.w3.org/1999/xlink" x="0px" y="0px"
	 viewBox="0 0 500 500" style="enable-background:new 0 0 500 500;" xml:space="preserve">
<style type="text/css">
	.st0{fill:#8A1538;}
</style>
<g transform="translate(0.000000,500.000000) scale(0.100000,-0.100000)">
	<path class="st0" d="M943,4394c-57-21-128-86-161-148l-27-51l-3-1570c-2-1385,0-1575,13-1615c33-97,103-164,205-194
		c84-25,80-29,80,87v103l-34,12c-71,26-66-92-64,1606l3,1526l28,27l27,28l1093,2c858,2,1097,0,1117-10c14-7,33-29,43-50l19-37h100
		h101l-6,45c-14,95-80,183-172,227l-60,28l-1130-1C1144,4409,979,4406,943,4394z"/>
	<path class="st0" d="M1319,4041c-95-37-155-103-184-203c-14-48-15-218-13-1609l3-1554l27-52c34-64,86-115,147-145l46-23h1145h1145
		l50,27c60,32,105,77,137,138c23,45,23,48,26,453c2,285-1,413-8,428c-16,28-75,52-111,44c-16-4-40-20-54-37l-25-30v-371
		c0-409,0-409-60-440c-33-16-102-17-1118-15l-1084,3l-29,33l-29,32v1530c0,1066,3,1536,11,1553c25,55-34,52,1134,55
		c1014,2,1082,1,1115-15c19-10,40-29,47-43c10-19,13-126,13-427v-401l25-30c14-17,38-33,54-37c36-8,95,16,110,44c8,15,11,152,9,458
		c-3,437-3,438-26,483c-32,61-77,106-137,138l-50,27l-1135,2C1423,4059,1363,4058,1319,4041z"/>
	<path class="st0" d="M2397,3577c-482-417-595-518-601-533c-4-9,1-27,9-40c12-19,24-24,60-24h45v-359v-360l22-15c20-14,89-16,554-16
		c522,0,532,0,558,21l26,20v355v354h39c44,0,71,20,71,52c0,12-23,41-55,71l-55,50v191c0,250,9,236-155,236c-145,0-145,0-145-99
		c0-34-2-61-6-61c-3,0-62,50-132,110c-69,61-134,110-144,110S2437,3612,2397,3577z M2660,3370c118-101,279-241,324-281
		c4-4,1-18-8-30c-14-21-16-67-16-371v-348h-475h-475v358c0,267-3,361-12,370c-15,15-26,5,257,251c189,163,233,197,245,188
		C2508,3500,2580,3439,2660,3370z M2960,3364v-115l-45,37l-45,36v79v79h45h45V3364z"/>
	<path class="st0" d="M4128,3066c-20-7-47-22-61-32s-161-176-328-369c-167-192-354-408-417-480c-62-71-122-146-132-165
		c-24-47-122-495-114-525c9-35,38-57,76-57c43,1,403,107,439,129c15,10,63,59,106,108c43,50,208,240,366,423
		c159,183,290,332,293,332c14,0,45-23,54-40c10-18-7-42-135-191c-80-94-145-177-145-184c0-19,28-45,50-45c20,0,330,359,330,382
		c0,38-25,92-55,121l-35,34l34,44c60,80,70,150,36,260c-25,83-69,151-122,190C4281,3065,4192,3089,4128,3066z M4256,2951
		c58-26,111-93,134-169c24-78,25-94,4-134c-13-25-684-807-824-961c-32-35-48-42-204-88c-94-27-173-48-177-47c-7,3,74,379,90,415
		c6,13,51,70,100,126s229,264,401,462c171,198,325,372,341,388C4156,2975,4197,2978,4256,2951z"/>
	<path class="st0" d="M1722,1968c-17-17-15-54,4-72c14-14,85-16,629-16h615l16,25c15,23,15,27,0,50l-16,25h-618
		C1885,1980,1731,1977,1722,1968z"/>
	<path class="st0" d="M1722,1558c-17-17-15-54,4-72c14-14,78-16,558-16c513,0,544,1,559,18c20,22,22,53,5,70S1739,1575,1722,1558z"
		/>
	<path class="st0" d="M1732,1154c-26-18-29-56-6-78c14-14,90-16,694-16c613,0,680,2,695,16c23,23,15,66-15,81c-19,10-175,13-685,13
		C1833,1170,1752,1168,1732,1154z"/>
</g>
</svg>
