<?xml version="1.0" encoding="utf-8"?>
<!-- Generator: Adobe Illustrator 27.9.0, SVG Export Plug-In . SVG Version: 6.00 Build 0)  -->
<svg version="1.1" id="Layer_1" xmlns="http://www.w3.org/2000/svg" xmlns:xlink="http://www.w3.org/1999/xlink" x="0px" y="0px"
	 viewBox="0 0 256 256" style="enable-background:new 0 0 256 256;" xml:space="preserve">
<style type="text/css">
	.st0{fill:#8A1538;}
</style>
<g transform="translate(0.000000,256.000000) scale(0.100000,-0.100000)">
	<path class="st0" d="M584,2516c-51-23-55-45-52-336l2.7-235c0.2-16.6,13.7-30,30.3-30l0,0h0.2c16.5,0,30,13.2,30.3,29.8L600,2180
		l4.4,235.4c0.3,16.4,13.7,29.6,30.1,29.8l648.4,4.8c588,4,679,7,687,20c14,22,12,27-12,44c-20,14-101,16-683,16
		C746,2529,609,2527,584,2516z"/>
	<path class="st0" d="M2092,2514c-12-8-22-19-22-24c0-21,34-40,71-40h39v-368v-367l-90-287c-49-158-90-300-90-316s9-41,21-56
		c19-25,20-30,8-77s-12-52,5-65c27-19,50-3,65,45c6,23,13,41,14,41s17,4,35,9l32,10V769V520h-169c-165,0-171-1-198-24l-28-24l-3-181
		l-3-181l-587,2l-587,3l-3,63l-3,62h101c109,0,161,14,179,48c7,13,11,101,11,236v216h24c30,0,56,24,56,53c0,15-58,80-185,207
		l-185,185v308c0,276-2,308-16,314c-9,3-24,2-33-4c-14-9-16-44-19-276l-2-266l-25,11c-23,10-37-2-260-217C113,927,7,816,4,803
		c-8-30,20-63,52-63h23l3-220l5.4-218.5l2.6-14.1c7-17.7,21.1-31.6,39-38.3l11-4.1l195-3l195-3v-65c0-84,18-120,68-134
		c25-8,226-10,641-8l604,3l204,210l203,210v353v354l76,241c116,373,114,366,129,361c34-13,33-56-2-173c-36-120-34-145,11-139
		c17,2,28,24,58,113c20,61,37,123,37,138c1,35-32,101-61,122c-19,13-23,25-23,69c0,66-25,98-88,116c-50,13-92,2-119-33
		c-17-21-18-11-18,231c0,162-4,261-11,274c-12,22-66,48-101,48C2125,2530,2104,2523,2092,2514z M2394,1925c13-13,13-21,1-58
		c-8-23-39-122-70-220c-45-142-60-177-72-173c-8,3-26,9-39,12s-24,8-24,11c0,8,132,427,137,436C2335,1946,2378,1941,2394,1925z
		 M2221,1407l26-12l-25-79l-24-78l-31,6c-17,4-35,10-40,15s0,41,13,85C2164,1425,2171,1430,2221,1407z M860,818c0-4-170-8-377-8H105
		l189,189l189,189l189-181C775,908,860,823,860,818z M2146,1174c27-7,29-17,13-63c-12-34-41-41-73-18c-16,12-16,18-6,56
		c8,32,15,41,27,37C2115,1183,2133,1177,2146,1174z M818,533l-3-208l-82-3l-83-3v136c0,179,4,175-162,175c-164,0-158,7-158-172V320
		h-85h-85v210v210h330h330L818,533z M570,440V320h-85h-85v120v120h85h85V440z M2025,328c-65-68-129-134-142-148l-23-25v148v147h142
		h141L2025,328z"/>
	<path class="st0" d="M861,2204c-18-23-21-41-21-131c0-97,2-106,25-128l24-25h504h504l21,23c20,21,22,34,22,135c0,99-2,114-20,132
		c-19,19-33,20-529,20H881L861,2204z M1870,2075v-85h-480H910v85v85h480h480V2075z"/>
	<path class="st0" d="M850,1685c-6-8-10-22-8-32c3-17,31-18,523-18s520,1,523,18c9,47,12,47-523,47C938,1700,861,1698,850,1685z"/>
	<path class="st0" d="M852,1468c-18-18-14-46,7-58c27-14,985-14,1012,0c21,12,25,40,7,58C1861,1485,869,1485,852,1468z"/>
	<path class="st0" d="M849,1254c-9-11-10-20-2-32c9-15,41-17,304-17h294v30v30l-291,3C897,1270,861,1268,849,1254z"/>
	<path class="st0" d="M1282,907c-6-7-29-63-51-124c-33-92-38-114-27-128c14-20,45-17,57,5c5,8,15,31,22,50l14,35l12-40
		c13-39,35-65,55-65c6,0,38,30,72,67l62,67l38-33c80-70,132-74,209-15c25,19,50,34,56,34s24-11,41-25c65-55,225-17,176,42
		c-9,11-24,13-60,8c-43-6-54-4-89,21c-51,35-88,35-139-2c-23-16-47-33-54-38c-23-16-61,2-112,54c-27,27-56,50-66,50
		c-9,0-41-28-71-62l-54-61l-17,73C1335,915,1311,943,1282,907z"/>
</g>
</svg>
