<?xml version="1.0" encoding="UTF-8"?>
<!DOCTYPE svg PUBLIC "-//W3C//DTD SVG 1.1//EN" "http://www.w3.org/Graphics/SVG/1.1/DTD/svg11.dtd">
<svg xmlns="http://www.w3.org/2000/svg" version="1.1" width="225px" height="225px" style="shape-rendering:geometricPrecision; text-rendering:geometricPrecision; image-rendering:optimizeQuality; fill-rule:evenodd; clip-rule:evenodd"
  xmlns:xlink="http://www.w3.org/1999/xlink">
  <g>
    <path fill="#8A1538" d="M 50.5,1.5 C 91.168,1.33334 131.835,1.50001 172.5,2C 173.833,4.33333 173.833,6.66667 172.5,9C 133.167,9.33333 93.8333,9.66667 54.5,10C 53.6749,25.4257 53.1749,40.9257 53,56.5C 50.0431,58.0774 47.3764,57.7441 45,55.5C 44.3333,39.8333 44.3333,24.1667 45,8.5C 45.9668,5.37935 47.8001,3.04602 50.5,1.5 Z"/>
  </g>
  <g>
    <path fill="#8A1538" d="M 224.5,67.5 C 224.5,72.5 224.5,77.5 224.5,82.5C 222.599,87.0165 220.766,91.6832 219,96.5C 216.667,99.1667 214.333,99.1667 212,96.5C 212.373,89.0325 214.206,81.8659 217.5,75C 216.683,73.51 215.85,72.01 215,70.5C 209.66,87.1848 204.327,103.851 199,120.5C 198.667,141.833 198.333,163.167 198,184.5C 186.866,196.969 175.366,209.136 163.5,221C 125.918,222.654 88.2512,222.987 50.5,222C 47.6193,220.749 45.786,218.583 45,215.5C 44.5012,211.514 44.3345,207.514 44.5,203.5C 33.1618,203.667 21.8284,203.5 10.5,203C 9.06919,202.535 7.90252,201.701 7,200.5C 6.5001,187.171 6.33344,173.837 6.5,160.5C 3.92138,160.606 1.58805,159.939 -0.5,158.5C -0.5,155.833 -0.5,153.167 -0.5,150.5C 13.4215,138.247 26.7549,125.247 39.5,111.5C 41.0421,110.253 42.5421,110.253 44,111.5C 44.3333,96.8333 44.6667,82.1667 45,67.5C 46.7299,64.4523 49.2299,63.7857 52.5,65.5C 53.3205,83.7897 53.8205,102.123 54,120.5C 64.6667,131.167 75.3333,141.833 86,152.5C 87.3991,157.365 85.5658,160.032 80.5,160.5C 79.6674,172.486 79.1674,184.486 79,196.5C 78.6642,200.039 76.8309,202.206 73.5,203C 66.8417,203.5 60.175,203.666 53.5,203.5C 53.2108,207.106 53.5442,210.606 54.5,214C 88.165,214.5 121.832,214.667 155.5,214.5C 155.189,203.448 155.522,192.448 156.5,181.5C 158.028,180.139 159.695,178.972 161.5,178C 170.827,177.5 180.161,177.334 189.5,177.5C 189.5,164.167 189.5,150.833 189.5,137.5C 188.167,137.5 186.833,137.5 185.5,137.5C 185.922,143.571 183.255,146.071 177.5,145C 176.426,144.261 175.759,143.261 175.5,142C 176.268,139.864 176.934,137.697 177.5,135.5C 175.532,133.012 174.198,130.179 173.5,127C 178.466,109.769 183.633,92.602 189,75.5C 189.5,53.5025 189.667,31.5025 189.5,9.5C 186.552,9.77712 183.719,9.44379 181,8.5C 180.104,5.97498 180.604,3.80832 182.5,2C 186.167,1.33333 189.833,1.33333 193.5,2C 195.348,3.51797 196.848,5.3513 198,7.5C 198.167,21.1788 198.667,34.8455 199.5,48.5C 212.468,44.1515 218.802,48.8181 218.5,62.5C 220.981,63.7197 222.981,65.3863 224.5,67.5 Z M 205.5,54.5 C 206.708,55.2341 208.041,55.5674 209.5,55.5C 206.975,65.9092 204.142,76.2425 201,86.5C 200.069,88.4595 199.236,90.4595 198.5,92.5C 196.453,93.9039 194.786,93.5706 193.5,91.5C 197.245,79.0285 201.245,66.6952 205.5,54.5 Z M 189.5,101.5 C 191.5,101.5 193.5,101.5 195.5,101.5C 194.707,105.88 193.707,110.214 192.5,114.5C 189.739,115.085 188.073,114.085 187.5,111.5C 188.297,108.18 188.964,104.846 189.5,101.5 Z M 41.5,121.5 C 51.6615,131.494 61.9948,141.328 72.5,151C 52.5,151.667 32.5,151.667 12.5,151C 22.7036,141.63 32.3703,131.797 41.5,121.5 Z M 183.5,121.5 C 185.482,121.995 187.482,122.495 189.5,123C 188.833,124.667 188.167,126.333 187.5,128C 185.888,128.72 184.388,128.554 183,127.5C 182.82,125.512 182.986,123.512 183.5,121.5 Z M 13.5,160.5 C 32.5,160.5 51.5,160.5 70.5,160.5C 70.5,172.167 70.5,183.833 70.5,195.5C 66.1667,195.5 61.8333,195.5 57.5,195.5C 57.9408,186.724 57.4408,178.058 56,169.5C 51.5194,167.948 46.8527,167.281 42,167.5C 38.5,167.667 35,167.833 31.5,168C 30.5838,168.374 29.7504,168.874 29,169.5C 27.5592,178.058 27.0592,186.724 27.5,195.5C 22.8333,195.5 18.1667,195.5 13.5,195.5C 13.5,183.833 13.5,172.167 13.5,160.5 Z M 35.5,176.5 C 40.1667,176.5 44.8333,176.5 49.5,176.5C 49.5,182.833 49.5,189.167 49.5,195.5C 44.8333,195.5 40.1667,195.5 35.5,195.5C 35.5,189.167 35.5,182.833 35.5,176.5 Z M 163.5,186.5 C 170.508,186.334 177.508,186.5 184.5,187C 177.338,193.795 170.505,200.962 164,208.5C 163.5,201.174 163.334,193.841 163.5,186.5 Z"/>
  </g>
  <g>
    <path fill="#8A1538" d="M 77.5,27.5 C 107.169,27.3334 136.835,27.5 166.5,28C 168.521,28.513 170.021,29.6797 171,31.5C 171.667,38.1667 171.667,44.8333 171,51.5C 169.833,54 168,55.8333 165.5,57C 136.5,57.6667 107.5,57.6667 78.5,57C 76.1523,56.6541 74.3189,55.4875 73,53.5C 72.3333,45.8333 72.3333,38.1667 73,30.5C 74.4087,29.2189 75.9087,28.2189 77.5,27.5 Z M 80.5,35.5 C 108.167,35.5 135.833,35.5 163.5,35.5C 163.5,39.8333 163.5,44.1667 163.5,48.5C 135.833,48.5 108.167,48.5 80.5,48.5C 80.5,44.1667 80.5,39.8333 80.5,35.5 Z"/>
  </g>
  <g>
    <path fill="#8A1538" d="M 75.5,73.5 C 104.835,73.3334 134.169,73.5 163.5,74C 166.608,75.9396 167.275,78.6063 165.5,82C 135.167,82.6667 104.833,82.6667 74.5,82C 72.5819,80.2298 72.0819,78.0631 73,75.5C 73.9947,74.9341 74.828,74.2674 75.5,73.5 Z"/>
  </g>
  <g>
    <path fill="#8A1538" d="M 73.5,93.5 C 103.835,93.3334 134.168,93.5 164.5,94C 166.725,96.025 167.059,98.3583 165.5,101C 134.833,101.667 104.167,101.667 73.5,101C 72.3511,98.5408 72.3511,96.0408 73.5,93.5 Z"/>
  </g>
  <g>
    <path fill="#8A1538" d="M 74.5,111.5 C 91.5033,111.333 108.503,111.5 125.5,112C 129.065,114.178 129.399,116.844 126.5,120C 109.167,120.667 91.8333,120.667 74.5,120C 71.9847,117.22 71.9847,114.386 74.5,111.5 Z"/>
  </g>
  <g>
    <path fill="#8A1538" d="M 111.5,143.5 C 113.591,143.318 115.591,143.652 117.5,144.5C 118.975,148.398 120.142,152.398 121,156.5C 123.69,152.31 127.19,148.976 131.5,146.5C 135.479,149.277 139.146,152.443 142.5,156C 143.833,156.667 145.167,156.667 146.5,156C 153.825,148.851 161.325,148.684 169,155.5C 175.407,151.655 178.407,153.321 178,160.5C 170.976,164.628 164.143,164.295 157.5,159.5C 154.352,160.579 151.685,162.412 149.5,165C 145.705,165.837 142.039,165.504 138.5,164C 136.167,162.167 133.833,160.333 131.5,158.5C 128.271,161.808 124.938,164.975 121.5,168C 117.266,169.205 114.599,167.705 113.5,163.5C 112.238,167.623 109.571,169.457 105.5,169C 103.604,167.192 103.104,165.025 104,162.5C 106.549,156.087 109.049,149.754 111.5,143.5 Z"/>
  </g>
</svg>
