<?xml version="1.0" encoding="utf-8"?>
<!-- Generator: Adobe Illustrator 27.9.0, SVG Export Plug-In . SVG Version: 6.00 Build 0)  -->
<svg version="1.1" id="Layer_1" xmlns="http://www.w3.org/2000/svg" xmlns:xlink="http://www.w3.org/1999/xlink" x="0px" y="0px"
	 viewBox="0 0 512 512" style="enable-background:new 0 0 512 512;" xml:space="preserve">
<style type="text/css">
	.st0{fill:#8A1538;}
</style>
<g>
	<path class="st0" d="M213.6,432c0-8.3,0-15.4,0-23.2c-15.5,0-30.4,0-45.2,0c-45.7,0-91.5,0-137.2,0c-9.3,0-9.5-0.4-8.2-9.8
		c1.6-11.3,6.1-20.5,16.7-26.1c1.7-0.9,2.9-3.8,3.4-6c2.3-10.5,9.8-16.8,20.6-17.4c2.4-0.1,5.6-0.4,6.8-1.9
		c8.6-10.8,19.5-13.5,33.2-9.8c0-3.4,0-6.1,0-8.9c0-32,0.2-63.9-0.1-95.9c-0.1-6.2,1.8-8.2,7.8-8c11.8,0.3,23.6,0.1,35.9,0.1
		c0-47.2,0-93.7,0-140.9c-36.7,0-73.3,0-111.2,0c0,2.9,0,5.9,0,8.9c0,76.5,0,153.1,0,229.6c0,1.5,0.4,3.2-0.1,4.6
		c-0.8,2.5-2,4.9-3.1,7.4c-1-2.5-3-5.1-3-7.6c-0.2-65.7-0.1-131.4-0.1-197.2c0-14.9,0.2-29.9-0.1-44.8c-0.1-5.6,1.5-7.7,7.4-7.7
		c36.5,0.2,73,0.3,109.4,0c6.3,0,7.8,2.2,7.8,8.1c-0.2,43.8-0.1,87.6-0.1,131.4c0,2.3,0,4.6,0,8.3c8,0,15.6,0,23.2,0
		c12.1,0,24.1-0.1,36.2-0.2c3.5,0,7.2,0.9,8.1-4.5c0.2-1.2,3.7-2.5,5.6-2.5c25.7,0,51.4,0.3,77.1,0.3c15.7,0,31.3-0.3,47-0.4
		c3.9,0,8.4-1.2,9.4,5.2c0.1,1,4.8,1.8,7.4,1.8c33.7,0.1,67.3,0.3,101,0c7.1-0.1,9.3,1.9,9.2,9.2c-0.3,45.6-0.2,91.2,0,136.9
		c0,3.8,1.9,7.6,2.9,11.5c1.5,5.9,3.2,11.8,4.3,17.8c1.2,6-1.1,8.7-7.8,8.6c-33.7-0.3-67.3-0.1-101-0.1c-12.5,0-25.1,0-38.1,0
		c0,7.8,0,14.9,0,23.2c3,0,5.9,0,8.9,0c41.6,0,83.2,0,124.9,0c2.1,0,4.2-0.4,6.1,0.1c2.4,0.7,4.5,2.2,6.7,3.4
		c-2.1,1-4.1,2.9-6.2,2.9c-54.2-0.1-108.4-0.3-162.6-0.5c-8.7,0-17.4,0.6-26.1,0.5c-2.1,0-4.1-1.8-6.2-2.8c2.1-1.2,4.2-3.4,6.4-3.5
		c13.5-0.3,27.1-0.2,41.4-0.2c0-7.9,0.2-15.4-0.1-22.8c-0.2-5.1,1.7-6.9,6.7-6.8c12.3,0.2,24.6,0.1,36.5,0.1
		c2.4-6.9,4.1-13.3,6.9-19.2c4.6-9.7,12.1-15.7,23.2-16.6c1.8-0.1,3.5-1.5,5.2-2.5c1.1-0.7,1.9-1.7,2.9-2.5
		c9.2-6.5,36.1-1.6,43.7,6.7c2.8,3.1,8.8,3.5,14.3,5.4c0-47.8,0-94.5,0-141.8c-36.8,0-73.4,0-111.1,0c0,3.5,0,6.5,0,9.5
		c0,43,0,86.1-0.1,129.1c0,1.8,0.3,3.7-0.2,5.4c-0.3,1.2-1.8,2.8-2.7,2.8c-1.1,0-2.8-1.4-3-2.6c-0.5-2.2-0.3-4.6-0.3-6.9
		c0-45.4,0-90.7,0-136.1c0-2.6,0-5.1,0-8.4c-42.1,0-83.8,0-126.4,0c0,4,0,7.8,0,11.6c0,39.9,0,79.9,0,119.8c0,1.5,0.3,3.2-0.2,4.6
		c-0.4,1.3-1.6,2.3-2.4,3.4c-1.2-1.1-3.2-2.1-3.5-3.4c-0.6-2.7-0.3-5.6-0.3-8.5c0-37.1,0-74.2,0-111.3c0-2.8,0-5.6,0-9.1
		c-37.1,0-73.7,0-110.8,0c0,36,0,71.7,0,107.8c14-3.2,25.4-0.7,31.8,13.8c0.5,1.1,2.8,1.9,4.4,1.9c27.6,0.3,35.5,18.4,37.2,39.1
		c0.2,2.3,0.2,4.6,0.4,7.3c9.9,0,19.5,0,29,0c0.4-0.6,0.8-1,0.8-1.5c1-12.7,1-12.7,14-12.7c6.7,0,13.4,0.5,20-0.1
		c7.7-0.7,10.4,2.3,9.4,9.6c-0.2,1.2,0.1,2.6,0.3,5.1c7.1,0,14.1,0,21.2,0c6.9,0,13.9-0.3,20.8,0.2c3,0.2,6,2.1,8.9,3.2
		c-2.8,1-5.7,2.7-8.5,2.8c-11.3,0.3-22.6,0.1-33.9,0.1c-2.5,0-5,0-8.8,0c0,7.2-0.5,13.9,0.1,20.4c0.7,7.7-2.4,9.9-9.7,9.5
		c-8.7-0.5-17.6,0.9-26.2-0.3c-48.7-6.6-97.6-1.3-146.3-2.9c-14.1-0.5-28.2-0.2-42.3,0c-3.1,0-6.2,0.9-10.5-0.2c2-1.1,3.9-3,6-3.1
		c6.7-0.4,13.4-0.2,20-0.2c39.5,0,79.1,0,118.6,0C182.2,432,197.6,432,213.6,432z M177,402.1c0.9-24.4-8.5-42.7-34.6-40.1
		c-4.2,0.4-5.5-1.6-6.6-5.5c-2.9-9.9-12.1-13.7-22.1-10.4c-2.8,0.9-6.8,0.5-9.5-0.8c-10-5-21.8-3.3-27.6,5.4
		c-2.8,4.3-5.4,5.6-10.4,5.3c-10.9-0.7-16.2,5-16.9,16c-0.1,2-2.2,4.8-4.1,5.6c-10.6,4.5-15.4,11.7-15.5,24.5
		C78.6,402.1,127.5,402.1,177,402.1z M382.4,401.9c32.9,0,64.6,0,96.3,0c-0.1-18.2-4.5-22.9-21.6-24.6c-1.9-0.2-3.8-2.4-5.4-3.9
		c-2.1-2.1-3.7-6-6-6.3c-8-1.3-16.2-1.5-24.4-1.9c-1.4-0.1-3.4,0.5-4.1,1.6c-4,5.4-9.7,6-15.7,7.5
		C388,377.6,385.3,389.7,382.4,401.9z M220.9,431.5c10.2,0,19.5,0,29.1,0c0-12.5,0-24.6,0-36.8c-10,0-19.3,0-29.1,0
		C220.9,407.1,220.9,419,220.9,431.5z"/>
	<path class="st0" d="M310.1,105.9c-7.9,0-15,0-23.2,0c0,7.4-0.3,14.5,0.1,21.6c0.4,6.2-2.2,8-8.1,8c-22.6-0.2-45.2-0.1-67.8-0.1
		c-4.1,0-8.1,0-13.1,0c0,22.4,0,43.9,0,65.4c-0.9,0.4-1.7,0.8-2.6,1.3c-1.3-1.9-3.6-3.8-3.7-5.7c-0.2-29.9-0.2-59.8-0.2-89.7
		c0-5.2,2.4-7,7.6-7c31.8,0.1,63.7-0.2,95.6-0.3c34.2-0.1,68.3,0,102.5,0c24.1,0,48.3,0.2,72.4-0.1c6.9-0.1,8.7,2.4,8.7,9
		c-0.3,28.3-0.1,56.7-0.1,85c0,1,0.3,2.2-0.1,3.1c-0.8,1.8-2.1,3.5-3.1,5.2c-1-1.7-3-3.3-3-5c-0.2-15.7-0.1-31.4-0.1-47.2
		c0-4.1,0-8.2,0-13.3c-3.1-0.2-5.8-0.5-8.5-0.5c-23.6,0-47.3-0.2-70.9,0.1c-6.9,0.1-10-1.8-9.4-9.1c0.5-6.6,0.1-13.3,0.1-20.3
		c-8,0-15,0-23.1,0c0,7.7-0.2,15.1,0.1,22.5c0.2,5-1.6,6.9-6.6,6.9c-12.6-0.2-25.2-0.2-37.8,0c-4.3,0-5.9-1.7-5.8-6
		C310.2,121.8,310.1,114.2,310.1,105.9z M235.8,106.1c-12.8,0-24.9,0-37.5,0c0,7.7,0,15,0,22.5c12.7,0,24.9,0,37.5,0
		C235.8,121.1,235.8,113.9,235.8,106.1z M471.4,106.2c-12.8,0-25,0-37.2,0c0,7.7,0,14.7,0,22.3c12.5,0,24.7,0,37.2,0
		C471.4,121,471.4,113.9,471.4,106.2z M279.9,128.6c0-7.7,0-14.9,0-22.4c-12.7,0-24.8,0-36.9,0c0,7.8,0,15.1,0,22.4
		C255.5,128.6,267.5,128.6,279.9,128.6z M316.8,128.4c12.5,0,24.5,0,36.6,0c0-7.7,0-14.8,0-22.4c-12.3,0-24.2,0-36.6,0
		C316.8,113.6,316.8,120.7,316.8,128.4z M427,128.6c0-7.7,0-14.9,0-22.5c-12.4,0-24.2,0-36.6,0c0,7.7,0,14.9,0,22.5
		C402.9,128.6,414.8,128.6,427,128.6z"/>
	<path class="st0" d="M316.8,350c-7.8,0-14.7,0-22.9,0c0,7.6,0.2,15.2-0.1,22.7c-0.1,2.1-1.7,4.2-2.6,6.3c-1.2-2.1-3.4-4.2-3.6-6.3
		c-0.5-7.4-0.2-14.8-0.2-22.6c-7.8,0-14.8,0-22.9,0c0,3.2,0.4,6.3-0.1,9.2c-0.3,1.8-2.1,3.4-3.2,5c-1-1.8-2.7-3.5-3-5.4
		c-0.5-3.3-0.8-6.9,0.1-9.9c0.7-2.2,3.5-5.2,5.4-5.2c18.2-0.4,36.4-0.4,54.6,0c1.8,0,5,3,5.1,4.7c0.5,8.7,0.4,17.5,0.1,26.2
		c-0.1,1.5-2,3-3,4.4c-1.2-1.7-3.3-3.3-3.4-5.1C316.6,366.3,316.8,358.5,316.8,350z"/>
</g>
<g>
	<line class="st0" x1="22.2" y1="435.2" x2="250" y2="435.2"/>
	<path class="st0" d="M250,439.2H22.2c-2.2,0-4-1.8-4-4s1.8-4,4-4H250c2.2,0,4,1.8,4,4S252.3,439.2,250,439.2z"/>
</g>
<g>
	<line class="st0" x1="277" y1="435.2" x2="485.5" y2="435.2"/>
	<path class="st0" d="M485.5,438.2H277c-1.7,0-3-1.3-3-3s1.3-3,3-3h208.5c1.7,0,3,1.3,3,3S487.1,438.2,485.5,438.2z"/>
</g>
<path class="st0" d="M130.2,120.7H53.5c-0.6,0-1-0.4-1-1s0.4-1,1-1h76.6c0.6,0,1,0.4,1,1S130.7,120.7,130.2,120.7z"/>
<path class="st0" d="M130.2,147.5H53.5c-0.6,0-1-0.4-1-1s0.4-1,1-1h76.6c0.6,0,1,0.4,1,1S130.7,147.5,130.2,147.5z"/>
<path class="st0" d="M130.2,174.3H53.5c-0.6,0-1-0.4-1-1s0.4-1,1-1h76.6c0.6,0,1,0.4,1,1S130.7,174.3,130.2,174.3z"/>
<path class="st0" d="M329,254.8h-76.6c-0.6,0-1-0.4-1-1s0.4-1,1-1H329c0.6,0,1,0.4,1,1S329.5,254.8,329,254.8z"/>
<path class="st0" d="M329,285.9h-76.6c-0.6,0-1-0.4-1-1s0.4-1,1-1H329c0.6,0,1,0.4,1,1S329.5,285.9,329,285.9z"/>
<path class="st0" d="M329,315h-76.6c-0.6,0-1-0.4-1-1s0.4-1,1-1H329c0.6,0,1,0.4,1,1S329.5,315,329,315z"/>
<path class="st0" d="M130.2,201.1H53.5c-0.6,0-1-0.4-1-1s0.4-1,1-1h76.6c0.6,0,1,0.4,1,1S130.7,201.1,130.2,201.1z"/>
<path class="st0" d="M65.4,229.4H53.5c-0.6,0-1-0.4-1-1s0.4-1,1-1h11.9c0.6,0,1,0.4,1,1S66,229.4,65.4,229.4z"/>
<path class="st0" d="M91.9,229.4H80c-0.6,0-1-0.4-1-1s0.4-1,1-1h11.9c0.6,0,1,0.4,1,1S92.4,229.4,91.9,229.4z"/>
<path class="st0" d="M150.1,256.8h-23.2c-0.6,0-1-0.4-1-1s0.4-1,1-1h23.2c0.6,0,1,0.4,1,1S150.6,256.8,150.1,256.8z"/>
<path class="st0" d="M201.7,256.8h-23.2c-0.6,0-1-0.4-1-1s0.4-1,1-1h23.2c0.6,0,1,0.4,1,1S202.3,256.8,201.7,256.8z"/>
<path class="st0" d="M150.1,285.9h-23.2c-0.6,0-1-0.4-1-1s0.4-1,1-1h23.2c0.6,0,1,0.4,1,1S150.6,285.9,150.1,285.9z"/>
<path class="st0" d="M201.7,285.9h-23.2c-0.6,0-1-0.4-1-1s0.4-1,1-1h23.2c0.6,0,1,0.4,1,1S202.3,285.9,201.7,285.9z"/>
<path class="st0" d="M150.1,315h-23.2c-0.6,0-1-0.4-1-1s0.4-1,1-1h23.2c0.6,0,1,0.4,1,1S150.6,315,150.1,315z"/>
<path class="st0" d="M201.7,315h-23.2c-0.6,0-1-0.4-1-1s0.4-1,1-1h23.2c0.6,0,1,0.4,1,1S202.3,315,201.7,315z"/>
<path class="st0" d="M400.5,256.8h-23.2c-0.6,0-1-0.4-1-1s0.4-1,1-1h23.2c0.6,0,1,0.4,1,1S401.1,256.8,400.5,256.8z"/>
<path class="st0" d="M452.2,256.8H429c-0.6,0-1-0.4-1-1s0.4-1,1-1h23.2c0.6,0,1,0.4,1,1S452.8,256.8,452.2,256.8z"/>
<path class="st0" d="M400.5,285.9h-23.2c-0.6,0-1-0.4-1-1s0.4-1,1-1h23.2c0.6,0,1,0.4,1,1S401.1,285.9,400.5,285.9z"/>
<path class="st0" d="M452.2,285.9H429c-0.6,0-1-0.4-1-1s0.4-1,1-1h23.2c0.6,0,1,0.4,1,1S452.8,285.9,452.2,285.9z"/>
<path class="st0" d="M400.5,315h-23.2c-0.6,0-1-0.4-1-1s0.4-1,1-1h23.2c0.6,0,1,0.4,1,1S401.1,315,400.5,315z"/>
<path class="st0" d="M452.2,315H429c-0.6,0-1-0.4-1-1s0.4-1,1-1h23.2c0.6,0,1,0.4,1,1S452.8,315,452.2,315z"/>
<path class="st0" d="M256.4,162.6h-11.9c-0.6,0-1-0.4-1-1s0.4-1,1-1h11.9c0.6,0,1,0.4,1,1S256.9,162.6,256.4,162.6z"/>
<path class="st0" d="M282.8,162.6h-11.9c-0.6,0-1-0.4-1-1s0.4-1,1-1h11.9c0.6,0,1,0.4,1,1S283.4,162.6,282.8,162.6z"/>
<path class="st0" d="M312.6,162.6h-11.9c-0.6,0-1-0.4-1-1s0.4-1,1-1h11.9c0.6,0,1,0.4,1,1S313.1,162.6,312.6,162.6z"/>
<path class="st0" d="M339,162.6h-11.9c-0.6,0-1-0.4-1-1s0.4-1,1-1H339c0.6,0,1,0.4,1,1S339.6,162.6,339,162.6z"/>
<path class="st0" d="M367.3,162.6h-11.9c-0.6,0-1-0.4-1-1s0.4-1,1-1h11.9c0.6,0,1,0.4,1,1S367.8,162.6,367.3,162.6z"/>
<path class="st0" d="M393.7,162.6h-11.9c-0.6,0-1-0.4-1-1s0.4-1,1-1h11.9c0.6,0,1,0.4,1,1S394.2,162.6,393.7,162.6z"/>
<path class="st0" d="M421.3,162.6h-11.9c-0.6,0-1-0.4-1-1s0.4-1,1-1h11.9c0.6,0,1,0.4,1,1S421.8,162.6,421.3,162.6z"/>
<path class="st0" d="M378.3,184.1h-94.5c-0.6,0-1-0.4-1-1s0.4-1,1-1h94.5c0.6,0,1,0.4,1,1S378.8,184.1,378.3,184.1z"/>
<path class="st0" d="M252.1,184.1h-35.5c-0.6,0-1-0.4-1-1s0.4-1,1-1h35.5c0.6,0,1,0.4,1,1S252.7,184.1,252.1,184.1z"/>
<path class="st0" d="M448.3,184.1h-35.5c-0.6,0-1-0.4-1-1s0.4-1,1-1h35.5c0.6,0,1,0.4,1,1S448.8,184.1,448.3,184.1z"/>
<path class="st0" d="M65.4,257.7H53.5c-0.6,0-1-0.4-1-1s0.4-1,1-1h11.9c0.6,0,1,0.4,1,1S66,257.7,65.4,257.7z"/>
<path class="st0" d="M91.9,257.7H80c-0.6,0-1-0.4-1-1s0.4-1,1-1h11.9c0.6,0,1,0.4,1,1S92.4,257.7,91.9,257.7z"/>
<path class="st0" d="M65.4,285.9H53.5c-0.6,0-1-0.4-1-1s0.4-1,1-1h11.9c0.6,0,1,0.4,1,1S66,285.9,65.4,285.9z"/>
<path class="st0" d="M91.9,285.9H80c-0.6,0-1-0.4-1-1s0.4-1,1-1h11.9c0.6,0,1,0.4,1,1S92.4,285.9,91.9,285.9z"/>
</svg>
